<?xml version="1.0" encoding="utf-8"?>
<!-- Generator: Adobe Illustrator 16.0.0, SVG Export Plug-In . SVG Version: 6.00 Build 0)  -->
<!DOCTYPE svg PUBLIC "-//W3C//DTD SVG 1.1//EN" "http://www.w3.org/Graphics/SVG/1.1/DTD/svg11.dtd">
<svg version="1.1"
	 id="svg2" xmlns:svg="http://www.w3.org/2000/svg" xmlns:cc="http://creativecommons.org/ns#" xmlns:rdf="http://www.w3.org/1999/02/22-rdf-syntax-ns#" xmlns:dc="http://purl.org/dc/elements/1.1/"
	 xmlns="http://www.w3.org/2000/svg" xmlns:xlink="http://www.w3.org/1999/xlink" x="0px" y="0px" width="557.602px"
	 height="80.107px" viewBox="0 0 557.602 80.107" enable-background="new 0 0 557.602 80.107" xml:space="preserve">
<g>
	<g>
		<g>
			<path fill="#604C3F" stroke="#604C3F" stroke-width="0.91" stroke-miterlimit="10" d="M266.705,50.787
				c0,1.868,0.28,3.534,0.836,5.012c0.561,1.474,1.328,2.719,2.308,3.741c0.977,1.023,2.136,1.801,3.473,2.343
				c1.343,0.541,2.793,0.809,4.354,0.809c0.928,0,1.824-0.179,2.687-0.544c0.865-0.36,1.666-0.83,2.411-1.408
				c0.744-0.575,1.408-1.231,1.994-1.961c0.582-0.728,1.065-1.469,1.445-2.218l1.867,1.198c-0.546,0.89-1.19,1.745-1.935,2.57
				c-0.744,0.828-1.604,1.554-2.58,2.184c-0.978,0.628-2.084,1.135-3.315,1.515c-1.234,0.38-2.615,0.571-4.136,0.571
				c-1.463,0-2.837-0.169-4.135-0.507c-1.292-0.334-2.482-0.808-3.57-1.408c-1.087-0.603-2.06-1.331-2.913-2.182
				c-0.862-0.85-1.583-1.786-2.175-2.81c-0.591-1.021-1.042-2.115-1.363-3.285c-0.316-1.168-0.473-2.374-0.473-3.62
				c0-1.244,0.161-2.455,0.486-3.629c0.32-1.172,0.784-2.276,1.391-3.313c0.601-1.037,1.34-1.983,2.216-2.851
				c0.876-0.862,1.867-1.603,2.963-2.22c1.098-0.613,2.302-1.092,3.61-1.437c1.308-0.341,2.707-0.512,4.191-0.512
				c1.411,0,2.709,0.19,3.894,0.568c1.189,0.384,2.275,0.887,3.262,1.516c0.981,0.629,1.855,1.358,2.618,2.18
				c0.764,0.825,1.418,1.684,1.964,2.573l-1.924,1.294c-1.118-2.145-2.362-3.72-3.736-4.724c-1.372-1.002-2.945-1.503-4.724-1.503
				c-1.536,0-2.972,0.28-4.307,0.836c-1.334,0.562-2.495,1.361-3.484,2.4c-0.993,1.043-1.773,2.306-2.345,3.794
				C266.99,47.246,266.705,48.922,266.705,50.787z"/>
			<path fill="#604C3F" stroke="#604C3F" stroke-width="0.91" stroke-miterlimit="10" d="M296.708,43.51v14.554
				c0,0.506,0.121,0.988,0.354,1.439c0.234,0.449,0.554,0.842,0.962,1.17c0.405,0.332,0.885,0.593,1.429,0.79
				c0.546,0.198,1.131,0.296,1.753,0.296c0.404,0,0.838-0.087,1.294-0.257c0.456-0.172,0.907-0.412,1.343-0.718
				c0.437-0.303,0.851-0.655,1.238-1.054c0.389-0.399,0.709-0.829,0.961-1.284V43.51h4.059v20.459h-4.059v-3.831
				c-0.354,0.587-0.801,1.138-1.341,1.658c-0.54,0.523-1.126,0.976-1.753,1.364c-0.63,0.385-1.276,0.69-1.944,0.913
				c-0.666,0.224-1.297,0.333-1.896,0.333c-0.888,0-1.727-0.169-2.514-0.506c-0.786-0.335-1.473-0.791-2.056-1.362
				c-0.583-0.57-1.044-1.24-1.383-2.009c-0.336-0.768-0.505-1.592-0.505-2.466V43.51H296.708z"/>
			<path fill="#604C3F" stroke="#604C3F" stroke-width="0.91" stroke-miterlimit="10" d="M319.107,63.969h-4.055V34.196l2.894-1.162
				h1.161V63.969z"/>
			<path fill="#604C3F" stroke="#604C3F" stroke-width="0.91" stroke-miterlimit="10" d="M334.958,61.361
				c-0.546,0.938-1.269,1.681-2.176,2.225c-0.899,0.55-2.012,0.821-3.329,0.821c-0.686,0-1.281-0.114-1.782-0.345
				c-0.502-0.226-0.915-0.552-1.247-0.968c-0.331-0.42-0.575-0.922-0.731-1.507c-0.161-0.582-0.242-1.231-0.242-1.943V45.223h-3.542
				v-1.007c1.145,0,2.083-0.204,2.82-0.621c0.738-0.411,1.339-0.973,1.81-1.677c0.47-0.703,0.839-1.521,1.108-2.447
				c0.264-0.927,0.496-1.911,0.703-2.951h1.159v6.99h4.592v1.713h-4.592v14.421c0,0.305,0.058,0.591,0.174,0.857
				c0.111,0.269,0.267,0.499,0.465,0.695c0.198,0.197,0.434,0.354,0.703,0.465c0.273,0.116,0.563,0.174,0.867,0.174
				c0.459,0,0.876-0.113,1.248-0.333c0.376-0.225,0.701-0.497,0.982-0.829L334.958,61.361z"/>
			<path fill="#604C3F" stroke="#604C3F" stroke-width="0.91" stroke-miterlimit="10" d="M341.47,43.51v14.554
				c0,0.506,0.122,0.988,0.354,1.439c0.235,0.449,0.556,0.842,0.961,1.17c0.406,0.332,0.884,0.593,1.429,0.79
				c0.546,0.198,1.133,0.296,1.753,0.296c0.406,0,0.84-0.087,1.298-0.257c0.453-0.172,0.905-0.412,1.341-0.718
				c0.438-0.303,0.851-0.655,1.237-1.054c0.389-0.399,0.712-0.829,0.965-1.284V43.51h4.056v20.459h-4.056v-3.831
				c-0.356,0.587-0.804,1.138-1.346,1.658c-0.54,0.523-1.124,0.976-1.751,1.364c-0.629,0.385-1.278,0.69-1.944,0.913
				c-0.664,0.224-1.298,0.333-1.895,0.333c-0.889,0-1.726-0.169-2.516-0.506c-0.788-0.335-1.471-0.791-2.057-1.362
				c-0.582-0.57-1.043-1.24-1.382-2.009c-0.335-0.768-0.504-1.592-0.504-2.466V43.51H341.47z"/>
			<path fill="#604C3F" stroke="#604C3F" stroke-width="0.91" stroke-miterlimit="10" d="M359.625,43.51h4.038v3.868
				c0.392-0.57,0.817-1.117,1.275-1.639c0.457-0.522,0.936-0.979,1.431-1.372c0.493-0.395,1.004-0.704,1.531-0.933
				c0.526-0.229,1.065-0.346,1.61-0.346c0.442,0,0.854,0.069,1.235,0.203c0.385,0.133,0.718,0.311,1.003,0.533
				c0.286,0.221,0.511,0.48,0.677,0.782c0.164,0.298,0.247,0.609,0.247,0.941c0,0.661-0.207,1.156-0.62,1.497
				c-0.412,0.334-0.985,0.502-1.724,0.502c-0.457,0-0.822-0.045-1.096-0.143c-0.271-0.093-0.521-0.203-0.742-0.324
				c-0.222-0.119-0.447-0.229-0.676-0.322c-0.23-0.098-0.516-0.143-0.856-0.143c-0.271,0-0.534,0.08-0.812,0.235
				c-0.271,0.16-0.545,0.383-0.816,0.668c-0.273,0.286-0.552,0.621-0.832,1.01c-0.278,0.389-0.556,0.806-0.836,1.268v14.172h-4.038
				V43.51z"/>
			<path fill="#604C3F" stroke="#604C3F" stroke-width="0.91" stroke-miterlimit="10" d="M390.349,63.969h-4.075v-2.802
				c-0.481,0.369-0.957,0.745-1.421,1.126s-0.964,0.731-1.507,1.046c-0.534,0.318-1.134,0.575-1.786,0.772
				c-0.654,0.195-1.413,0.295-2.278,0.295c-0.798,0-1.523-0.13-2.169-0.392c-0.647-0.258-1.203-0.621-1.659-1.076
				c-0.459-0.455-0.807-0.995-1.046-1.618c-0.244-0.62-0.364-1.295-0.364-2.02c0-0.875,0.174-1.667,0.524-2.37
				c0.348-0.705,0.826-1.338,1.427-1.897c0.604-0.557,1.309-1.052,2.117-1.482c0.807-0.434,1.659-0.822,2.562-1.163
				c0.9-0.344,1.833-0.649,2.789-0.915c0.959-0.269,1.896-0.517,2.812-0.743v-1.277c0-0.928-0.094-1.708-0.276-2.35
				c-0.185-0.642-0.447-1.16-0.789-1.554c-0.346-0.396-0.763-0.677-1.25-0.847c-0.488-0.172-1.036-0.257-1.646-0.257
				c-0.688,0-1.244,0.087-1.678,0.265c-0.432,0.178-0.771,0.414-1.018,0.704c-0.247,0.294-0.417,0.626-0.503,1.001
				c-0.091,0.375-0.139,0.751-0.139,1.133c0,0.354-0.026,0.701-0.085,1.027c-0.055,0.334-0.159,0.621-0.313,0.868
				c-0.152,0.248-0.358,0.45-0.617,0.6c-0.262,0.153-0.594,0.23-1.001,0.23c-0.319,0-0.609-0.06-0.865-0.181
				c-0.262-0.12-0.487-0.29-0.677-0.506c-0.193-0.216-0.337-0.472-0.438-0.762c-0.102-0.292-0.152-0.611-0.152-0.952
				c0-0.674,0.22-1.302,0.665-1.885c0.447-0.584,1.041-1.092,1.789-1.516c0.752-0.427,1.628-0.763,2.633-1.011
				c1.002-0.249,2.057-0.373,3.161-0.373c1.345,0,2.479,0.135,3.407,0.393c0.927,0.261,1.675,0.624,2.249,1.096
				c0.571,0.471,0.984,1.042,1.237,1.714c0.256,0.677,0.381,1.417,0.381,2.229V63.969z M386.273,52.045
				c-0.587,0.19-1.188,0.408-1.821,0.646c-0.627,0.243-1.242,0.514-1.844,0.81c-0.605,0.3-1.179,0.623-1.723,0.972
				c-0.55,0.352-1.027,0.721-1.439,1.117c-0.412,0.391-0.741,0.812-0.984,1.256c-0.24,0.442-0.36,0.909-0.36,1.39
				c0,0.496,0.094,0.967,0.275,1.417c0.184,0.452,0.432,0.848,0.736,1.184c0.301,0.334,0.655,0.604,1.055,0.798
				c0.398,0.2,0.813,0.298,1.248,0.298c0.456,0,0.892-0.062,1.305-0.181c0.412-0.122,0.814-0.284,1.2-0.486
				c0.388-0.204,0.774-0.442,1.164-0.715c0.384-0.276,0.779-0.562,1.188-0.868V52.045z"/>
			<path fill="#604C3F" stroke="#604C3F" stroke-width="0.91" stroke-miterlimit="10" d="M400.026,63.969h-4.058V34.196l2.895-1.162
				h1.163V63.969z"/>
			<path fill="#604C3F" stroke="#604C3F" stroke-width="0.91" stroke-miterlimit="10" d="M417.36,37.432h4.456v24.821h13.353v1.716
				H417.36V37.432z"/>
			<path fill="#604C3F" stroke="#604C3F" stroke-width="0.91" stroke-miterlimit="10" d="M452.997,63.969h-4.075v-2.802
				c-0.481,0.369-0.956,0.745-1.421,1.126c-0.463,0.381-0.962,0.731-1.502,1.046c-0.539,0.318-1.138,0.575-1.791,0.772
				c-0.654,0.195-1.413,0.295-2.277,0.295c-0.8,0-1.524-0.13-2.17-0.392c-0.648-0.258-1.201-0.621-1.657-1.076
				s-0.807-0.995-1.047-1.618c-0.244-0.62-0.362-1.295-0.362-2.02c0-0.875,0.171-1.667,0.521-2.37
				c0.351-0.705,0.826-1.338,1.428-1.897c0.604-0.557,1.308-1.052,2.117-1.482c0.807-0.434,1.658-0.822,2.561-1.163
				c0.902-0.344,1.833-0.649,2.789-0.915c0.961-0.269,1.896-0.517,2.812-0.743v-1.277c0-0.928-0.093-1.708-0.275-2.35
				c-0.184-0.642-0.45-1.16-0.788-1.554c-0.347-0.396-0.763-0.677-1.252-0.847c-0.487-0.172-1.037-0.257-1.647-0.257
				c-0.684,0-1.243,0.087-1.675,0.265s-0.774,0.414-1.021,0.704c-0.244,0.294-0.414,0.626-0.5,1.001
				c-0.094,0.375-0.138,0.751-0.138,1.133c0,0.354-0.026,0.701-0.086,1.027c-0.055,0.334-0.161,0.621-0.313,0.868
				c-0.153,0.248-0.357,0.45-0.618,0.6c-0.26,0.153-0.594,0.23-1,0.23c-0.317,0-0.607-0.06-0.866-0.181
				c-0.26-0.12-0.483-0.29-0.677-0.506c-0.192-0.216-0.334-0.472-0.438-0.762c-0.101-0.292-0.153-0.611-0.153-0.952
				c0-0.674,0.224-1.302,0.667-1.885c0.443-0.584,1.039-1.092,1.791-1.516c0.75-0.427,1.627-0.763,2.63-1.011
				c1.002-0.249,2.056-0.373,3.162-0.373c1.345,0,2.479,0.135,3.408,0.393c0.926,0.261,1.679,0.624,2.249,1.096
				c0.57,0.471,0.984,1.042,1.236,1.714c0.257,0.677,0.381,1.417,0.381,2.229V63.969z M448.922,52.045
				c-0.584,0.19-1.19,0.408-1.82,0.646c-0.628,0.243-1.243,0.514-1.844,0.81c-0.607,0.3-1.182,0.623-1.725,0.972
				c-0.548,0.352-1.027,0.721-1.438,1.117c-0.414,0.391-0.742,0.812-0.981,1.256c-0.243,0.442-0.361,0.909-0.361,1.39
				c0,0.496,0.091,0.967,0.273,1.417c0.183,0.452,0.43,0.848,0.736,1.184c0.303,0.334,0.654,0.604,1.055,0.798
				c0.396,0.2,0.816,0.298,1.247,0.298c0.456,0,0.892-0.062,1.306-0.181c0.41-0.122,0.813-0.284,1.199-0.486
				c0.388-0.204,0.774-0.442,1.162-0.715c0.385-0.276,0.782-0.562,1.19-0.868V52.045z"/>
			<path fill="#604C3F" stroke="#604C3F" stroke-width="0.91" stroke-miterlimit="10" d="M462.484,43.51v14.554
				c0,0.506,0.119,0.988,0.354,1.439c0.233,0.449,0.552,0.842,0.96,1.17c0.406,0.332,0.882,0.593,1.428,0.79
				c0.55,0.198,1.132,0.296,1.755,0.296c0.404,0,0.836-0.087,1.295-0.257c0.455-0.172,0.904-0.412,1.339-0.718
				c0.442-0.303,0.852-0.655,1.24-1.054c0.389-0.399,0.71-0.829,0.962-1.284V43.51h4.058v20.459h-4.058v-3.831
				c-0.354,0.587-0.801,1.138-1.342,1.658c-0.539,0.523-1.126,0.976-1.752,1.364c-0.628,0.385-1.277,0.69-1.943,0.913
				c-0.667,0.224-1.298,0.333-1.896,0.333c-0.886,0-1.726-0.169-2.513-0.506c-0.787-0.335-1.475-0.791-2.06-1.362
				c-0.581-0.57-1.042-1.24-1.379-2.009c-0.337-0.768-0.506-1.592-0.506-2.466V43.51H462.484z"/>
			<path fill="#604C3F" stroke="#604C3F" stroke-width="0.91" stroke-miterlimit="10" d="M480.635,43.51h4.06v3.735
				c1.231-1.386,2.515-2.423,3.85-3.117c1.333-0.689,2.69-1.039,4.073-1.039c0.714,0,1.382,0.165,2.015,0.489
				c0.626,0.322,1.169,0.764,1.636,1.322c0.463,0.559,0.828,1.218,1.104,1.972c0.273,0.756,0.409,1.558,0.409,2.409v14.688h-4.078
				V49.969c0-1.347-0.301-2.37-0.912-3.067c-0.61-0.699-1.392-1.045-2.342-1.045c-0.434,0-0.89,0.068-1.374,0.21
				c-0.48,0.136-0.969,0.335-1.467,0.596c-0.494,0.263-0.987,0.573-1.484,0.935c-0.496,0.361-0.971,0.764-1.429,1.21v15.163h-4.06
				V43.51z"/>
			<path fill="#604C3F" stroke="#604C3F" stroke-width="0.91" stroke-miterlimit="10" d="M511.136,64.407
				c-1.334,0-2.59-0.265-3.766-0.791c-1.175-0.526-2.196-1.248-3.065-2.161c-0.87-0.914-1.558-1.989-2.059-3.22
				c-0.502-1.232-0.748-2.545-0.748-3.944c0-1.547,0.272-3.003,0.826-4.363c0.551-1.357,1.312-2.545,2.274-3.561
				c0.967-1.014,2.091-1.813,3.374-2.397c1.28-0.584,2.658-0.88,4.131-0.88c1.146,0,2.196,0.124,3.165,0.373
				c0.964,0.248,1.793,0.589,2.492,1.029c0.697,0.438,1.248,0.959,1.638,1.555c0.393,0.595,0.593,1.236,0.593,1.923
				c0,0.306-0.078,0.592-0.238,0.868c-0.162,0.271-0.366,0.511-0.621,0.71c-0.251,0.206-0.54,0.366-0.865,0.488
				c-0.324,0.12-0.649,0.182-0.979,0.182c-0.371,0-0.7-0.07-0.993-0.203c-0.293-0.131-0.543-0.305-0.751-0.513
				c-0.207-0.209-0.369-0.447-0.477-0.714c-0.109-0.267-0.162-0.538-0.162-0.818c0-0.472-0.052-0.912-0.152-1.322
				c-0.104-0.417-0.281-0.772-0.53-1.067c-0.257-0.301-0.606-0.536-1.05-0.707c-0.447-0.17-1.011-0.255-1.694-0.255
				c-0.927,0-1.761,0.186-2.498,0.562c-0.736,0.376-1.357,0.876-1.865,1.512c-0.51,0.638-0.897,1.385-1.163,2.24
				c-0.268,0.856-0.401,1.77-0.401,2.73c0,1.307,0.173,2.547,0.515,3.717c0.347,1.169,0.826,2.189,1.449,3.068
				c0.623,0.876,1.371,1.57,2.248,2.083c0.877,0.518,1.854,0.771,2.934,0.771c0.952,0,1.775-0.146,2.477-0.447
				c0.697-0.299,1.304-0.698,1.817-1.209c0.517-0.508,0.953-1.1,1.324-1.77c0.368-0.674,0.699-1.384,0.989-2.134l1.221,0.495
				c-0.344,1.281-0.808,2.431-1.392,3.445c-0.583,1.02-1.272,1.875-2.064,2.572c-0.795,0.701-1.689,1.232-2.687,1.6
				C513.384,64.222,512.302,64.407,511.136,64.407z"/>
			<path fill="#604C3F" stroke="#604C3F" stroke-width="0.91" stroke-miterlimit="10" d="M528.393,47.246
				c1.231-1.386,2.515-2.423,3.844-3.117c1.333-0.689,2.694-1.039,4.078-1.039c0.712,0,1.381,0.165,2.01,0.489
				c0.63,0.322,1.174,0.764,1.638,1.322s0.83,1.218,1.099,1.972c0.265,0.756,0.397,1.558,0.397,2.409v14.688h-4.059V49.969
				c0-1.347-0.305-2.37-0.913-3.067c-0.608-0.699-1.399-1.045-2.36-1.045c-0.434,0-0.892,0.068-1.375,0.21
				c-0.479,0.136-0.97,0.335-1.466,0.596c-0.494,0.263-0.987,0.573-1.476,0.935s-0.964,0.764-1.417,1.21v15.163h-4.059V34.196
				l2.895-1.162h1.164V47.246z"/>
		</g>
	</g>
	<g>
		<g>
			<path fill="#006934" d="M103.173,36.961l-0.056,1.229V38.3c0,0.726,0.39,0.95,2.063,0.95c2.179,0,3.24-0.335,3.965-0.671
				c0.111-0.054,0.279-0.111,0.39-0.111c0.671,0,2.122,1.507,2.122,1.954c0,0.167,0,1.061-6.309,1.061
				c-2.624,0-5.024-0.057-5.024-2.848v-1.507l-3.125,0.224c-3.463,4.968-10.161,6.42-11.502,6.42c-0.558,0-0.893-0.168-0.893-0.446
				c0-0.336,0.559-0.839,1.675-1.229c2.847-1.062,5.304-2.345,7.09-4.522l-3.965,0.223c-0.445,0-0.781,0.056-1.061,0.056
				c-1.449,0-2.121-1.117-2.399-1.786c-0.111-0.168-0.111-0.335-0.111-0.447c0-0.279,0.167-0.391,0.502-0.391
				c0.111,0,0.222,0.056,0.39,0.056c0.616,0.111,1.229,0.168,1.788,0.168h0.558l7.983-0.503l-0.055-2.176l-3.126,0.222
				c-0.559,0.057-1.005,0.057-1.396,0.057c-0.559,0-0.949-0.057-1.339-0.278c-0.559-0.393-1.006-1.061-1.229-1.508
				c-0.057-0.167-0.111-0.28-0.111-0.391c0-0.224,0.111-0.334,0.391-0.334c0.111,0,0.279,0,0.445,0.054
				c0.616,0.168,1.173,0.225,1.897,0.225h0.671l3.742-0.225v-0.781c0-0.838-0.168-1.34-0.56-2.177
				c-0.054-0.168-0.111-0.279-0.111-0.39c0-0.282,0.225-0.393,0.671-0.393c0.167,0,3.069,0,3.069,1.843v1.675l2.568-0.167
				c0.616-0.057,1.284-0.168,2.011-0.391c0.279-0.112,0.502-0.168,0.781-0.168c0.447,0,2.456,1.005,2.456,1.898
				c0,0.391-0.558,0.558-1.339,0.614l-6.532,0.447v2.177l5.808-0.334c0.724-0.057,1.284-0.113,1.953-0.335
				c0.223-0.057,0.503-0.111,0.727-0.111c1.284,0,2.513,1.339,2.513,1.897c0,0.39-0.503,0.614-1.34,0.671L103.173,36.961z
				 M115.343,24.679c-2.011,3.962-2.568,5.135-3.406,5.135c-0.335,0-0.502-0.334-0.502-0.895c0-0.39,0-0.445,1.061-4.074
				l-8.153,0.446l0.448,2.513c0,0.167,0.056,0.334,0.056,0.446c0,0.558-0.224,0.893-0.893,0.893c-0.279,0-2.736-0.056-2.736-2.009
				c0-0.559,0-1.117-0.055-1.675l-10.384,0.613c-0.502,0.057-0.95,0.057-1.284,0.057c-1.005,0-1.507-0.111-1.897-0.503
				c-1.005-0.893-1.396-1.897-1.396-2.121c0-0.167,0.111-0.279,0.335-0.279c0.111,0,0.222,0,0.39,0.056
				c0.616,0.168,1.117,0.223,1.731,0.223c0.28,0,0.614-0.055,0.948-0.055l11.054-0.671l-0.278-1.618
				c-0.169-0.782-0.559-1.396-1.229-1.954c-0.224-0.168-0.334-0.335-0.334-0.558c0-0.225,0.334-0.446,1.173-0.446
				c0.948,0,3.183,0,3.461,1.618l0.447,2.792l9.267-0.559l0.446-2.4c0-0.224,0.057-0.447,0.057-0.67c0-0.391-0.057-0.838-0.28-1.341
				c-0.056-0.111-0.056-0.222-0.056-0.333c0-0.225,0.111-0.336,0.393-0.336c0.39,0,1.004,0.167,1.842,0.502
				c1.284,0.502,1.843,1.173,1.843,1.898c0,0.447-0.393,1.451-0.838,2.456l7.759-0.446c1.173-0.056,1.954-0.168,2.792-0.447
				c0.334-0.112,0.613-0.167,0.836-0.167c0.839,0,2.624,1.394,2.624,2.401c0,0.445-0.5,0.613-1.172,0.668L115.343,24.679z
				 M105.349,58.9c-1.786,1.786-3.405,3.519-5.137,4.914c5.192-0.168,11.055-0.56,16.694-1.116
				c-2.847-1.452-3.125-1.564-3.125-2.012c0-0.557,0.668-1.786,1.45-1.786c0.614,0,5.694,2.401,10.664,5.473
				c0.613,0.39,0.892,0.668,0.892,1.172c0,0.224-0.391,2.289-1.507,2.289c-0.334,0-0.67-0.167-1.004-0.391
				c-1.284-0.895-2.568-1.788-3.909-2.568c-10.327,1.116-18.814,1.674-25.903,1.954c-0.559,0-1.061,0.056-1.451,0.056
				c-1.452,0-2.904-1.731-2.904-2.848c0-0.223,0.168-0.391,0.447-0.391c0.112,0,0.223,0,0.391,0.056
				c0.893,0.278,1.674,0.278,2.4,0.278h0.671c0.724,0,1.451,0,2.176-0.054c1.954-1.62,3.517-3.351,4.913-4.858L89.941,59.46h-0.614
				c-2.456,0-3.015-2.178-3.015-2.568c0-0.224,0.057-0.28,0.28-0.28c0.111,0,0.279,0,0.446,0.057
				c0.67,0.168,1.731,0.279,2.512,0.279l36.345-1.229c0.724,0,1.451-0.11,2.064-0.334c0.28-0.112,0.448-0.168,0.671-0.168
				c1.229,0,2.513,1.844,2.513,2.178c0,0.446-0.56,0.614-1.396,0.671L105.349,58.9z M100.212,45.558v2.568
				c2.402-0.336,4.914-0.727,7.537-1.229c0.447-0.057,0.838-0.112,1.173-0.112c0.725,0,1.116,0.169,1.116,0.447
				c0,0.334-0.558,0.781-1.729,1.061c-11.278,3.07-18.033,4.075-18.647,4.075c-1.563,0-2.847-2.345-2.847-2.734
				c0-0.28,0.223-0.393,0.558-0.393h0.28c0.558,0.057,1.061,0.112,1.563,0.112c0.559,0,1.061-0.056,1.507-0.056
				c1.954-0.111,4.187-0.446,6.643-0.782l-0.056-2.79l-3.237,0.166c-0.392,0-0.839,0.056-1.229,0.056
				c-0.616,0-1.229-0.11-1.674-0.558c-0.503-0.614-0.839-1.172-0.839-1.73c0-0.279,0.112-0.334,0.336-0.334
				c0.055,0,0.222,0.055,0.334,0.055c0.614,0.111,1.396,0.224,2.177,0.224h0.502l3.573-0.224v-0.727
				c0-0.557-0.055-1.339-0.446-2.009c-0.111-0.167-0.167-0.335-0.167-0.448c0-0.222,0.223-0.39,0.724-0.39
				c0.223,0,2.904,0.057,2.904,1.787v1.619l2.177-0.112c0.671-0.055,1.395-0.111,2.177-0.39c0.168-0.058,0.336-0.112,0.502-0.112
				c0.893,0,2.345,1.173,2.345,1.898c0,0.446-0.446,0.67-1.116,0.726L100.212,45.558z M100.828,54.212
				c-0.616,0-1.118,0.056-1.564,0.056c-1.786,0-2.623-2.01-2.623-2.512c0-0.225,0.111-0.281,0.39-0.281c0.112,0,0.279,0,0.447,0.057
				c0.727,0.168,1.339,0.225,2.011,0.225h0.613l15.521-0.614c0.782-0.057,1.395-0.168,1.897-0.335
				c0.335-0.112,0.671-0.224,0.894-0.224c0.782,0,2.512,1.452,2.512,2.12c0,0.447-0.559,0.614-1.395,0.671L100.828,54.212z
				 M133.375,43.772c0,5.582-0.725,6.362-5.583,6.362c-2.233,0-5.023-0.166-5.023-3.851c0-0.224,0-0.502,0.055-0.782l1.003-10.774
				l-3.851,0.334c-0.223,2.177-0.67,4.188-1.229,5.806c1.005,0.727,1.898,1.452,2.679,2.179c0.503,0.501,0.727,0.837,0.727,1.228
				c0,0.67-0.95,1.73-1.507,1.73c-0.334,0-0.67-0.223-1.061-0.614c-0.614-0.671-1.339-1.284-2.066-1.954
				c-2.344,4.244-6.644,7.146-7.815,7.146c-0.28,0-0.448-0.112-0.448-0.334c0-0.336,0.335-0.895,1.118-1.62
				c2.122-2.066,3.851-4.299,5.024-6.978c-0.95-0.727-1.955-1.508-3.015-2.234c-0.447-0.334-0.67-0.613-0.67-0.949
				c0-0.503,0.67-1.396,1.229-1.396c0.614,0,3.293,1.954,3.406,2.011c0.279-1.118,0.502-2.458,0.668-3.74l-2.066,0.167
				c-0.558,0.056-1.06,0.112-1.507,0.112c-0.445,0-1.674-0.057-2.68-1.954c-0.111-0.224-0.167-0.391-0.167-0.503
				c0-0.224,0.167-0.334,0.446-0.334h0.336c0.781,0.111,1.396,0.167,2.065,0.167c0.337,0,0.727,0,1.117-0.056l2.68-0.223
				c0.055-0.502,0.055-1.061,0.055-1.562c0-1.061-0.055-3.239-0.668-4.244c-0.112-0.167-0.167-0.278-0.167-0.392
				c0-0.279,0.279-0.39,0.669-0.39c0.39,0,1.004,0.111,1.674,0.334c1.34,0.448,1.452,0.895,1.452,1.62v1.34
				c0,1.061,0,2.065-0.054,3.015l4.409-0.39c0.168-0.057,0.335-0.057,0.502-0.057c0.393,0,2.179,0.558,2.179,1.786
				c0,0.503-0.393,1.005-0.447,1.507l-1.005,9.938c-0.056,0.335-0.056,0.614-0.056,0.837c0,0.895,0.391,1.34,2.289,1.34
				c2.4,0,2.679-0.224,3.461-5.527c0.223-1.508,0.671-2.233,1.061-2.233c0.447,0,0.782,0.725,0.782,2.29V43.772z"/>
			<path fill="#231815" d="M145.434,55.105l0.057,3.127v0.222c0,0.838-0.28,1.172-0.837,1.172c0,0-2.736-0.278-2.736-2.064
				c0-0.168,0-0.336,0.057-0.502c0.222-1.117,0.279-2.066,0.279-3.07l-0.558-26.463c0-1.062-0.337-2.122-0.616-2.792
				c-0.111-0.334-0.223-0.558-0.223-0.781c0-0.224,0.112-0.336,0.446-0.336c0.559,0,1.62,0.336,3.574,1.006l8.039-0.615h0.614
				c1.563,0,2.399,1.172,2.399,1.843c0,0.502-0.224,0.893-0.279,1.284l-0.893,24.675c1.116,1.229,1.508,1.954,1.508,2.345
				c0,0.559-0.727,0.559-1.564,0.614L145.434,55.105z M152.134,26.966l-7.203,0.56l0.167,10.272l6.812-0.335L152.134,26.966z
				 M151.854,40.254l-6.699,0.335l0.225,11.556l6.196-0.223L151.854,40.254z M160.452,39.584c-0.391,0-0.727,0.056-1.061,0.056
				c-1.118,0-2.736-0.168-3.629-3.015c-0.057-0.111-0.057-0.223-0.057-0.278c0-0.168,0.112-0.279,0.282-0.279
				c0.054,0,0.166,0,0.278,0.055c0.724,0.224,1.563,0.391,2.624,0.391h0.502l12.002-0.669v-6.253l-6.699,0.391
				c-0.558,0.056-1.005,0.056-1.451,0.056c-0.783,0-1.396-0.111-1.731-0.446c-1.005-1.004-1.396-2.513-1.396-2.68
				c0-0.167,0.057-0.278,0.223-0.278c0.057,0,0.167,0,0.28,0.054c0.669,0.225,1.729,0.391,2.68,0.391h0.446l7.704-0.445v-6.087
				c0-1.004-0.167-1.73-0.558-2.4c-0.223-0.391-0.334-0.67-0.334-0.836c0-0.28,0.166-0.393,0.502-0.393
				c0.39,0,1.061,0.168,1.897,0.447c1.564,0.503,1.898,0.727,1.898,1.507v7.537l5.193-0.336c1.116-0.054,1.897-0.222,2.624-0.5
				c0.166-0.057,0.278-0.112,0.445-0.112c0.558,0,2.959,1.73,2.959,2.624c0,0.447-0.614,0.614-1.396,0.67l-9.881,0.614v6.31
				l10.497-0.615c1.06-0.056,1.953-0.224,2.624-0.502c0.167-0.056,0.279-0.111,0.445-0.111c1.063,0,3.07,2.176,3.07,2.679
				c0,0.447-0.558,0.67-1.451,0.726L160.452,39.584z M176.866,48.127l-14.795,0.726c-0.558,0-1.005,0.056-1.451,0.056
				c-1.396,0-2.346-0.279-3.184-2.903c-0.054-0.112-0.054-0.223-0.054-0.278c0-0.168,0.054-0.225,0.223-0.225
				c0.111,0,0.223,0,0.39,0.057c0.671,0.168,1.508,0.279,2.402,0.279h0.558l15.912-0.782V43.66c0-1.227-0.28-2.177-0.837-3.015
				c-0.224-0.335-0.334-0.614-0.334-0.781c0-0.225,0.167-0.335,0.502-0.335c0.445,0,4.075,0.725,4.075,2.344v3.071l4.076-0.225
				c0.725-0.054,1.284-0.222,2.009-0.558c0.112-0.056,0.225-0.056,0.391-0.056c0.67,0,3.293,1.507,3.293,2.624
				c0,0.503-0.558,0.782-1.339,0.837l-8.374,0.392l0.111,15.968c0,0.612,0.056,1.227,0.056,1.729c0,1.844-1.452,2.904-2.568,2.904
				c-1.395,0-9.546-4.633-9.546-6.141c0-0.278,0.167-0.391,0.558-0.391c0.336,0,0.894,0.112,1.565,0.391
				c1.897,0.726,4.41,1.396,6.475,1.786L176.866,48.127z M170.388,58.958c-0.39,0-0.725-0.225-1.004-0.615
				c-1.395-1.843-3.461-4.354-5.08-5.806c-0.278-0.279-0.448-0.502-0.448-0.781c0-0.614,1.061-1.731,1.788-1.731
				c1.116,0,6.755,6.142,6.755,6.923c0,0.335-0.223,0.725-0.837,1.339C171.115,58.733,170.723,58.958,170.388,58.958z"/>
			<path fill="#231815" d="M205.393,36.904c-5.303,6.532-10.552,10.44-11.334,10.44c-0.279,0-0.39-0.111-0.39-0.39
				c0-0.281,0.223-0.728,0.725-1.285c6.979-7.426,11.837-14.348,15.688-23.559c0.223-0.503,0.335-1.061,0.335-1.675
				c0-0.279,0-0.503-0.057-0.782V19.43c0-0.391,0.111-0.614,0.502-0.614c1.062,0,3.741,1.843,3.741,2.681
				c0,0.558-2.345,5.639-5.918,10.885l0.056,33.553c0,0.839-0.39,1.173-0.95,1.173c-0.947,0-3.013-1.005-3.013-2.456
				c0-0.168,0-0.335,0.057-0.558c0.277-1.229,0.334-2.346,0.334-3.407L205.393,36.904z M245.812,54.099
				c-0.167,2.625-0.613,5.862-1.226,8.988c-0.616,3.183-1.507,4.3-2.85,4.3c-0.668,0-3.963-1.005-6.977-4.021
				c-8.207-8.096-10.384-18.479-11.613-24.397l-8.094,1.284c-0.391,0.056-0.727,0.111-1.062,0.111c-1.06,0-1.785-0.725-2.734-2.4
				c-0.057-0.167-0.113-0.279-0.113-0.334c0-0.279,0.223-0.391,0.502-0.391h0.114c0.334,0.057,0.668,0.057,0.947,0.057
				c0.615,0,1.173-0.057,1.844-0.168l8.039-1.229c-0.782-4.578-1.34-9.38-1.507-13.566c-0.056-1.396-0.448-2.176-1.061-3.069
				c-0.223-0.28-0.335-0.503-0.335-0.728c0-0.333,0.391-0.5,0.948-0.5c0.838,0,3.963,0.39,3.963,2.344
				c0.169,5.472,0.782,10.441,1.564,14.963l12.394-1.899c0.671-0.111,1.116-0.222,1.675-0.502c0.167-0.111,0.335-0.111,0.559-0.111
				c0.668,0,2.679,1.395,2.679,2.288c0,0.503-0.559,0.839-1.451,0.95l-15.242,2.345c0.334,1.619,0.67,3.182,1.005,4.578
				c1.785,7.593,6.364,15.855,12.449,19.595c0.167,0.113,0.335,0.17,0.503,0.17c0.558,0,2.456-5.751,3.237-9.102
				c0.393-1.618,0.838-2.457,1.229-2.457c0.39,0,0.613,0.727,0.613,2.121V54.099z M234.759,30.876
				c-2.011-2.401-4.41-4.969-6.699-6.979c-0.334-0.28-0.502-0.559-0.502-0.839c0-0.614,1.004-1.786,1.674-1.786
				c0.949,0,5.527,4.522,7.873,7.147c0.334,0.334,0.502,0.669,0.502,1.004c0,0.95-1.341,2.011-1.898,2.011
				C235.374,31.434,235.038,31.21,234.759,30.876z"/>
		</g>
		<g>
			<g>
				<g>
					<g>
						<defs>
							<path id="SVGID_1_" d="M74.439,42.342h-2.666c0,0.007,0.001,0.014,0.001,0.021c0,14.625-11.856,26.482-26.482,26.482
								S18.81,56.987,18.81,42.362c0-14.611,11.833-26.458,26.438-26.481v-2.667c-16.077,0.024-29.103,13.063-29.103,29.147
								c0,16.098,13.048,29.147,29.147,29.147c16.098,0,29.146-13.05,29.146-29.147C74.439,42.355,74.439,42.348,74.439,42.342z"/>
						</defs>
						<clipPath id="SVGID_2_">
							<use xlink:href="#SVGID_1_"  overflow="visible"/>
						</clipPath>
						<polygon clip-path="url(#SVGID_2_)" fill="#006934" points="74.301,30.069 45.25,12.553 74.301,12.553 						"/>
						<polygon clip-path="url(#SVGID_2_)" fill="#006934" points="74.301,30.721 44.117,12.553 45.249,12.553 74.301,30.069 						
							"/>
						<polygon clip-path="url(#SVGID_2_)" fill="#016934" points="74.301,31.375 42.984,12.553 44.117,12.553 74.301,30.721 						
							"/>
						<polygon clip-path="url(#SVGID_2_)" fill="#026834" points="74.301,32.03 41.851,12.553 42.984,12.553 74.301,31.375 						
							"/>
						<polygon clip-path="url(#SVGID_2_)" fill="#036834" points="74.301,32.683 40.719,12.553 41.851,12.553 74.301,32.03 						
							"/>
						<polygon clip-path="url(#SVGID_2_)" fill="#046834" points="74.301,33.338 39.586,12.553 40.719,12.553 74.301,32.683 						
							"/>
						<polygon clip-path="url(#SVGID_2_)" fill="#056735" points="74.301,33.991 38.453,12.553 39.586,12.553 74.301,33.338 						
							"/>
						<polygon clip-path="url(#SVGID_2_)" fill="#066735" points="74.301,34.646 37.321,12.553 38.453,12.553 74.301,33.991 						
							"/>
						<polygon clip-path="url(#SVGID_2_)" fill="#076735" points="74.301,35.3 36.187,12.553 37.321,12.553 74.301,34.646 						"/>
						<polygon clip-path="url(#SVGID_2_)" fill="#086735" points="74.301,35.954 35.055,12.553 36.187,12.553 74.301,35.3 						"/>
						<polygon clip-path="url(#SVGID_2_)" fill="#096635" points="74.301,36.607 33.923,12.553 35.055,12.553 74.301,35.954 						
							"/>
						<polygon clip-path="url(#SVGID_2_)" fill="#0A6635" points="74.301,37.262 32.789,12.553 33.923,12.553 74.301,36.607 						
							"/>
						<polygon clip-path="url(#SVGID_2_)" fill="#0B6635" points="74.301,37.916 31.657,12.553 32.789,12.553 74.301,37.262 						
							"/>
						<polygon clip-path="url(#SVGID_2_)" fill="#0C6535" points="74.301,38.57 30.525,12.553 31.657,12.553 74.301,37.916 						
							"/>
						<polygon clip-path="url(#SVGID_2_)" fill="#0D6536" points="74.301,39.224 29.391,12.553 30.525,12.553 74.301,38.57 						
							"/>
						<polygon clip-path="url(#SVGID_2_)" fill="#0E6536" points="74.301,39.879 28.259,12.553 29.391,12.553 74.301,39.224 						
							"/>
						<polygon clip-path="url(#SVGID_2_)" fill="#0F6436" points="74.301,40.531 27.126,12.553 28.259,12.553 74.301,39.879 						
							"/>
						<polygon clip-path="url(#SVGID_2_)" fill="#106436" points="74.301,41.186 25.993,12.553 27.126,12.553 74.301,40.531 						
							"/>
						<polygon clip-path="url(#SVGID_2_)" fill="#116436" points="74.301,41.841 24.861,12.553 25.993,12.553 74.301,41.186 						
							"/>
						<polygon clip-path="url(#SVGID_2_)" fill="#126436" points="74.301,42.493 23.727,12.553 24.861,12.553 74.301,41.841 						
							"/>
						<polygon clip-path="url(#SVGID_2_)" fill="#136336" points="74.301,43.148 22.762,13.021 22.912,12.553 23.727,12.553 
							74.301,42.493 						"/>
						<polygon clip-path="url(#SVGID_2_)" fill="#146336" points="74.301,43.801 22.479,13.842 22.728,13.351 74.301,43.148 						
							"/>
						<polygon clip-path="url(#SVGID_2_)" fill="#156336" points="74.301,44.456 22.198,14.333 22.445,13.842 74.301,43.801 						
							"/>
						<polygon clip-path="url(#SVGID_2_)" fill="#166237" points="74.301,45.11 21.914,14.823 22.161,14.333 74.301,44.456 						
							"/>
						<polygon clip-path="url(#SVGID_2_)" fill="#176237" points="74.301,45.764 21.631,15.314 21.879,14.823 74.301,45.11 						
							"/>
						<polygon clip-path="url(#SVGID_2_)" fill="#186237" points="74.301,46.418 21.348,15.805 21.596,15.314 74.301,45.764 						
							"/>
						<polygon clip-path="url(#SVGID_2_)" fill="#196137" points="74.301,47.072 21.063,16.295 21.312,15.805 74.301,46.418 						
							"/>
						<polygon clip-path="url(#SVGID_2_)" fill="#1A6137" points="74.301,47.725 20.78,16.785 21.029,16.295 74.301,47.072 						
							"/>
						<polygon clip-path="url(#SVGID_2_)" fill="#1B6137" points="74.301,48.38 20.497,17.276 20.745,16.785 74.301,47.725 						
							"/>
						<polygon clip-path="url(#SVGID_2_)" fill="#1C6037" points="74.301,49.034 20.214,17.767 20.461,17.276 74.301,48.38 						
							"/>
						<polygon clip-path="url(#SVGID_2_)" fill="#1D6037" points="74.301,49.688 19.931,18.258 20.18,17.767 74.301,49.034 						
							"/>
						<polygon clip-path="url(#SVGID_2_)" fill="#1E6037" points="74.301,50.342 19.646,18.747 19.896,18.258 74.301,49.688 						
							"/>
						<polygon clip-path="url(#SVGID_2_)" fill="#1F6038" points="74.301,50.995 19.364,19.24 19.613,18.747 74.301,50.342 						
							"/>
						<polygon clip-path="url(#SVGID_2_)" fill="#205F38" points="74.301,51.651 19.081,19.727 19.329,19.24 74.301,50.995 						
							"/>
						<polygon clip-path="url(#SVGID_2_)" fill="#215F38" points="74.301,52.303 18.798,20.219 19.046,19.727 74.301,51.651 						
							"/>
						<polygon clip-path="url(#SVGID_2_)" fill="#225F38" points="74.301,52.958 18.517,20.71 18.764,20.219 74.301,52.303 						
							"/>
						<polygon clip-path="url(#SVGID_2_)" fill="#235E38" points="74.301,53.611 18.232,21.199 18.479,20.71 74.301,52.958 						
							"/>
						<polygon clip-path="url(#SVGID_2_)" fill="#245E38" points="74.301,54.265 17.949,21.691 18.197,21.199 74.301,53.611 						
							"/>
						<polygon clip-path="url(#SVGID_2_)" fill="#255E38" points="74.301,54.92 17.666,22.181 17.914,21.691 74.301,54.265 						
							"/>
						<polygon clip-path="url(#SVGID_2_)" fill="#265D38" points="74.301,55.575 17.381,22.671 17.63,22.181 74.301,54.92 						"/>
						<polygon clip-path="url(#SVGID_2_)" fill="#275D39" points="74.301,56.227 17.098,23.161 17.347,22.671 74.301,55.575 						
							"/>
						<polygon clip-path="url(#SVGID_2_)" fill="#285D39" points="74.301,56.883 16.815,23.652 17.063,23.161 74.301,56.227 						
							"/>
						<polygon clip-path="url(#SVGID_2_)" fill="#295C39" points="74.301,57.535 16.532,24.143 16.78,23.652 74.301,56.883 						
							"/>
						<polygon clip-path="url(#SVGID_2_)" fill="#2A5C39" points="74.301,58.191 16.25,24.634 16.497,24.143 74.301,57.535 						
							"/>
						<polygon clip-path="url(#SVGID_2_)" fill="#2B5C39" points="74.301,58.844 15.301,25.187 15.301,24.934 15.828,24.634 
							74.301,58.191 						"/>
						<polygon clip-path="url(#SVGID_2_)" fill="#2C5C39" points="74.301,59.499 15.301,25.841 15.301,25.187 74.301,58.844 						
							"/>
						<polygon clip-path="url(#SVGID_2_)" fill="#2D5B39" points="74.301,59.802 73.796,60.065 15.301,26.496 15.301,25.841 
							74.301,59.499 						"/>
						<polygon clip-path="url(#SVGID_2_)" fill="#2E5B39" points="73.867,60.065 73.373,60.554 15.301,27.149 15.301,26.496 						
							"/>
						<polygon clip-path="url(#SVGID_2_)" fill="#2F5B39" points="73.583,60.554 73.09,61.045 15.301,27.803 15.301,27.149 						
							"/>
						<polygon clip-path="url(#SVGID_2_)" fill="#315A3A" points="73.299,61.045 72.808,61.537 15.301,28.458 15.301,27.803 						
							"/>
						<polygon clip-path="url(#SVGID_2_)" fill="#325A3A" points="73.018,61.537 72.524,62.027 15.301,29.113 15.301,28.458 						
							"/>
						<polygon clip-path="url(#SVGID_2_)" fill="#335A3A" points="72.733,62.027 72.24,62.517 15.301,29.765 15.301,29.113 						
							"/>
						<polygon clip-path="url(#SVGID_2_)" fill="#34593A" points="72.45,62.517 71.958,63.009 15.301,30.42 15.301,29.765 						"/>
						<polygon clip-path="url(#SVGID_2_)" fill="#35593A" points="72.169,63.009 71.675,63.499 15.301,31.073 15.301,30.42 						
							"/>
						<polygon clip-path="url(#SVGID_2_)" fill="#36593A" points="71.884,63.499 71.392,63.989 15.301,31.727 15.301,31.073 						
							"/>
						<polygon clip-path="url(#SVGID_2_)" fill="#37593A" points="71.603,63.989 71.108,64.478 15.301,32.382 15.301,31.727 						
							"/>
						<polygon clip-path="url(#SVGID_2_)" fill="#38583A" points="71.318,64.478 70.825,64.97 15.301,33.036 15.301,32.382 						
							"/>
						<polygon clip-path="url(#SVGID_2_)" fill="#39583A" points="71.035,64.97 70.541,65.461 15.301,33.689 15.301,33.036 						
							"/>
						<polygon clip-path="url(#SVGID_2_)" fill="#3A583B" points="70.752,65.461 70.258,65.951 15.301,34.343 15.301,33.689 						
							"/>
						<polygon clip-path="url(#SVGID_2_)" fill="#3B573B" points="70.468,65.951 69.976,66.442 15.301,34.997 15.301,34.343 						
							"/>
						<polygon clip-path="url(#SVGID_2_)" fill="#3C573B" points="70.185,66.442 69.691,66.93 15.301,35.653 15.301,34.997 						
							"/>
						<polygon clip-path="url(#SVGID_2_)" fill="#3D573B" points="69.902,66.93 69.408,67.422 15.301,36.306 15.301,35.653 						
							"/>
						<polygon clip-path="url(#SVGID_2_)" fill="#3E563B" points="69.617,67.422 69.125,67.913 15.301,36.959 15.301,36.306 						
							"/>
						<polygon clip-path="url(#SVGID_2_)" fill="#3F563B" points="69.336,67.913 68.843,68.403 15.301,37.613 15.301,36.959 						
							"/>
						<polygon clip-path="url(#SVGID_2_)" fill="#40563B" points="69.051,68.403 68.559,68.894 15.301,38.268 15.301,37.613 						
							"/>
						<polygon clip-path="url(#SVGID_2_)" fill="#41553B" points="68.768,68.894 68.275,69.385 15.301,38.923 15.301,38.268 						
							"/>
						<polygon clip-path="url(#SVGID_2_)" fill="#42553C" points="68.487,69.385 67.994,69.876 15.301,39.575 15.301,38.923 						
							"/>
						<polygon clip-path="url(#SVGID_2_)" fill="#43553C" points="68.204,69.876 67.71,70.367 15.301,40.23 15.301,39.575 						"/>
						<polygon clip-path="url(#SVGID_2_)" fill="#44553C" points="67.921,70.367 67.427,70.855 15.301,40.883 15.301,40.23 						
							"/>
						<polygon clip-path="url(#SVGID_2_)" fill="#45543C" points="67.637,70.855 67.144,71.346 15.301,41.537 15.301,40.883 						
							"/>
						<polygon clip-path="url(#SVGID_2_)" fill="#46543C" points="67.354,71.368 67.682,71.553 66.926,71.553 15.301,42.192 
							15.301,41.537 						"/>
						<polygon clip-path="url(#SVGID_2_)" fill="#47543C" points="65.792,71.553 15.301,42.846 15.301,42.192 66.926,71.553 						
							"/>
						<polygon clip-path="url(#SVGID_2_)" fill="#48533C" points="64.66,71.553 15.301,43.5 15.301,42.846 65.792,71.553 						"/>
						<polygon clip-path="url(#SVGID_2_)" fill="#49533C" points="63.527,71.553 15.301,44.154 15.301,43.5 64.66,71.553 						"/>
						<polygon clip-path="url(#SVGID_2_)" fill="#4A533C" points="62.394,71.553 15.301,44.808 15.301,44.154 63.527,71.553 						
							"/>
						<polygon clip-path="url(#SVGID_2_)" fill="#4B523D" points="61.261,71.553 15.301,45.462 15.301,44.808 62.394,71.553 						
							"/>
						<polygon clip-path="url(#SVGID_2_)" fill="#4C523D" points="60.129,71.553 15.301,46.116 15.301,45.462 61.261,71.553 						
							"/>
						<polygon clip-path="url(#SVGID_2_)" fill="#4D523D" points="58.996,71.553 15.301,46.768 15.301,46.116 60.129,71.553 						
							"/>
						<polygon clip-path="url(#SVGID_2_)" fill="#4E513D" points="57.864,71.553 15.301,47.424 15.301,46.768 58.996,71.553 						
							"/>
						<polygon clip-path="url(#SVGID_2_)" fill="#4F513D" points="56.73,71.553 15.301,48.078 15.301,47.424 57.864,71.553 						
							"/>
						<polygon clip-path="url(#SVGID_2_)" fill="#50513D" points="55.598,71.553 15.301,48.732 15.301,48.078 56.73,71.553 						
							"/>
						<polygon clip-path="url(#SVGID_2_)" fill="#51513D" points="54.463,71.553 15.301,49.385 15.301,48.732 55.598,71.553 						
							"/>
						<polygon clip-path="url(#SVGID_2_)" fill="#52503D" points="53.333,71.553 15.301,50.04 15.301,49.385 54.463,71.553 						
							"/>
						<polygon clip-path="url(#SVGID_2_)" fill="#53503D" points="52.199,71.553 15.301,50.693 15.301,50.04 53.333,71.553 						
							"/>
						<polygon clip-path="url(#SVGID_2_)" fill="#54503E" points="51.065,71.553 15.301,51.348 15.301,50.693 52.199,71.553 						
							"/>
						<polygon clip-path="url(#SVGID_2_)" fill="#554F3E" points="49.934,71.553 15.301,52.002 15.301,51.348 51.065,71.553 						
							"/>
						<polygon clip-path="url(#SVGID_2_)" fill="#564F3E" points="48.802,71.553 15.301,52.657 15.301,52.002 49.934,71.553 						
							"/>
						<polygon clip-path="url(#SVGID_2_)" fill="#574F3E" points="47.667,71.553 15.301,53.309 15.301,52.657 48.802,71.553 						
							"/>
						<polygon clip-path="url(#SVGID_2_)" fill="#584E3E" points="46.536,71.553 15.301,53.963 15.301,53.309 47.667,71.553 						
							"/>
						<polygon clip-path="url(#SVGID_2_)" fill="#594E3E" points="45.402,71.553 15.301,54.618 15.301,53.963 46.536,71.553 						
							"/>
						<polygon clip-path="url(#SVGID_2_)" fill="#5A4E3E" points="44.27,71.553 15.301,55.271 15.301,54.618 45.402,71.553 						
							"/>
						<polygon clip-path="url(#SVGID_2_)" fill="#5B4E3E" points="43.137,71.553 15.301,55.927 15.301,55.271 44.27,71.553 						
							"/>
						<polygon clip-path="url(#SVGID_2_)" fill="#5C4D3F" points="42.004,71.553 15.301,56.579 15.301,55.927 43.137,71.553 						
							"/>
						<polygon clip-path="url(#SVGID_2_)" fill="#5D4D3F" points="40.872,71.553 15.301,57.233 15.301,56.579 42.004,71.553 						
							"/>
						<polygon clip-path="url(#SVGID_2_)" fill="#5E4D3F" points="39.738,71.553 15.301,57.888 15.301,57.233 40.872,71.553 						
							"/>
						<polygon clip-path="url(#SVGID_2_)" fill="#5F4C3F" points="38.606,71.553 15.301,58.543 15.301,57.888 39.738,71.553 						
							"/>
						<polygon clip-path="url(#SVGID_2_)" fill="#604C3F" points="37.474,71.553 15.301,59.195 15.301,58.543 38.606,71.553 						
							"/>
						<polygon clip-path="url(#SVGID_2_)" fill="#604C3F" points="15.301,59.195 37.474,71.553 15.301,71.553 						"/>
					</g>
				</g>
			</g>
			<g>
				<path fill="#006934" d="M58.804,42.739l-12.741-1.148L44.915,28.85l10.617-10.617l14.793-0.906l-0.904,14.795L58.804,42.739z
					 M49.157,38.497l8.385,0.756l8.605-8.606l0.596-9.734l-9.734,0.596l-8.606,8.604L49.157,38.497z"/>
			</g>
		</g>
	</g>
</g>
</svg>
