<?xml version="1.0" encoding="utf-8"?>
<!-- Generator: Adobe Illustrator 16.0.0, SVG Export Plug-In . SVG Version: 6.00 Build 0)  -->
<!DOCTYPE svg PUBLIC "-//W3C//DTD SVG 1.1//EN" "http://www.w3.org/Graphics/SVG/1.1/DTD/svg11.dtd">
<svg version="1.1"
	 id="svg2" xmlns:svg="http://www.w3.org/2000/svg" xmlns:cc="http://creativecommons.org/ns#" xmlns:rdf="http://www.w3.org/1999/02/22-rdf-syntax-ns#" xmlns:dc="http://purl.org/dc/elements/1.1/"
	 xmlns="http://www.w3.org/2000/svg" xmlns:xlink="http://www.w3.org/1999/xlink" x="0px" y="0px" width="557.602px"
	 height="80.107px" viewBox="0 0 557.602 80.107" enable-background="new 0 0 557.602 80.107" xml:space="preserve">
<g>
	<g>
		<path fill="#FFFFFF" stroke="#FFFFFF" stroke-width="0.8701" stroke-miterlimit="10" d="M274.27,48.998
			c0,1.785,0.268,3.383,0.799,4.791c0.537,1.409,1.27,2.603,2.206,3.582c0.935,0.977,2.043,1.725,3.323,2.241
			c1.283,0.511,2.67,0.771,4.161,0.771c0.886,0,1.743-0.174,2.566-0.519c0.827-0.345,1.594-0.795,2.307-1.346
			c0.712-0.558,1.347-1.181,1.906-1.879c0.557-0.699,1.019-1.407,1.382-2.121l1.785,1.147c-0.521,0.848-1.139,1.669-1.85,2.458
			c-0.711,0.79-1.533,1.486-2.467,2.084c-0.936,0.604-1.992,1.087-3.171,1.447c-1.18,0.369-2.499,0.55-3.95,0.55
			c-1.398,0-2.715-0.162-3.955-0.482c-1.235-0.32-2.374-0.771-3.414-1.352c-1.04-0.574-1.969-1.27-2.786-2.086
			c-0.824-0.813-1.514-1.709-2.079-2.687c-0.565-0.978-0.997-2.022-1.303-3.143c-0.302-1.117-0.452-2.271-0.452-3.461
			c0-1.189,0.153-2.347,0.464-3.468c0.306-1.125,0.75-2.183,1.33-3.174c0.575-0.99,1.281-1.898,2.119-2.727
			c0.839-0.823,1.785-1.53,2.833-2.12c1.049-0.589,2.202-1.047,3.452-1.375c1.252-0.33,2.588-0.492,4.008-0.492
			c1.348,0,2.588,0.181,3.722,0.545c1.139,0.363,2.175,0.848,3.116,1.448c0.938,0.603,1.774,1.297,2.504,2.088
			c0.729,0.789,1.354,1.609,1.878,2.459l-1.841,1.24c-1.067-2.056-2.26-3.561-3.57-4.519c-1.313-0.961-2.814-1.441-4.516-1.441
			c-1.469,0-2.84,0.268-4.117,0.801c-1.273,0.533-2.384,1.301-3.331,2.296c-0.949,0.997-1.697,2.207-2.243,3.626
			C274.543,45.611,274.27,47.214,274.27,48.998z"/>
		<path fill="#FFFFFF" stroke="#FFFFFF" stroke-width="0.8701" stroke-miterlimit="10" d="M302.955,42.039v13.914
			c0,0.491,0.113,0.95,0.338,1.379c0.225,0.432,0.53,0.805,0.92,1.121c0.389,0.315,0.846,0.569,1.365,0.756
			c0.521,0.188,1.082,0.283,1.677,0.283c0.388,0,0.804-0.082,1.238-0.244c0.437-0.167,0.866-0.395,1.284-0.685
			c0.416-0.293,0.813-0.629,1.182-1.014c0.372-0.383,0.68-0.79,0.921-1.229V42.039h3.881v19.565h-3.881v-3.662
			c-0.34,0.558-0.769,1.089-1.282,1.588c-0.517,0.498-1.076,0.93-1.676,1.303c-0.604,0.369-1.222,0.661-1.859,0.871
			c-0.637,0.213-1.238,0.322-1.813,0.322c-0.847,0-1.648-0.163-2.4-0.483c-0.754-0.321-1.412-0.758-1.968-1.305
			c-0.559-0.546-0.998-1.188-1.323-1.92c-0.318-0.737-0.482-1.524-0.482-2.365V42.039H302.955z"/>
		<path fill="#FFFFFF" stroke="#FFFFFF" stroke-width="0.8701" stroke-miterlimit="10" d="M324.374,61.604h-3.878V33.127
			l2.768-1.107h1.11V61.604z"/>
		<path fill="#FFFFFF" stroke="#FFFFFF" stroke-width="0.8701" stroke-miterlimit="10" d="M339.529,59.109
			c-0.522,0.898-1.213,1.607-2.079,2.132c-0.859,0.521-1.925,0.785-3.185,0.785c-0.656,0-1.227-0.109-1.705-0.33
			c-0.479-0.222-0.875-0.527-1.192-0.931c-0.317-0.4-0.55-0.882-0.7-1.438c-0.152-0.56-0.229-1.177-0.229-1.857v-13.79h-3.389
			v-0.968c1.094,0,1.99-0.198,2.697-0.592c0.703-0.396,1.279-0.93,1.729-1.604c0.45-0.672,0.803-1.453,1.06-2.339
			c0.254-0.888,0.477-1.831,0.673-2.827h1.107v6.688h4.393v1.642h-4.393v13.79c0,0.293,0.057,0.565,0.166,0.816
			c0.107,0.257,0.257,0.481,0.445,0.668c0.189,0.188,0.414,0.334,0.674,0.445c0.26,0.109,0.536,0.164,0.828,0.164
			c0.438,0,0.836-0.105,1.192-0.316c0.36-0.217,0.672-0.479,0.938-0.795L339.529,59.109z"/>
		<path fill="#FFFFFF" stroke="#FFFFFF" stroke-width="0.8701" stroke-miterlimit="10" d="M345.757,42.039v13.914
			c0,0.491,0.114,0.95,0.336,1.379c0.228,0.432,0.532,0.805,0.921,1.121c0.389,0.315,0.846,0.569,1.365,0.756
			c0.521,0.188,1.084,0.283,1.678,0.283c0.389,0,0.803-0.082,1.239-0.244c0.435-0.167,0.866-0.395,1.283-0.685
			c0.418-0.293,0.813-0.629,1.183-1.014c0.372-0.383,0.68-0.79,0.924-1.229V42.039h3.877v19.565h-3.877v-3.662
			c-0.342,0.558-0.771,1.089-1.287,1.588c-0.516,0.498-1.076,0.93-1.676,1.303c-0.601,0.369-1.221,0.661-1.857,0.871
			c-0.635,0.213-1.241,0.322-1.813,0.322c-0.85,0-1.648-0.163-2.404-0.483c-0.752-0.321-1.407-0.758-1.965-1.305
			c-0.56-0.546-0.998-1.188-1.322-1.92c-0.32-0.737-0.482-1.524-0.482-2.365V42.039H345.757z"/>
		<path fill="#FFFFFF" stroke="#FFFFFF" stroke-width="0.8701" stroke-miterlimit="10" d="M363.114,42.039h3.86v3.699
			c0.377-0.549,0.781-1.071,1.222-1.57c0.438-0.495,0.895-0.935,1.366-1.309c0.474-0.379,0.961-0.676,1.467-0.895
			c0.503-0.219,1.018-0.327,1.537-0.327c0.425,0,0.819,0.062,1.183,0.19c0.368,0.126,0.687,0.297,0.96,0.51
			c0.271,0.215,0.488,0.461,0.646,0.745c0.158,0.288,0.235,0.589,0.235,0.903c0,0.633-0.198,1.111-0.593,1.432
			c-0.395,0.322-0.941,0.484-1.646,0.484c-0.438,0-0.787-0.048-1.05-0.139c-0.26-0.092-0.497-0.194-0.709-0.311
			c-0.213-0.114-0.428-0.218-0.646-0.309c-0.221-0.091-0.493-0.138-0.817-0.138c-0.26,0-0.515,0.075-0.776,0.229
			c-0.26,0.153-0.523,0.364-0.781,0.637c-0.26,0.274-0.525,0.597-0.795,0.968c-0.267,0.369-0.531,0.772-0.801,1.208v13.556h-3.861
			L363.114,42.039L363.114,42.039z"/>
		<path fill="#FFFFFF" stroke="#FFFFFF" stroke-width="0.8701" stroke-miterlimit="10" d="M392.491,61.604h-3.896v-2.678
			c-0.459,0.354-0.913,0.713-1.358,1.071c-0.442,0.366-0.92,0.699-1.438,1.008c-0.513,0.302-1.085,0.544-1.711,0.736
			c-0.624,0.188-1.351,0.283-2.177,0.283c-0.764,0-1.456-0.124-2.075-0.373c-0.618-0.25-1.147-0.595-1.584-1.031
			c-0.438-0.44-0.771-0.953-1.001-1.547c-0.23-0.6-0.348-1.241-0.348-1.933c0-0.838,0.164-1.596,0.5-2.27
			c0.332-0.677,0.791-1.28,1.365-1.813c0.577-0.535,1.25-1.01,2.021-1.423c0.773-0.412,1.589-0.78,2.45-1.109
			c0.862-0.327,1.754-0.619,2.668-0.874c0.917-0.254,1.813-0.493,2.688-0.711v-1.219c0-0.888-0.088-1.64-0.264-2.254
			c-0.177-0.609-0.429-1.105-0.754-1.483c-0.33-0.375-0.729-0.646-1.194-0.813c-0.468-0.162-0.992-0.243-1.578-0.243
			c-0.654,0-1.187,0.086-1.602,0.253c-0.411,0.171-0.737,0.394-0.975,0.678c-0.235,0.277-0.397,0.598-0.479,0.953
			c-0.088,0.358-0.131,0.725-0.131,1.088c0,0.34-0.027,0.666-0.082,0.983c-0.054,0.314-0.153,0.591-0.3,0.827
			c-0.146,0.234-0.342,0.43-0.592,0.575c-0.25,0.144-0.567,0.215-0.955,0.215c-0.307,0-0.582-0.055-0.83-0.174
			c-0.248-0.114-0.465-0.271-0.646-0.479c-0.186-0.209-0.32-0.448-0.419-0.729c-0.096-0.281-0.147-0.582-0.147-0.913
			c0-0.642,0.211-1.246,0.64-1.803c0.426-0.561,0.993-1.042,1.709-1.447c0.718-0.406,1.558-0.729,2.519-0.968
			c0.957-0.237,1.967-0.354,3.022-0.354c1.287,0,2.372,0.124,3.259,0.372c0.885,0.249,1.602,0.599,2.15,1.049
			c0.545,0.449,0.939,0.996,1.184,1.64c0.244,0.645,0.361,1.356,0.361,2.133L392.491,61.604L392.491,61.604z M388.596,50.201
			c-0.561,0.182-1.138,0.388-1.74,0.618c-0.599,0.232-1.188,0.488-1.765,0.775c-0.579,0.284-1.127,0.595-1.647,0.931
			c-0.523,0.329-0.98,0.688-1.375,1.063c-0.395,0.376-0.709,0.778-0.938,1.203c-0.231,0.426-0.347,0.866-0.347,1.331
			c0,0.475,0.087,0.925,0.265,1.356c0.175,0.431,0.411,0.808,0.703,1.131c0.288,0.322,0.625,0.574,1.011,0.761
			c0.379,0.193,0.776,0.283,1.191,0.283c0.438,0,0.854-0.057,1.248-0.174c0.392-0.114,0.777-0.268,1.146-0.462
			c0.371-0.193,0.739-0.423,1.11-0.682c0.369-0.263,0.748-0.542,1.138-0.834V50.201z"/>
		<path fill="#FFFFFF" stroke="#FFFFFF" stroke-width="0.8701" stroke-miterlimit="10" d="M401.746,61.604h-3.88V33.127l2.768-1.107
			h1.112V61.604z"/>
		<path fill="#FFFFFF" stroke="#FFFFFF" stroke-width="0.8701" stroke-miterlimit="10" d="M418.321,36.226h4.262v23.738h12.768v1.64
			h-17.028L418.321,36.226L418.321,36.226z"/>
		<path fill="#FFFFFF" stroke="#FFFFFF" stroke-width="0.8701" stroke-miterlimit="10" d="M452.396,61.604h-3.897v-2.678
			c-0.459,0.354-0.914,0.713-1.357,1.071c-0.442,0.366-0.92,0.699-1.437,1.008c-0.516,0.302-1.089,0.544-1.714,0.736
			c-0.625,0.188-1.352,0.283-2.179,0.283c-0.763,0-1.454-0.124-2.071-0.373c-0.622-0.25-1.151-0.595-1.588-1.031
			c-0.436-0.44-0.771-0.953-1.001-1.547c-0.23-0.6-0.345-1.241-0.345-1.933c0-0.838,0.162-1.596,0.498-2.27
			c0.336-0.677,0.791-1.28,1.364-1.813c0.579-0.535,1.251-1.01,2.024-1.423c0.771-0.412,1.586-0.78,2.45-1.109
			c0.861-0.327,1.75-0.619,2.667-0.874c0.916-0.254,1.813-0.493,2.687-0.711v-1.219c0-0.888-0.088-1.64-0.264-2.254
			c-0.175-0.609-0.429-1.105-0.754-1.483c-0.33-0.375-0.729-0.646-1.194-0.813c-0.468-0.162-0.992-0.243-1.578-0.243
			c-0.652,0-1.187,0.086-1.603,0.253c-0.41,0.171-0.736,0.394-0.976,0.678c-0.234,0.277-0.396,0.598-0.477,0.953
			c-0.092,0.358-0.135,0.725-0.135,1.088c0,0.34-0.022,0.666-0.079,0.983c-0.053,0.314-0.154,0.591-0.302,0.827
			c-0.146,0.234-0.342,0.43-0.591,0.575c-0.249,0.144-0.568,0.215-0.957,0.215c-0.303,0-0.581-0.055-0.829-0.174
			c-0.249-0.114-0.46-0.271-0.646-0.479c-0.186-0.209-0.321-0.448-0.42-0.729c-0.096-0.281-0.146-0.582-0.146-0.913
			c0-0.642,0.214-1.246,0.638-1.803c0.425-0.561,0.994-1.042,1.714-1.447c0.716-0.406,1.555-0.729,2.515-0.968
			c0.958-0.237,1.967-0.354,3.022-0.354c1.286,0,2.371,0.124,3.257,0.372c0.888,0.249,1.605,0.599,2.151,1.049
			c0.547,0.449,0.942,0.996,1.183,1.64c0.245,0.645,0.364,1.356,0.364,2.133v14.774H452.396z M448.499,50.201
			c-0.559,0.182-1.138,0.388-1.741,0.618c-0.598,0.232-1.188,0.488-1.762,0.775c-0.58,0.284-1.128,0.595-1.649,0.931
			c-0.522,0.329-0.98,0.688-1.374,1.063c-0.394,0.376-0.71,0.778-0.938,1.203c-0.232,0.426-0.345,0.866-0.345,1.331
			c0,0.475,0.087,0.925,0.262,1.356c0.175,0.431,0.412,0.808,0.705,1.131c0.288,0.322,0.622,0.574,1.007,0.761
			c0.38,0.193,0.781,0.283,1.192,0.283c0.438,0,0.854-0.057,1.247-0.174c0.395-0.114,0.778-0.268,1.149-0.462
			c0.369-0.193,0.739-0.423,1.109-0.682c0.369-0.263,0.747-0.542,1.138-0.834V50.201L448.499,50.201z"/>
		<path fill="#FFFFFF" stroke="#FFFFFF" stroke-width="0.8701" stroke-miterlimit="10" d="M461.468,42.039v13.914
			c0,0.491,0.114,0.95,0.337,1.379c0.228,0.432,0.53,0.805,0.92,1.121c0.39,0.315,0.846,0.569,1.365,0.756
			c0.525,0.188,1.084,0.283,1.678,0.283c0.389,0,0.802-0.082,1.238-0.244c0.437-0.167,0.864-0.395,1.28-0.685
			c0.422-0.293,0.814-0.629,1.187-1.014c0.371-0.383,0.679-0.79,0.922-1.229V42.039h3.879v19.565h-3.879v-3.662
			c-0.341,0.558-0.77,1.089-1.285,1.588c-0.518,0.498-1.076,0.93-1.675,1.303c-0.601,0.369-1.223,0.661-1.857,0.871
			c-0.637,0.213-1.24,0.322-1.813,0.322c-0.85,0-1.65-0.163-2.402-0.483c-0.753-0.321-1.411-0.758-1.97-1.305
			c-0.557-0.546-0.997-1.188-1.32-1.92c-0.32-0.737-0.483-1.524-0.483-2.365V42.039H461.468z"/>
		<path fill="#FFFFFF" stroke="#FFFFFF" stroke-width="0.8701" stroke-miterlimit="10" d="M478.824,42.039h3.88v3.572
			c1.179-1.326,2.404-2.32,3.682-2.982c1.273-0.66,2.573-0.99,3.896-0.99c0.682,0,1.321,0.151,1.924,0.465
			c0.602,0.309,1.121,0.731,1.563,1.265c0.443,0.537,0.796,1.164,1.058,1.89c0.262,0.722,0.391,1.49,0.391,2.303v14.046h-3.897
			V48.216c0-1.285-0.289-2.263-0.873-2.932s-1.33-1.006-2.24-1.006c-0.414,0-0.851,0.068-1.311,0.202
			c-0.463,0.135-0.928,0.327-1.405,0.576c-0.472,0.249-0.942,0.546-1.417,0.892c-0.475,0.345-0.93,0.732-1.368,1.156v14.501h-3.88
			V42.039H478.824z"/>
		<path fill="#FFFFFF" stroke="#FFFFFF" stroke-width="0.8701" stroke-miterlimit="10" d="M507.986,62.026
			c-1.274,0-2.476-0.256-3.602-0.758c-1.123-0.503-2.098-1.193-2.93-2.07c-0.832-0.871-1.489-1.901-1.969-3.075
			c-0.479-1.178-0.718-2.436-0.718-3.772c0-1.483,0.264-2.872,0.792-4.17c0.527-1.3,1.252-2.438,2.175-3.407
			c0.926-0.975,2.001-1.738,3.228-2.297c1.225-0.562,2.541-0.838,3.95-0.838c1.095,0,2.101,0.116,3.022,0.354
			c0.924,0.239,1.716,0.565,2.385,0.982c0.67,0.421,1.191,0.916,1.564,1.484c0.377,0.574,0.566,1.186,0.566,1.843
			c0,0.29-0.073,0.568-0.229,0.828c-0.152,0.263-0.351,0.488-0.59,0.686c-0.244,0.192-0.519,0.35-0.831,0.465
			c-0.307,0.114-0.618,0.172-0.936,0.172c-0.354,0-0.668-0.063-0.949-0.19c-0.279-0.128-0.521-0.292-0.718-0.493
			c-0.199-0.198-0.353-0.427-0.455-0.682c-0.105-0.256-0.156-0.518-0.156-0.784c0-0.449-0.049-0.871-0.146-1.266
			c-0.099-0.395-0.27-0.734-0.509-1.021c-0.243-0.283-0.578-0.513-1.003-0.675c-0.428-0.165-0.966-0.246-1.62-0.246
			c-0.887,0-1.684,0.182-2.389,0.535c-0.704,0.36-1.298,0.845-1.784,1.454c-0.486,0.604-0.855,1.317-1.109,2.14
			c-0.257,0.816-0.384,1.688-0.384,2.612c0,1.25,0.166,2.435,0.489,3.551c0.33,1.117,0.792,2.096,1.389,2.934
			c0.595,0.837,1.31,1.506,2.148,1.998c0.837,0.487,1.771,0.737,2.805,0.737c0.91,0,1.697-0.146,2.368-0.433
			c0.665-0.282,1.245-0.67,1.736-1.153c0.493-0.485,0.914-1.051,1.268-1.693c0.353-0.646,0.669-1.324,0.945-2.044l1.167,0.475
			c-0.328,1.229-0.771,2.327-1.328,3.297c-0.559,0.973-1.219,1.791-1.978,2.462c-0.76,0.667-1.614,1.18-2.567,1.528
			C510.137,61.847,509.104,62.026,507.986,62.026z"/>
		<path fill="#FFFFFF" stroke="#FFFFFF" stroke-width="0.8701" stroke-miterlimit="10" d="M524.486,45.611
			c1.181-1.326,2.404-2.32,3.678-2.982c1.273-0.66,2.575-0.99,3.9-0.99c0.68,0,1.319,0.151,1.92,0.465
			c0.601,0.309,1.125,0.731,1.566,1.265c0.442,0.537,0.792,1.164,1.049,1.89c0.255,0.722,0.381,1.49,0.381,2.303v14.046h-3.88
			V48.216c0-1.285-0.293-2.263-0.876-2.932c-0.58-0.669-1.335-1.006-2.256-1.006c-0.414,0-0.853,0.068-1.313,0.202
			c-0.457,0.135-0.929,0.327-1.401,0.576c-0.471,0.249-0.943,0.546-1.412,0.892c-0.466,0.345-0.921,0.732-1.354,1.156v14.501h-3.879
			V33.127l2.77-1.107h1.109L524.486,45.611L524.486,45.611z"/>
	</g>
	<g>
		<path fill="#FFFFFF" d="M109.826,35.764l-0.055,1.207v0.109c0,0.712,0.383,0.934,2.028,0.934c2.14,0,3.183-0.329,3.896-0.658
			c0.109-0.055,0.274-0.11,0.383-0.11c0.66,0,2.085,1.481,2.085,1.92c0,0.165,0,1.042-6.199,1.042c-2.578,0-4.937-0.055-4.937-2.797
			v-1.479l-3.071,0.219c-3.402,4.882-9.983,6.309-11.301,6.309c-0.548,0-0.877-0.165-0.877-0.438c0-0.329,0.549-0.823,1.646-1.207
			c2.797-1.042,5.212-2.305,6.967-4.444l-3.896,0.22c-0.438,0-0.767,0.056-1.042,0.056c-1.424,0-2.083-1.098-2.357-1.755
			c-0.109-0.165-0.109-0.329-0.109-0.439c0-0.273,0.164-0.384,0.493-0.384c0.109,0,0.218,0.055,0.383,0.055
			c0.604,0.109,1.207,0.164,1.756,0.164h0.548l7.845-0.494l-0.055-2.139l-3.071,0.219c-0.549,0.056-0.988,0.056-1.372,0.056
			c-0.549,0-0.932-0.056-1.316-0.274c-0.549-0.384-0.988-1.042-1.207-1.48c-0.056-0.166-0.109-0.274-0.109-0.384
			c0-0.219,0.109-0.329,0.384-0.329c0.109,0,0.274,0,0.438,0.055c0.605,0.165,1.153,0.22,1.864,0.22h0.66l3.676-0.22v-0.769
			c0-0.823-0.165-1.315-0.55-2.139c-0.053-0.165-0.109-0.275-0.109-0.384c0-0.275,0.221-0.386,0.659-0.386
			c0.164,0,3.016,0,3.016,1.812v1.645l2.523-0.165c0.605-0.055,1.262-0.165,1.976-0.384c0.274-0.109,0.494-0.165,0.768-0.165
			c0.438,0,2.413,0.988,2.413,1.866c0,0.384-0.548,0.548-1.316,0.603l-6.418,0.439v2.139l5.707-0.329
			c0.711-0.055,1.262-0.109,1.918-0.328c0.22-0.056,0.495-0.11,0.714-0.11c1.262,0,2.469,1.315,2.469,1.865
			c0,0.384-0.495,0.604-1.316,0.658L109.826,35.764z M121.784,23.697c-1.976,3.895-2.523,5.046-3.347,5.046
			c-0.33,0-0.493-0.329-0.493-0.878c0-0.384,0-0.438,1.042-4.004l-8.011,0.438l0.44,2.469c0,0.165,0.055,0.329,0.055,0.438
			c0,0.549-0.219,0.877-0.877,0.877c-0.274,0-2.688-0.054-2.688-1.974c0-0.549,0-1.098-0.054-1.646l-10.203,0.604
			c-0.493,0.056-0.934,0.056-1.262,0.056c-0.988,0-1.481-0.109-1.864-0.494c-0.988-0.877-1.372-1.864-1.372-2.084
			c0-0.165,0.109-0.273,0.33-0.273c0.109,0,0.218,0,0.383,0.054c0.604,0.165,1.097,0.22,1.7,0.22c0.275,0,0.604-0.055,0.932-0.055
			l10.861-0.658l-0.273-1.591c-0.166-0.769-0.549-1.372-1.208-1.919c-0.219-0.166-0.328-0.33-0.328-0.549
			c0-0.22,0.328-0.439,1.152-0.439c0.932,0,3.127,0,3.401,1.59l0.438,2.743l9.105-0.549l0.439-2.357
			c0-0.221,0.056-0.438,0.056-0.658c0-0.384-0.056-0.823-0.275-1.317c-0.054-0.108-0.054-0.219-0.054-0.329
			c0-0.22,0.109-0.33,0.385-0.33c0.383,0,0.987,0.164,1.81,0.494c1.262,0.493,1.811,1.152,1.811,1.865
			c0,0.438-0.386,1.426-0.823,2.414l7.624-0.439c1.152-0.055,1.92-0.165,2.743-0.438c0.329-0.11,0.603-0.165,0.822-0.165
			c0.824,0,2.578,1.371,2.578,2.358c0,0.438-0.492,0.604-1.151,0.657L121.784,23.697z M111.963,57.324
			c-1.755,1.755-3.345,3.454-5.047,4.826c5.102-0.165,10.862-0.549,16.403-1.098c-2.797-1.427-3.071-1.534-3.071-1.975
			c0-0.549,0.657-1.755,1.425-1.755c0.604,0,5.595,2.357,10.478,5.374c0.603,0.386,0.876,0.66,0.876,1.153
			c0,0.219-0.384,2.248-1.481,2.248c-0.328,0-0.658-0.164-0.986-0.384c-1.262-0.878-2.523-1.755-3.841-2.522
			c-10.146,1.098-18.486,1.646-25.452,1.92c-0.549,0-1.042,0.054-1.425,0.054c-1.426,0-2.853-1.7-2.853-2.798
			c0-0.219,0.165-0.384,0.438-0.384c0.11,0,0.22,0,0.384,0.057c0.877,0.273,1.645,0.273,2.359,0.273h0.659
			c0.711,0,1.425,0,2.138-0.056c1.92-1.591,3.456-3.292,4.828-4.771l-10.972,0.384H96.22c-2.413,0-2.962-2.141-2.962-2.522
			c0-0.221,0.056-0.273,0.275-0.273c0.109,0,0.274,0,0.439,0.054c0.658,0.164,1.7,0.275,2.467,0.275l35.712-1.207
			c0.711,0,1.425-0.11,2.028-0.33c0.275-0.108,0.44-0.164,0.659-0.164c1.208,0,2.469,1.812,2.469,2.139
			c0,0.44-0.55,0.604-1.372,0.658L111.963,57.324z M106.917,44.214v2.522c2.36-0.329,4.828-0.713,7.406-1.206
			c0.439-0.056,0.823-0.11,1.153-0.11c0.712,0,1.097,0.165,1.097,0.439c0,0.328-0.548,0.768-1.699,1.041
			c-11.082,3.018-17.719,4.005-18.323,4.005c-1.536,0-2.797-2.304-2.797-2.688c0-0.273,0.22-0.385,0.548-0.385h0.275
			c0.548,0.057,1.042,0.11,1.536,0.11c0.549,0,1.042-0.055,1.481-0.055c1.92-0.11,4.114-0.439,6.527-0.769l-0.055-2.743l-3.18,0.164
			c-0.386,0-0.824,0.056-1.207,0.056c-0.605,0-1.208-0.109-1.645-0.549c-0.495-0.604-0.824-1.15-0.824-1.7
			c0-0.274,0.11-0.329,0.33-0.329c0.055,0,0.218,0.055,0.329,0.055c0.604,0.11,1.371,0.22,2.139,0.22h0.493l3.512-0.22v-0.714
			c0-0.548-0.055-1.316-0.439-1.976c-0.109-0.163-0.164-0.329-0.164-0.438c0-0.219,0.219-0.383,0.711-0.383
			c0.219,0,2.853,0.055,2.853,1.755v1.591l2.14-0.109c0.659-0.055,1.371-0.109,2.139-0.385c0.165-0.056,0.33-0.109,0.493-0.109
			c0.877,0,2.304,1.152,2.304,1.865c0,0.439-0.439,0.658-1.097,0.713L106.917,44.214z M107.521,52.716
			c-0.605,0-1.098,0.056-1.537,0.056c-1.755,0-2.577-1.976-2.577-2.468c0-0.222,0.109-0.275,0.383-0.275c0.11,0,0.274,0,0.439,0.055
			c0.714,0.165,1.316,0.222,1.976,0.222h0.603l15.25-0.604c0.769-0.054,1.371-0.164,1.864-0.329c0.33-0.109,0.66-0.219,0.879-0.219
			c0.769,0,2.468,1.425,2.468,2.085c0,0.438-0.549,0.604-1.371,0.656L107.521,52.716z M139.501,42.458
			c0,5.485-0.713,6.253-5.486,6.253c-2.194,0-4.936-0.164-4.936-3.783c0-0.221,0-0.494,0.055-0.77l0.985-10.588l-3.784,0.329
			c-0.219,2.14-0.658,4.114-1.207,5.705c0.988,0.713,1.865,1.427,2.632,2.141c0.495,0.492,0.714,0.822,0.714,1.207
			c0,0.658-0.933,1.699-1.481,1.699c-0.329,0-0.658-0.219-1.042-0.604c-0.604-0.658-1.316-1.262-2.03-1.921
			c-2.303,4.17-6.528,7.022-7.678,7.022c-0.275,0-0.44-0.109-0.44-0.329c0-0.33,0.33-0.878,1.098-1.591
			c2.085-2.029,3.784-4.226,4.937-6.858c-0.934-0.713-1.921-1.48-2.962-2.193c-0.439-0.329-0.658-0.604-0.658-0.933
			c0-0.494,0.658-1.372,1.207-1.372c0.604,0,3.236,1.919,3.347,1.976c0.274-1.098,0.493-2.414,0.657-3.676l-2.03,0.164
			c-0.548,0.056-1.041,0.11-1.481,0.11c-0.438,0-1.645-0.055-2.632-1.92c-0.109-0.219-0.165-0.384-0.165-0.494
			c0-0.219,0.165-0.328,0.438-0.328h0.33c0.767,0.109,1.372,0.164,2.029,0.164c0.331,0,0.714,0,1.098-0.055l2.633-0.219
			c0.054-0.494,0.054-1.042,0.054-1.536c0-1.042-0.054-3.183-0.657-4.169c-0.11-0.164-0.165-0.274-0.165-0.385
			c0-0.273,0.274-0.383,0.658-0.383c0.383,0,0.987,0.109,1.645,0.328c1.316,0.439,1.426,0.878,1.426,1.591v1.316
			c0,1.042,0,2.03-0.053,2.963l4.332-0.384c0.165-0.056,0.33-0.056,0.493-0.056c0.385,0,2.141,0.549,2.141,1.757
			c0,0.492-0.386,0.986-0.439,1.48l-0.988,9.765c-0.055,0.33-0.055,0.604-0.055,0.823c0,0.878,0.384,1.316,2.249,1.316
			c2.358,0,2.632-0.22,3.401-5.433c0.219-1.48,0.66-2.194,1.042-2.194c0.439,0,0.769,0.713,0.769,2.25L139.501,42.458
			L139.501,42.458z"/>
		<path fill="#FFFFFF" d="M151.349,53.594l0.056,3.07v0.221c0,0.821-0.275,1.151-0.823,1.151c0,0-2.688-0.274-2.688-2.029
			c0-0.166,0-0.328,0.056-0.493c0.218-1.1,0.274-2.029,0.274-3.02l-0.548-26.001c0-1.043-0.331-2.084-0.604-2.743
			c-0.109-0.329-0.22-0.548-0.22-0.768s0.11-0.33,0.439-0.33c0.549,0,1.591,0.33,3.511,0.988l7.899-0.604h0.604
			c1.536,0,2.357,1.151,2.357,1.811c0,0.493-0.219,0.878-0.274,1.262l-0.877,24.246c1.097,1.208,1.482,1.921,1.482,2.304
			c0,0.549-0.714,0.549-1.537,0.604L151.349,53.594z M157.933,25.945l-7.077,0.549l0.165,10.093l6.693-0.33L157.933,25.945z
			 M157.658,39.001l-6.583,0.33l0.221,11.355l6.088-0.22L157.658,39.001z M166.106,38.344c-0.384,0-0.714,0.054-1.042,0.054
			c-1.098,0-2.688-0.164-3.566-2.961c-0.056-0.11-0.056-0.221-0.056-0.274c0-0.165,0.11-0.273,0.276-0.273
			c0.053,0,0.164,0,0.274,0.054c0.711,0.22,1.536,0.384,2.578,0.384h0.493l11.793-0.658v-6.144l-6.583,0.384
			c-0.548,0.054-0.988,0.054-1.425,0.054c-0.77,0-1.372-0.108-1.7-0.438c-0.988-0.987-1.372-2.469-1.372-2.633
			s0.056-0.274,0.219-0.274c0.056,0,0.165,0,0.275,0.055c0.657,0.22,1.699,0.384,2.632,0.384h0.439l7.569-0.438v-5.979
			c0-0.988-0.164-1.701-0.548-2.359c-0.219-0.384-0.328-0.658-0.328-0.822c0-0.273,0.162-0.384,0.493-0.384
			c0.383,0,1.042,0.164,1.864,0.439c1.537,0.493,1.865,0.713,1.865,1.48v7.406l5.103-0.33c1.097-0.054,1.864-0.219,2.578-0.493
			c0.164-0.055,0.274-0.109,0.438-0.109c0.548,0,2.908,1.7,2.908,2.578c0,0.439-0.604,0.604-1.372,0.658l-9.708,0.604v6.198
			l10.313-0.604c1.041-0.055,1.918-0.22,2.578-0.494c0.164-0.054,0.274-0.109,0.438-0.109c1.043,0,3.017,2.14,3.017,2.634
			c0,0.438-0.548,0.657-1.425,0.712L166.106,38.344z M182.233,46.736l-14.537,0.713c-0.548,0-0.988,0.055-1.425,0.055
			c-1.372,0-2.306-0.272-3.128-2.853c-0.053-0.109-0.053-0.219-0.053-0.273c0-0.164,0.053-0.22,0.219-0.22
			c0.109,0,0.219,0,0.383,0.056c0.66,0.164,1.481,0.273,2.36,0.273h0.548l15.634-0.768v-1.372c0-1.207-0.275-2.141-0.823-2.964
			c-0.22-0.329-0.329-0.604-0.329-0.768c0-0.22,0.164-0.33,0.493-0.33c0.438,0,4.003,0.713,4.003,2.304v3.02l4.005-0.221
			c0.712-0.056,1.262-0.22,1.974-0.549c0.11-0.055,0.221-0.055,0.384-0.055c0.658,0,3.236,1.48,3.236,2.578
			c0,0.494-0.548,0.768-1.316,0.822l-8.228,0.384l0.109,15.688c0,0.604,0.054,1.206,0.054,1.701c0,1.811-1.426,2.852-2.523,2.852
			c-1.371,0-9.38-4.553-9.38-6.034c0-0.273,0.165-0.383,0.548-0.383c0.331,0,0.879,0.108,1.538,0.383
			c1.864,0.714,4.333,1.372,6.362,1.757L182.233,46.736z M175.869,57.378c-0.383,0-0.712-0.219-0.986-0.603
			c-1.371-1.812-3.401-4.28-4.991-5.705c-0.274-0.274-0.44-0.495-0.44-0.768c0-0.604,1.042-1.701,1.756-1.701
			c1.097,0,6.637,6.034,6.637,6.803c0,0.327-0.219,0.713-0.823,1.316C176.583,57.159,176.197,57.378,175.869,57.378z"/>
		<path fill="#FFFFFF" d="M210.263,35.709c-5.21,6.418-10.368,10.26-11.136,10.26c-0.274,0-0.383-0.109-0.383-0.385
			c0-0.274,0.219-0.714,0.712-1.263c6.858-7.296,11.631-14.098,15.415-23.149c0.219-0.493,0.33-1.042,0.33-1.646
			c0-0.274,0-0.493-0.056-0.769v-0.22c0-0.384,0.109-0.604,0.493-0.604c1.043,0,3.676,1.811,3.676,2.633
			c0,0.548-2.304,5.541-5.815,10.696l0.055,32.969c0,0.823-0.383,1.15-0.934,1.15c-0.931,0-2.961-0.985-2.961-2.413
			c0-0.164,0-0.327,0.056-0.549c0.273-1.207,0.329-2.303,0.329-3.346L210.263,35.709z M249.977,52.607
			c-0.165,2.576-0.602,5.758-1.205,8.831c-0.605,3.127-1.481,4.223-2.8,4.223c-0.657,0-3.894-0.987-6.855-3.949
			c-8.063-7.952-10.203-18.156-11.41-23.973l-7.954,1.262c-0.384,0.055-0.714,0.109-1.043,0.109c-1.041,0-1.753-0.713-2.686-2.358
			c-0.056-0.165-0.112-0.274-0.112-0.329c0-0.273,0.219-0.384,0.493-0.384h0.112c0.329,0.056,0.657,0.056,0.931,0.056
			c0.604,0,1.153-0.056,1.812-0.164l7.899-1.208c-0.768-4.498-1.316-9.217-1.481-13.33c-0.055-1.371-0.44-2.14-1.042-3.018
			c-0.219-0.273-0.33-0.494-0.33-0.714c0-0.329,0.384-0.493,0.932-0.493c0.823,0,3.894,0.384,3.894,2.304
			c0.166,5.376,0.769,10.258,1.537,14.701l12.177-1.864c0.66-0.109,1.097-0.22,1.646-0.494c0.165-0.109,0.33-0.109,0.549-0.109
			c0.657,0,2.632,1.371,2.632,2.249c0,0.493-0.549,0.823-1.425,0.934l-14.976,2.304c0.329,1.59,0.658,3.126,0.988,4.498
			c1.754,7.461,6.253,15.579,12.232,19.254c0.165,0.109,0.33,0.165,0.495,0.165c0.548,0,2.413-5.65,3.18-8.941
			c0.386-1.592,0.823-2.414,1.208-2.414c0.383,0,0.602,0.714,0.602,2.086V52.607z M239.117,29.785
			c-1.976-2.358-4.333-4.882-6.583-6.855c-0.328-0.275-0.493-0.55-0.493-0.824c0-0.604,0.986-1.755,1.645-1.755
			c0.932,0,5.431,4.441,7.735,7.021c0.329,0.329,0.493,0.659,0.493,0.987c0,0.933-1.317,1.975-1.865,1.975
			C239.721,30.334,239.391,30.115,239.117,29.785z"/>
	</g>
	<g>
		<g>
			<g>
				<g>
					<g>
						<path id="SVGID_1_" fill="#FFFFFF" d="M78.756,42.262h-2.658c0,0.006,0.001,0.014,0.001,0.02
							c0,14.586-11.824,26.41-26.41,26.41s-26.411-11.824-26.411-26.41c0-14.571,11.801-26.385,26.366-26.409v-2.659
							c-16.033,0.023-29.023,13.028-29.023,29.067c0,16.054,13.013,29.068,29.068,29.068c16.054,0,29.067-13.016,29.067-29.068
							C78.756,42.276,78.756,42.268,78.756,42.262z"/>
					</g>
					<g>
						<defs>
							<path id="SVGID_2_" d="M78.756,42.262h-2.658c0,0.006,0.001,0.014,0.001,0.02c0,14.586-11.824,26.41-26.41,26.41
								s-26.411-11.824-26.411-26.41c0-14.571,11.801-26.385,26.366-26.409v-2.659c-16.033,0.023-29.023,13.028-29.023,29.067
								c0,16.054,13.013,29.068,29.068,29.068c16.054,0,29.067-13.016,29.067-29.068C78.756,42.276,78.756,42.268,78.756,42.262z"/>
						</defs>
						<clipPath id="SVGID_3_">
							<use xlink:href="#SVGID_2_"  overflow="visible"/>
						</clipPath>
						<polygon clip-path="url(#SVGID_3_)" fill="#FFFFFF" points="79.301,30.022 49.646,12.553 79.301,12.553 						"/>
					</g>
					<g>
						<defs>
							<path id="SVGID_4_" d="M78.756,42.262h-2.658c0,0.006,0.001,0.014,0.001,0.02c0,14.586-11.824,26.41-26.41,26.41
								s-26.411-11.824-26.411-26.41c0-14.571,11.801-26.385,26.366-26.409v-2.659c-16.033,0.023-29.023,13.028-29.023,29.067
								c0,16.054,13.013,29.068,29.068,29.068c16.054,0,29.067-13.016,29.067-29.068C78.756,42.276,78.756,42.268,78.756,42.262z"/>
						</defs>
						<clipPath id="SVGID_5_">
							<use xlink:href="#SVGID_4_"  overflow="visible"/>
						</clipPath>
						<polygon clip-path="url(#SVGID_5_)" fill="#FFFFFF" points="79.301,30.674 48.516,12.553 49.645,12.553 79.301,30.022 						
							"/>
					</g>
					<g>
						<defs>
							<path id="SVGID_6_" d="M78.756,42.262h-2.658c0,0.006,0.001,0.014,0.001,0.02c0,14.586-11.824,26.41-26.41,26.41
								s-26.411-11.824-26.411-26.41c0-14.571,11.801-26.385,26.366-26.409v-2.659c-16.033,0.023-29.023,13.028-29.023,29.067
								c0,16.054,13.013,29.068,29.068,29.068c16.054,0,29.067-13.016,29.067-29.068C78.756,42.276,78.756,42.268,78.756,42.262z"/>
						</defs>
						<clipPath id="SVGID_7_">
							<use xlink:href="#SVGID_6_"  overflow="visible"/>
						</clipPath>
						<polygon clip-path="url(#SVGID_7_)" fill="#FFFFFF" points="79.301,31.325 47.387,12.553 48.516,12.553 79.301,30.674 						
							"/>
					</g>
					<g>
						<defs>
							<path id="SVGID_8_" d="M78.756,42.262h-2.658c0,0.006,0.001,0.014,0.001,0.02c0,14.586-11.824,26.41-26.41,26.41
								s-26.411-11.824-26.411-26.41c0-14.571,11.801-26.385,26.366-26.409v-2.659c-16.033,0.023-29.023,13.028-29.023,29.067
								c0,16.054,13.013,29.068,29.068,29.068c16.054,0,29.067-13.016,29.067-29.068C78.756,42.276,78.756,42.268,78.756,42.262z"/>
						</defs>
						<clipPath id="SVGID_9_">
							<use xlink:href="#SVGID_8_"  overflow="visible"/>
						</clipPath>
						<polygon clip-path="url(#SVGID_9_)" fill="#FFFFFF" points="79.301,31.978 46.256,12.553 47.387,12.553 79.301,31.325 						
							"/>
					</g>
					<g>
						<defs>
							<path id="SVGID_10_" d="M78.756,42.262h-2.658c0,0.006,0.001,0.014,0.001,0.02c0,14.586-11.824,26.41-26.41,26.41
								s-26.411-11.824-26.411-26.41c0-14.571,11.801-26.385,26.366-26.409v-2.659c-16.033,0.023-29.023,13.028-29.023,29.067
								c0,16.054,13.013,29.068,29.068,29.068c16.054,0,29.067-13.016,29.067-29.068C78.756,42.276,78.756,42.268,78.756,42.262z"/>
						</defs>
						<clipPath id="SVGID_11_">
							<use xlink:href="#SVGID_10_"  overflow="visible"/>
						</clipPath>
						<polygon clip-path="url(#SVGID_11_)" fill="#FFFFFF" points="79.301,32.63 45.127,12.553 46.256,12.553 79.301,31.978 						
							"/>
					</g>
					<g>
						<defs>
							<path id="SVGID_12_" d="M78.756,42.262h-2.658c0,0.006,0.001,0.014,0.001,0.02c0,14.586-11.824,26.41-26.41,26.41
								s-26.411-11.824-26.411-26.41c0-14.571,11.801-26.385,26.366-26.409v-2.659c-16.033,0.023-29.023,13.028-29.023,29.067
								c0,16.054,13.013,29.068,29.068,29.068c16.054,0,29.067-13.016,29.067-29.068C78.756,42.276,78.756,42.268,78.756,42.262z"/>
						</defs>
						<clipPath id="SVGID_13_">
							<use xlink:href="#SVGID_12_"  overflow="visible"/>
						</clipPath>
						<polygon clip-path="url(#SVGID_13_)" fill="#FFFFFF" points="79.301,33.283 43.998,12.553 45.127,12.553 79.301,32.63 						
							"/>
					</g>
					<g>
						<defs>
							<path id="SVGID_14_" d="M78.756,42.262h-2.658c0,0.006,0.001,0.014,0.001,0.02c0,14.586-11.824,26.41-26.41,26.41
								s-26.411-11.824-26.411-26.41c0-14.571,11.801-26.385,26.366-26.409v-2.659c-16.033,0.023-29.023,13.028-29.023,29.067
								c0,16.054,13.013,29.068,29.068,29.068c16.054,0,29.067-13.016,29.067-29.068C78.756,42.276,78.756,42.268,78.756,42.262z"/>
						</defs>
						<clipPath id="SVGID_15_">
							<use xlink:href="#SVGID_14_"  overflow="visible"/>
						</clipPath>
						<polygon clip-path="url(#SVGID_15_)" fill="#FFFFFF" points="79.301,33.935 42.867,12.553 43.998,12.553 79.301,33.283 						
							"/>
					</g>
					<g>
						<defs>
							<path id="SVGID_16_" d="M78.756,42.262h-2.658c0,0.006,0.001,0.014,0.001,0.02c0,14.586-11.824,26.41-26.41,26.41
								s-26.411-11.824-26.411-26.41c0-14.571,11.801-26.385,26.366-26.409v-2.659c-16.033,0.023-29.023,13.028-29.023,29.067
								c0,16.054,13.013,29.068,29.068,29.068c16.054,0,29.067-13.016,29.067-29.068C78.756,42.276,78.756,42.268,78.756,42.262z"/>
						</defs>
						<clipPath id="SVGID_17_">
							<use xlink:href="#SVGID_16_"  overflow="visible"/>
						</clipPath>
						<polygon clip-path="url(#SVGID_17_)" fill="#FFFFFF" points="79.301,34.588 41.739,12.553 42.867,12.553 79.301,33.935 						
							"/>
					</g>
					<g>
						<defs>
							<path id="SVGID_18_" d="M78.756,42.262h-2.658c0,0.006,0.001,0.014,0.001,0.02c0,14.586-11.824,26.41-26.41,26.41
								s-26.411-11.824-26.411-26.41c0-14.571,11.801-26.385,26.366-26.409v-2.659c-16.033,0.023-29.023,13.028-29.023,29.067
								c0,16.054,13.013,29.068,29.068,29.068c16.054,0,29.067-13.016,29.067-29.068C78.756,42.276,78.756,42.268,78.756,42.262z"/>
						</defs>
						<clipPath id="SVGID_19_">
							<use xlink:href="#SVGID_18_"  overflow="visible"/>
						</clipPath>
						<polygon clip-path="url(#SVGID_19_)" fill="#FFFFFF" points="79.301,35.239 40.607,12.553 41.739,12.553 79.301,34.588 						
							"/>
					</g>
					<g>
						<defs>
							<path id="SVGID_20_" d="M78.756,42.262h-2.658c0,0.006,0.001,0.014,0.001,0.02c0,14.586-11.824,26.41-26.41,26.41
								s-26.411-11.824-26.411-26.41c0-14.571,11.801-26.385,26.366-26.409v-2.659c-16.033,0.023-29.023,13.028-29.023,29.067
								c0,16.054,13.013,29.068,29.068,29.068c16.054,0,29.067-13.016,29.067-29.068C78.756,42.276,78.756,42.268,78.756,42.262z"/>
						</defs>
						<clipPath id="SVGID_21_">
							<use xlink:href="#SVGID_20_"  overflow="visible"/>
						</clipPath>
						<polygon clip-path="url(#SVGID_21_)" fill="#FFFFFF" points="79.301,35.892 39.479,12.553 40.607,12.553 79.301,35.239 						
							"/>
					</g>
					<g>
						<defs>
							<path id="SVGID_22_" d="M78.756,42.262h-2.658c0,0.006,0.001,0.014,0.001,0.02c0,14.586-11.824,26.41-26.41,26.41
								s-26.411-11.824-26.411-26.41c0-14.571,11.801-26.385,26.366-26.409v-2.659c-16.033,0.023-29.023,13.028-29.023,29.067
								c0,16.054,13.013,29.068,29.068,29.068c16.054,0,29.067-13.016,29.067-29.068C78.756,42.276,78.756,42.268,78.756,42.262z"/>
						</defs>
						<clipPath id="SVGID_23_">
							<use xlink:href="#SVGID_22_"  overflow="visible"/>
						</clipPath>
						<polygon clip-path="url(#SVGID_23_)" fill="#FFFFFF" points="79.301,36.543 38.35,12.553 39.479,12.553 79.301,35.892 						
							"/>
					</g>
					<g>
						<defs>
							<path id="SVGID_24_" d="M78.756,42.262h-2.658c0,0.006,0.001,0.014,0.001,0.02c0,14.586-11.824,26.41-26.41,26.41
								s-26.411-11.824-26.411-26.41c0-14.571,11.801-26.385,26.366-26.409v-2.659c-16.033,0.023-29.023,13.028-29.023,29.067
								c0,16.054,13.013,29.068,29.068,29.068c16.054,0,29.067-13.016,29.067-29.068C78.756,42.276,78.756,42.268,78.756,42.262z"/>
						</defs>
						<clipPath id="SVGID_25_">
							<use xlink:href="#SVGID_24_"  overflow="visible"/>
						</clipPath>
						<polygon clip-path="url(#SVGID_25_)" fill="#FFFFFF" points="79.301,37.197 37.219,12.553 38.35,12.553 79.301,36.543 						
							"/>
					</g>
					<g>
						<defs>
							<path id="SVGID_26_" d="M78.756,42.262h-2.658c0,0.006,0.001,0.014,0.001,0.02c0,14.586-11.824,26.41-26.41,26.41
								s-26.411-11.824-26.411-26.41c0-14.571,11.801-26.385,26.366-26.409v-2.659c-16.033,0.023-29.023,13.028-29.023,29.067
								c0,16.054,13.013,29.068,29.068,29.068c16.054,0,29.067-13.016,29.067-29.068C78.756,42.276,78.756,42.268,78.756,42.262z"/>
						</defs>
						<clipPath id="SVGID_27_">
							<use xlink:href="#SVGID_26_"  overflow="visible"/>
						</clipPath>
						<polygon clip-path="url(#SVGID_27_)" fill="#FFFFFF" points="79.301,37.848 36.09,12.553 37.219,12.553 79.301,37.197 						
							"/>
					</g>
					<g>
						<defs>
							<path id="SVGID_28_" d="M78.756,42.262h-2.658c0,0.006,0.001,0.014,0.001,0.02c0,14.586-11.824,26.41-26.41,26.41
								s-26.411-11.824-26.411-26.41c0-14.571,11.801-26.385,26.366-26.409v-2.659c-16.033,0.023-29.023,13.028-29.023,29.067
								c0,16.054,13.013,29.068,29.068,29.068c16.054,0,29.067-13.016,29.067-29.068C78.756,42.276,78.756,42.268,78.756,42.262z"/>
						</defs>
						<clipPath id="SVGID_29_">
							<use xlink:href="#SVGID_28_"  overflow="visible"/>
						</clipPath>
						<polygon clip-path="url(#SVGID_29_)" fill="#FFFFFF" points="79.301,38.501 34.961,12.553 36.09,12.553 79.301,37.848 						
							"/>
					</g>
					<g>
						<defs>
							<path id="SVGID_30_" d="M78.756,42.262h-2.658c0,0.006,0.001,0.014,0.001,0.02c0,14.586-11.824,26.41-26.41,26.41
								s-26.411-11.824-26.411-26.41c0-14.571,11.801-26.385,26.366-26.409v-2.659c-16.033,0.023-29.023,13.028-29.023,29.067
								c0,16.054,13.013,29.068,29.068,29.068c16.054,0,29.067-13.016,29.067-29.068C78.756,42.276,78.756,42.268,78.756,42.262z"/>
						</defs>
						<clipPath id="SVGID_31_">
							<use xlink:href="#SVGID_30_"  overflow="visible"/>
						</clipPath>
						<polygon clip-path="url(#SVGID_31_)" fill="#FFFFFF" points="79.301,39.152 33.83,12.553 34.961,12.553 79.301,38.501 						
							"/>
					</g>
					<g>
						<defs>
							<path id="SVGID_32_" d="M78.756,42.262h-2.658c0,0.006,0.001,0.014,0.001,0.02c0,14.586-11.824,26.41-26.41,26.41
								s-26.411-11.824-26.411-26.41c0-14.571,11.801-26.385,26.366-26.409v-2.659c-16.033,0.023-29.023,13.028-29.023,29.067
								c0,16.054,13.013,29.068,29.068,29.068c16.054,0,29.067-13.016,29.067-29.068C78.756,42.276,78.756,42.268,78.756,42.262z"/>
						</defs>
						<clipPath id="SVGID_33_">
							<use xlink:href="#SVGID_32_"  overflow="visible"/>
						</clipPath>
						<polygon clip-path="url(#SVGID_33_)" fill="#FFFFFF" points="79.301,39.805 32.701,12.553 33.83,12.553 79.301,39.152 						
							"/>
					</g>
					<g>
						<defs>
							<path id="SVGID_34_" d="M78.756,42.262h-2.658c0,0.006,0.001,0.014,0.001,0.02c0,14.586-11.824,26.41-26.41,26.41
								s-26.411-11.824-26.411-26.41c0-14.571,11.801-26.385,26.366-26.409v-2.659c-16.033,0.023-29.023,13.028-29.023,29.067
								c0,16.054,13.013,29.068,29.068,29.068c16.054,0,29.067-13.016,29.067-29.068C78.756,42.276,78.756,42.268,78.756,42.262z"/>
						</defs>
						<clipPath id="SVGID_35_">
							<use xlink:href="#SVGID_34_"  overflow="visible"/>
						</clipPath>
						<polygon clip-path="url(#SVGID_35_)" fill="#FFFFFF" points="79.301,40.458 31.572,12.553 32.701,12.553 79.301,39.805 						
							"/>
					</g>
					<g>
						<defs>
							<path id="SVGID_36_" d="M78.756,42.262h-2.658c0,0.006,0.001,0.014,0.001,0.02c0,14.586-11.824,26.41-26.41,26.41
								s-26.411-11.824-26.411-26.41c0-14.571,11.801-26.385,26.366-26.409v-2.659c-16.033,0.023-29.023,13.028-29.023,29.067
								c0,16.054,13.013,29.068,29.068,29.068c16.054,0,29.067-13.016,29.067-29.068C78.756,42.276,78.756,42.268,78.756,42.262z"/>
						</defs>
						<clipPath id="SVGID_37_">
							<use xlink:href="#SVGID_36_"  overflow="visible"/>
						</clipPath>
						<polygon clip-path="url(#SVGID_37_)" fill="#FFFFFF" points="79.301,41.11 30.441,12.553 31.572,12.553 79.301,40.458 						
							"/>
					</g>
					<g>
						<defs>
							<path id="SVGID_38_" d="M78.756,42.262h-2.658c0,0.006,0.001,0.014,0.001,0.02c0,14.586-11.824,26.41-26.41,26.41
								s-26.411-11.824-26.411-26.41c0-14.571,11.801-26.385,26.366-26.409v-2.659c-16.033,0.023-29.023,13.028-29.023,29.067
								c0,16.054,13.013,29.068,29.068,29.068c16.054,0,29.067-13.016,29.067-29.068C78.756,42.276,78.756,42.268,78.756,42.262z"/>
						</defs>
						<clipPath id="SVGID_39_">
							<use xlink:href="#SVGID_38_"  overflow="visible"/>
						</clipPath>
						<polygon clip-path="url(#SVGID_39_)" fill="#FFFFFF" points="79.301,41.761 29.313,12.553 30.441,12.553 79.301,41.11 						
							"/>
					</g>
					<g>
						<defs>
							<path id="SVGID_40_" d="M78.756,42.262h-2.658c0,0.006,0.001,0.014,0.001,0.02c0,14.586-11.824,26.41-26.41,26.41
								s-26.411-11.824-26.411-26.41c0-14.571,11.801-26.385,26.366-26.409v-2.659c-16.033,0.023-29.023,13.028-29.023,29.067
								c0,16.054,13.013,29.068,29.068,29.068c16.054,0,29.067-13.016,29.067-29.068C78.756,42.276,78.756,42.268,78.756,42.262z"/>
						</defs>
						<clipPath id="SVGID_41_">
							<use xlink:href="#SVGID_40_"  overflow="visible"/>
						</clipPath>
						<polygon clip-path="url(#SVGID_41_)" fill="#FFFFFF" points="79.301,42.414 28.181,12.553 29.313,12.553 79.301,41.761 						
							"/>
					</g>
					<g>
						<defs>
							<path id="SVGID_42_" d="M78.756,42.262h-2.658c0,0.006,0.001,0.014,0.001,0.02c0,14.586-11.824,26.41-26.41,26.41
								s-26.411-11.824-26.411-26.41c0-14.571,11.801-26.385,26.366-26.409v-2.659c-16.033,0.023-29.023,13.028-29.023,29.067
								c0,16.054,13.013,29.068,29.068,29.068c16.054,0,29.067-13.016,29.067-29.068C78.756,42.276,78.756,42.268,78.756,42.262z"/>
						</defs>
						<clipPath id="SVGID_43_">
							<use xlink:href="#SVGID_42_"  overflow="visible"/>
						</clipPath>
						<polygon clip-path="url(#SVGID_43_)" fill="#FFFFFF" points="79.301,43.066 27.562,13.02 27.369,12.553 28.181,12.553 
							79.301,42.414 						"/>
					</g>
					<g>
						<defs>
							<path id="SVGID_44_" d="M78.756,42.262h-2.658c0,0.006,0.001,0.014,0.001,0.02c0,14.586-11.824,26.41-26.41,26.41
								s-26.411-11.824-26.411-26.41c0-14.571,11.801-26.385,26.366-26.409v-2.659c-16.033,0.023-29.023,13.028-29.023,29.067
								c0,16.054,13.013,29.068,29.068,29.068c16.054,0,29.067-13.016,29.067-29.068C78.756,42.276,78.756,42.268,78.756,42.262z"/>
						</defs>
						<clipPath id="SVGID_45_">
							<use xlink:href="#SVGID_44_"  overflow="visible"/>
						</clipPath>
						<polygon clip-path="url(#SVGID_45_)" fill="#FFFFFF" points="79.301,43.719 27.279,13.84 27.697,13.351 79.301,43.066 						
							"/>
					</g>
					<g>
						<defs>
							<path id="SVGID_46_" d="M78.756,42.262h-2.658c0,0.006,0.001,0.014,0.001,0.02c0,14.586-11.824,26.41-26.41,26.41
								s-26.411-11.824-26.411-26.41c0-14.571,11.801-26.385,26.366-26.409v-2.659c-16.033,0.023-29.023,13.028-29.023,29.067
								c0,16.054,13.013,29.068,29.068,29.068c16.054,0,29.067-13.016,29.067-29.068C78.756,42.276,78.756,42.268,78.756,42.262z"/>
						</defs>
						<clipPath id="SVGID_47_">
							<use xlink:href="#SVGID_46_"  overflow="visible"/>
						</clipPath>
						<polygon clip-path="url(#SVGID_47_)" fill="#FFFFFF" points="79.301,44.371 26.999,14.33 27.416,13.84 79.301,43.719 						
							"/>
					</g>
					<g>
						<defs>
							<path id="SVGID_48_" d="M78.756,42.262h-2.658c0,0.006,0.001,0.014,0.001,0.02c0,14.586-11.824,26.41-26.41,26.41
								s-26.411-11.824-26.411-26.41c0-14.571,11.801-26.385,26.366-26.409v-2.659c-16.033,0.023-29.023,13.028-29.023,29.067
								c0,16.054,13.013,29.068,29.068,29.068c16.054,0,29.067-13.016,29.067-29.068C78.756,42.276,78.756,42.268,78.756,42.262z"/>
						</defs>
						<clipPath id="SVGID_49_">
							<use xlink:href="#SVGID_48_"  overflow="visible"/>
						</clipPath>
						<polygon clip-path="url(#SVGID_49_)" fill="#FFFFFF" points="79.301,45.022 26.715,14.819 27.133,14.33 79.301,44.371 						
							"/>
					</g>
					<g>
						<defs>
							<path id="SVGID_50_" d="M78.756,42.262h-2.658c0,0.006,0.001,0.014,0.001,0.02c0,14.586-11.824,26.41-26.41,26.41
								s-26.411-11.824-26.411-26.41c0-14.571,11.801-26.385,26.366-26.409v-2.659c-16.033,0.023-29.023,13.028-29.023,29.067
								c0,16.054,13.013,29.068,29.068,29.068c16.054,0,29.067-13.016,29.067-29.068C78.756,42.276,78.756,42.268,78.756,42.262z"/>
						</defs>
						<clipPath id="SVGID_51_">
							<use xlink:href="#SVGID_50_"  overflow="visible"/>
						</clipPath>
						<polygon clip-path="url(#SVGID_51_)" fill="#FFFFFF" points="79.301,45.675 26.433,15.309 26.852,14.819 79.301,45.022 						
							"/>
					</g>
					<g>
						<defs>
							<path id="SVGID_52_" d="M78.756,42.262h-2.658c0,0.006,0.001,0.014,0.001,0.02c0,14.586-11.824,26.41-26.41,26.41
								s-26.411-11.824-26.411-26.41c0-14.571,11.801-26.385,26.366-26.409v-2.659c-16.033,0.023-29.023,13.028-29.023,29.067
								c0,16.054,13.013,29.068,29.068,29.068c16.054,0,29.067-13.016,29.067-29.068C78.756,42.276,78.756,42.268,78.756,42.262z"/>
						</defs>
						<clipPath id="SVGID_53_">
							<use xlink:href="#SVGID_52_"  overflow="visible"/>
						</clipPath>
						<polygon clip-path="url(#SVGID_53_)" fill="#FFFFFF" points="79.301,46.328 26.151,15.798 26.569,15.309 79.301,45.675 						
							"/>
					</g>
					<g>
						<defs>
							<path id="SVGID_54_" d="M78.756,42.262h-2.658c0,0.006,0.001,0.014,0.001,0.02c0,14.586-11.824,26.41-26.41,26.41
								s-26.411-11.824-26.411-26.41c0-14.571,11.801-26.385,26.366-26.409v-2.659c-16.033,0.023-29.023,13.028-29.023,29.067
								c0,16.054,13.013,29.068,29.068,29.068c16.054,0,29.067-13.016,29.067-29.068C78.756,42.276,78.756,42.268,78.756,42.262z"/>
						</defs>
						<clipPath id="SVGID_55_">
							<use xlink:href="#SVGID_54_"  overflow="visible"/>
						</clipPath>
						<polygon clip-path="url(#SVGID_55_)" fill="#FFFFFF" points="79.301,46.98 25.867,16.286 26.286,15.798 79.301,46.328 						
							"/>
					</g>
					<g>
						<defs>
							<path id="SVGID_56_" d="M78.756,42.262h-2.658c0,0.006,0.001,0.014,0.001,0.02c0,14.586-11.824,26.41-26.41,26.41
								s-26.411-11.824-26.411-26.41c0-14.571,11.801-26.385,26.366-26.409v-2.659c-16.033,0.023-29.023,13.028-29.023,29.067
								c0,16.054,13.013,29.068,29.068,29.068c16.054,0,29.067-13.016,29.067-29.068C78.756,42.276,78.756,42.268,78.756,42.262z"/>
						</defs>
						<clipPath id="SVGID_57_">
							<use xlink:href="#SVGID_56_"  overflow="visible"/>
						</clipPath>
						<polygon clip-path="url(#SVGID_57_)" fill="#FFFFFF" points="79.301,47.632 25.584,16.776 26.004,16.286 79.301,46.98 						
							"/>
					</g>
					<g>
						<defs>
							<path id="SVGID_58_" d="M78.756,42.262h-2.658c0,0.006,0.001,0.014,0.001,0.02c0,14.586-11.824,26.41-26.41,26.41
								s-26.411-11.824-26.411-26.41c0-14.571,11.801-26.385,26.366-26.409v-2.659c-16.033,0.023-29.023,13.028-29.023,29.067
								c0,16.054,13.013,29.068,29.068,29.068c16.054,0,29.067-13.016,29.067-29.068C78.756,42.276,78.756,42.268,78.756,42.262z"/>
						</defs>
						<clipPath id="SVGID_59_">
							<use xlink:href="#SVGID_58_"  overflow="visible"/>
						</clipPath>
						<polygon clip-path="url(#SVGID_59_)" fill="#FFFFFF" points="79.301,48.282 25.302,17.265 25.721,16.776 79.301,47.632 						
							"/>
					</g>
					<g>
						<defs>
							<path id="SVGID_60_" d="M78.756,42.262h-2.658c0,0.006,0.001,0.014,0.001,0.02c0,14.586-11.824,26.41-26.41,26.41
								s-26.411-11.824-26.411-26.41c0-14.571,11.801-26.385,26.366-26.409v-2.659c-16.033,0.023-29.023,13.028-29.023,29.067
								c0,16.054,13.013,29.068,29.068,29.068c16.054,0,29.067-13.016,29.067-29.068C78.756,42.276,78.756,42.268,78.756,42.262z"/>
						</defs>
						<clipPath id="SVGID_61_">
							<use xlink:href="#SVGID_60_"  overflow="visible"/>
						</clipPath>
						<polygon clip-path="url(#SVGID_61_)" fill="#FFFFFF" points="79.301,48.935 25.021,17.755 25.438,17.265 79.301,48.282 						
							"/>
					</g>
					<g>
						<defs>
							<path id="SVGID_62_" d="M78.756,42.262h-2.658c0,0.006,0.001,0.014,0.001,0.02c0,14.586-11.824,26.41-26.41,26.41
								s-26.411-11.824-26.411-26.41c0-14.571,11.801-26.385,26.366-26.409v-2.659c-16.033,0.023-29.023,13.028-29.023,29.067
								c0,16.054,13.013,29.068,29.068,29.068c16.054,0,29.067-13.016,29.067-29.068C78.756,42.276,78.756,42.268,78.756,42.262z"/>
						</defs>
						<clipPath id="SVGID_63_">
							<use xlink:href="#SVGID_62_"  overflow="visible"/>
						</clipPath>
						<polygon clip-path="url(#SVGID_63_)" fill="#FFFFFF" points="79.301,49.589 24.738,18.244 25.156,17.755 79.301,48.935 						
							"/>
					</g>
					<g>
						<defs>
							<path id="SVGID_64_" d="M78.756,42.262h-2.658c0,0.006,0.001,0.014,0.001,0.02c0,14.586-11.824,26.41-26.41,26.41
								s-26.411-11.824-26.411-26.41c0-14.571,11.801-26.385,26.366-26.409v-2.659c-16.033,0.023-29.023,13.028-29.023,29.067
								c0,16.054,13.013,29.068,29.068,29.068c16.054,0,29.067-13.016,29.067-29.068C78.756,42.276,78.756,42.268,78.756,42.262z"/>
						</defs>
						<clipPath id="SVGID_65_">
							<use xlink:href="#SVGID_64_"  overflow="visible"/>
						</clipPath>
						<polygon clip-path="url(#SVGID_65_)" fill="#FFFFFF" points="79.301,50.241 24.454,18.733 24.874,18.244 79.301,49.589 						
							"/>
					</g>
					<g>
						<defs>
							<path id="SVGID_66_" d="M78.756,42.262h-2.658c0,0.006,0.001,0.014,0.001,0.02c0,14.586-11.824,26.41-26.41,26.41
								s-26.411-11.824-26.411-26.41c0-14.571,11.801-26.385,26.366-26.409v-2.659c-16.033,0.023-29.023,13.028-29.023,29.067
								c0,16.054,13.013,29.068,29.068,29.068c16.054,0,29.067-13.016,29.067-29.068C78.756,42.276,78.756,42.268,78.756,42.262z"/>
						</defs>
						<clipPath id="SVGID_67_">
							<use xlink:href="#SVGID_66_"  overflow="visible"/>
						</clipPath>
						<polygon clip-path="url(#SVGID_67_)" fill="#FFFFFF" points="79.301,50.892 24.172,19.222 24.592,18.733 79.301,50.241 						
							"/>
					</g>
					<g>
						<defs>
							<path id="SVGID_68_" d="M78.756,42.262h-2.658c0,0.006,0.001,0.014,0.001,0.02c0,14.586-11.824,26.41-26.41,26.41
								s-26.411-11.824-26.411-26.41c0-14.571,11.801-26.385,26.366-26.409v-2.659c-16.033,0.023-29.023,13.028-29.023,29.067
								c0,16.054,13.013,29.068,29.068,29.068c16.054,0,29.067-13.016,29.067-29.068C78.756,42.276,78.756,42.268,78.756,42.262z"/>
						</defs>
						<clipPath id="SVGID_69_">
							<use xlink:href="#SVGID_68_"  overflow="visible"/>
						</clipPath>
						<polygon clip-path="url(#SVGID_69_)" fill="#FFFFFF" points="79.301,51.545 23.89,19.71 24.309,19.222 79.301,50.892 						
							"/>
					</g>
					<g>
						<defs>
							<path id="SVGID_70_" d="M78.756,42.262h-2.658c0,0.006,0.001,0.014,0.001,0.02c0,14.586-11.824,26.41-26.41,26.41
								s-26.411-11.824-26.411-26.41c0-14.571,11.801-26.385,26.366-26.409v-2.659c-16.033,0.023-29.023,13.028-29.023,29.067
								c0,16.054,13.013,29.068,29.068,29.068c16.054,0,29.067-13.016,29.067-29.068C78.756,42.276,78.756,42.268,78.756,42.262z"/>
						</defs>
						<clipPath id="SVGID_71_">
							<use xlink:href="#SVGID_70_"  overflow="visible"/>
						</clipPath>
						<polygon clip-path="url(#SVGID_71_)" fill="#FFFFFF" points="79.301,52.197 23.608,20.199 24.025,19.71 79.301,51.545 						
							"/>
					</g>
					<g>
						<defs>
							<path id="SVGID_72_" d="M78.756,42.262h-2.658c0,0.006,0.001,0.014,0.001,0.02c0,14.586-11.824,26.41-26.41,26.41
								s-26.411-11.824-26.411-26.41c0-14.571,11.801-26.385,26.366-26.409v-2.659c-16.033,0.023-29.023,13.028-29.023,29.067
								c0,16.054,13.013,29.068,29.068,29.068c16.054,0,29.067-13.016,29.067-29.068C78.756,42.276,78.756,42.268,78.756,42.262z"/>
						</defs>
						<clipPath id="SVGID_73_">
							<use xlink:href="#SVGID_72_"  overflow="visible"/>
						</clipPath>
						<polygon clip-path="url(#SVGID_73_)" fill="#FFFFFF" points="79.301,52.849 23.327,20.689 23.744,20.199 79.301,52.197 						
							"/>
					</g>
					<g>
						<defs>
							<path id="SVGID_74_" d="M78.756,42.262h-2.658c0,0.006,0.001,0.014,0.001,0.02c0,14.586-11.824,26.41-26.41,26.41
								s-26.411-11.824-26.411-26.41c0-14.571,11.801-26.385,26.366-26.409v-2.659c-16.033,0.023-29.023,13.028-29.023,29.067
								c0,16.054,13.013,29.068,29.068,29.068c16.054,0,29.067-13.016,29.067-29.068C78.756,42.276,78.756,42.268,78.756,42.262z"/>
						</defs>
						<clipPath id="SVGID_75_">
							<use xlink:href="#SVGID_74_"  overflow="visible"/>
						</clipPath>
						<polygon clip-path="url(#SVGID_75_)" fill="#FFFFFF" points="79.301,53.502 23.043,21.178 23.462,20.689 79.301,52.849 						
							"/>
					</g>
					<g>
						<defs>
							<path id="SVGID_76_" d="M78.756,42.262h-2.658c0,0.006,0.001,0.014,0.001,0.02c0,14.586-11.824,26.41-26.41,26.41
								s-26.411-11.824-26.411-26.41c0-14.571,11.801-26.385,26.366-26.409v-2.659c-16.033,0.023-29.023,13.028-29.023,29.067
								c0,16.054,13.013,29.068,29.068,29.068c16.054,0,29.067-13.016,29.067-29.068C78.756,42.276,78.756,42.268,78.756,42.262z"/>
						</defs>
						<clipPath id="SVGID_77_">
							<use xlink:href="#SVGID_76_"  overflow="visible"/>
						</clipPath>
						<polygon clip-path="url(#SVGID_77_)" fill="#FFFFFF" points="79.301,54.154 22.761,21.668 23.18,21.178 79.301,53.502 						
							"/>
					</g>
					<g>
						<defs>
							<path id="SVGID_78_" d="M78.756,42.262h-2.658c0,0.006,0.001,0.014,0.001,0.02c0,14.586-11.824,26.41-26.41,26.41
								s-26.411-11.824-26.411-26.41c0-14.571,11.801-26.385,26.366-26.409v-2.659c-16.033,0.023-29.023,13.028-29.023,29.067
								c0,16.054,13.013,29.068,29.068,29.068c16.054,0,29.067-13.016,29.067-29.068C78.756,42.276,78.756,42.268,78.756,42.262z"/>
						</defs>
						<clipPath id="SVGID_79_">
							<use xlink:href="#SVGID_78_"  overflow="visible"/>
						</clipPath>
						<polygon clip-path="url(#SVGID_79_)" fill="#FFFFFF" points="79.301,54.805 22.479,22.157 22.897,21.668 79.301,54.154 						
							"/>
					</g>
					<g>
						<defs>
							<path id="SVGID_80_" d="M78.756,42.262h-2.658c0,0.006,0.001,0.014,0.001,0.02c0,14.586-11.824,26.41-26.41,26.41
								s-26.411-11.824-26.411-26.41c0-14.571,11.801-26.385,26.366-26.409v-2.659c-16.033,0.023-29.023,13.028-29.023,29.067
								c0,16.054,13.013,29.068,29.068,29.068c16.054,0,29.067-13.016,29.067-29.068C78.756,42.276,78.756,42.268,78.756,42.262z"/>
						</defs>
						<clipPath id="SVGID_81_">
							<use xlink:href="#SVGID_80_"  overflow="visible"/>
						</clipPath>
						<polygon clip-path="url(#SVGID_81_)" fill="#FFFFFF" points="79.301,55.458 22.195,22.645 22.614,22.157 79.301,54.805 						
							"/>
					</g>
					<g>
						<defs>
							<path id="SVGID_82_" d="M78.756,42.262h-2.658c0,0.006,0.001,0.014,0.001,0.02c0,14.586-11.824,26.41-26.41,26.41
								s-26.411-11.824-26.411-26.41c0-14.571,11.801-26.385,26.366-26.409v-2.659c-16.033,0.023-29.023,13.028-29.023,29.067
								c0,16.054,13.013,29.068,29.068,29.068c16.054,0,29.067-13.016,29.067-29.068C78.756,42.276,78.756,42.268,78.756,42.262z"/>
						</defs>
						<clipPath id="SVGID_83_">
							<use xlink:href="#SVGID_82_"  overflow="visible"/>
						</clipPath>
						<polygon clip-path="url(#SVGID_83_)" fill="#FFFFFF" points="79.301,56.111 21.913,23.135 22.332,22.645 79.301,55.458 						
							"/>
					</g>
					<g>
						<defs>
							<path id="SVGID_84_" d="M78.756,42.262h-2.658c0,0.006,0.001,0.014,0.001,0.02c0,14.586-11.824,26.41-26.41,26.41
								s-26.411-11.824-26.411-26.41c0-14.571,11.801-26.385,26.366-26.409v-2.659c-16.033,0.023-29.023,13.028-29.023,29.067
								c0,16.054,13.013,29.068,29.068,29.068c16.054,0,29.067-13.016,29.067-29.068C78.756,42.276,78.756,42.268,78.756,42.262z"/>
						</defs>
						<clipPath id="SVGID_85_">
							<use xlink:href="#SVGID_84_"  overflow="visible"/>
						</clipPath>
						<polygon clip-path="url(#SVGID_85_)" fill="#FFFFFF" points="79.301,56.763 21.631,23.624 22.049,23.135 79.301,56.111 						
							"/>
					</g>
					<g>
						<defs>
							<path id="SVGID_86_" d="M78.756,42.262h-2.658c0,0.006,0.001,0.014,0.001,0.02c0,14.586-11.824,26.41-26.41,26.41
								s-26.411-11.824-26.411-26.41c0-14.571,11.801-26.385,26.366-26.409v-2.659c-16.033,0.023-29.023,13.028-29.023,29.067
								c0,16.054,13.013,29.068,29.068,29.068c16.054,0,29.067-13.016,29.067-29.068C78.756,42.276,78.756,42.268,78.756,42.262z"/>
						</defs>
						<clipPath id="SVGID_87_">
							<use xlink:href="#SVGID_86_"  overflow="visible"/>
						</clipPath>
						<polygon clip-path="url(#SVGID_87_)" fill="#FFFFFF" points="79.301,57.415 21.349,24.113 21.767,23.624 79.301,56.763 						
							"/>
					</g>
					<g>
						<defs>
							<path id="SVGID_88_" d="M78.756,42.262h-2.658c0,0.006,0.001,0.014,0.001,0.02c0,14.586-11.824,26.41-26.41,26.41
								s-26.411-11.824-26.411-26.41c0-14.571,11.801-26.385,26.366-26.409v-2.659c-16.033,0.023-29.023,13.028-29.023,29.067
								c0,16.054,13.013,29.068,29.068,29.068c16.054,0,29.067-13.016,29.067-29.068C78.756,42.276,78.756,42.268,78.756,42.262z"/>
						</defs>
						<clipPath id="SVGID_89_">
							<use xlink:href="#SVGID_88_"  overflow="visible"/>
						</clipPath>
						<polygon clip-path="url(#SVGID_89_)" fill="#FFFFFF" points="79.301,58.067 21.066,24.602 21.484,24.113 79.301,57.415 						
							"/>
					</g>
					<g>
						<defs>
							<path id="SVGID_90_" d="M78.756,42.262h-2.658c0,0.006,0.001,0.014,0.001,0.02c0,14.586-11.824,26.41-26.41,26.41
								s-26.411-11.824-26.411-26.41c0-14.571,11.801-26.385,26.366-26.409v-2.659c-16.033,0.023-29.023,13.028-29.023,29.067
								c0,16.054,13.013,29.068,29.068,29.068c16.054,0,29.067-13.016,29.067-29.068C78.756,42.276,78.756,42.268,78.756,42.262z"/>
						</defs>
						<clipPath id="SVGID_91_">
							<use xlink:href="#SVGID_90_"  overflow="visible"/>
						</clipPath>
						<polygon clip-path="url(#SVGID_91_)" fill="#FFFFFF" points="79.301,58.719 20.301,25.155 20.301,24.902 20.907,24.602 
							79.301,58.067 						"/>
					</g>
					<g>
						<defs>
							<path id="SVGID_92_" d="M78.756,42.262h-2.658c0,0.006,0.001,0.014,0.001,0.02c0,14.586-11.824,26.41-26.41,26.41
								s-26.411-11.824-26.411-26.41c0-14.571,11.801-26.385,26.366-26.409v-2.659c-16.033,0.023-29.023,13.028-29.023,29.067
								c0,16.054,13.013,29.068,29.068,29.068c16.054,0,29.067-13.016,29.067-29.068C78.756,42.276,78.756,42.268,78.756,42.262z"/>
						</defs>
						<clipPath id="SVGID_93_">
							<use xlink:href="#SVGID_92_"  overflow="visible"/>
						</clipPath>
						<polygon clip-path="url(#SVGID_93_)" fill="#FFFFFF" points="79.301,59.372 20.301,25.806 20.301,25.155 79.301,58.719 						
							"/>
					</g>
					<g>
						<defs>
							<path id="SVGID_94_" d="M78.756,42.262h-2.658c0,0.006,0.001,0.014,0.001,0.02c0,14.586-11.824,26.41-26.41,26.41
								s-26.411-11.824-26.411-26.41c0-14.571,11.801-26.385,26.366-26.409v-2.659c-16.033,0.023-29.023,13.028-29.023,29.067
								c0,16.054,13.013,29.068,29.068,29.068c16.054,0,29.067-13.016,29.067-29.068C78.756,42.276,78.756,42.268,78.756,42.262z"/>
						</defs>
						<clipPath id="SVGID_95_">
							<use xlink:href="#SVGID_94_"  overflow="visible"/>
						</clipPath>
						<polygon clip-path="url(#SVGID_95_)" fill="#FFFFFF" points="79.301,59.677 78.718,59.937 20.301,26.459 20.301,25.806 
							79.301,59.372 						"/>
					</g>
					<g>
						<defs>
							<path id="SVGID_96_" d="M78.756,42.262h-2.658c0,0.006,0.001,0.014,0.001,0.02c0,14.586-11.824,26.41-26.41,26.41
								s-26.411-11.824-26.411-26.41c0-14.571,11.801-26.385,26.366-26.409v-2.659c-16.033,0.023-29.023,13.028-29.023,29.067
								c0,16.054,13.013,29.068,29.068,29.068c16.054,0,29.067-13.016,29.067-29.068C78.756,42.276,78.756,42.268,78.756,42.262z"/>
						</defs>
						<clipPath id="SVGID_97_">
							<use xlink:href="#SVGID_96_"  overflow="visible"/>
						</clipPath>
						<polygon clip-path="url(#SVGID_97_)" fill="#FFFFFF" points="78.445,59.937 78.084,60.427 20.301,27.111 20.301,26.459 						
							"/>
					</g>
					<g>
						<defs>
							<path id="SVGID_98_" d="M78.756,42.262h-2.658c0,0.006,0.001,0.014,0.001,0.02c0,14.586-11.824,26.41-26.41,26.41
								s-26.411-11.824-26.411-26.41c0-14.571,11.801-26.385,26.366-26.409v-2.659c-16.033,0.023-29.023,13.028-29.023,29.067
								c0,16.054,13.013,29.068,29.068,29.068c16.054,0,29.067-13.016,29.067-29.068C78.756,42.276,78.756,42.268,78.756,42.262z"/>
						</defs>
						<clipPath id="SVGID_99_">
							<use xlink:href="#SVGID_98_"  overflow="visible"/>
						</clipPath>
						<polygon clip-path="url(#SVGID_99_)" fill="#FFFFFF" points="78.163,60.427 77.802,60.915 20.301,27.764 20.301,27.111 						
							"/>
					</g>
					<g>
						<defs>
							<path id="SVGID_100_" d="M78.756,42.262h-2.658c0,0.006,0.001,0.014,0.001,0.02c0,14.586-11.824,26.41-26.41,26.41
								s-26.411-11.824-26.411-26.41c0-14.571,11.801-26.385,26.366-26.409v-2.659c-16.033,0.023-29.023,13.028-29.023,29.067
								c0,16.054,13.013,29.068,29.068,29.068c16.054,0,29.067-13.016,29.067-29.068C78.756,42.276,78.756,42.268,78.756,42.262z"/>
						</defs>
						<clipPath id="SVGID_101_">
							<use xlink:href="#SVGID_100_"  overflow="visible"/>
						</clipPath>
						<polygon clip-path="url(#SVGID_101_)" fill="#FFFFFF" points="77.879,60.915 77.52,61.404 20.301,28.416 20.301,27.764 						
							"/>
					</g>
					<g>
						<defs>
							<path id="SVGID_102_" d="M78.756,42.262h-2.658c0,0.006,0.001,0.014,0.001,0.02c0,14.586-11.824,26.41-26.41,26.41
								s-26.411-11.824-26.411-26.41c0-14.571,11.801-26.385,26.366-26.409v-2.659c-16.033,0.023-29.023,13.028-29.023,29.067
								c0,16.054,13.013,29.068,29.068,29.068c16.054,0,29.067-13.016,29.067-29.068C78.756,42.276,78.756,42.268,78.756,42.262z"/>
						</defs>
						<clipPath id="SVGID_103_">
							<use xlink:href="#SVGID_102_"  overflow="visible"/>
						</clipPath>
						<polygon clip-path="url(#SVGID_103_)" fill="#FFFFFF" points="77.599,61.404 77.238,61.893 20.301,29.069 20.301,28.416 
													"/>
					</g>
					<g>
						<defs>
							<path id="SVGID_104_" d="M78.756,42.262h-2.658c0,0.006,0.001,0.014,0.001,0.02c0,14.586-11.824,26.41-26.41,26.41
								s-26.411-11.824-26.411-26.41c0-14.571,11.801-26.385,26.366-26.409v-2.659c-16.033,0.023-29.023,13.028-29.023,29.067
								c0,16.054,13.013,29.068,29.068,29.068c16.054,0,29.067-13.016,29.067-29.068C78.756,42.276,78.756,42.268,78.756,42.262z"/>
						</defs>
						<clipPath id="SVGID_105_">
							<use xlink:href="#SVGID_104_"  overflow="visible"/>
						</clipPath>
						<polygon clip-path="url(#SVGID_105_)" fill="#FFFFFF" points="77.315,61.893 76.955,62.383 20.301,29.72 20.301,29.069 						
							"/>
					</g>
					<g>
						<defs>
							<path id="SVGID_106_" d="M78.756,42.262h-2.658c0,0.006,0.001,0.014,0.001,0.02c0,14.586-11.824,26.41-26.41,26.41
								s-26.411-11.824-26.411-26.41c0-14.571,11.801-26.385,26.366-26.409v-2.659c-16.033,0.023-29.023,13.028-29.023,29.067
								c0,16.054,13.013,29.068,29.068,29.068c16.054,0,29.067-13.016,29.067-29.068C78.756,42.276,78.756,42.268,78.756,42.262z"/>
						</defs>
						<clipPath id="SVGID_107_">
							<use xlink:href="#SVGID_106_"  overflow="visible"/>
						</clipPath>
						<polygon clip-path="url(#SVGID_107_)" fill="#FFFFFF" points="77.033,62.383 76.672,62.872 20.301,30.373 20.301,29.72 						
							"/>
					</g>
					<g>
						<defs>
							<path id="SVGID_108_" d="M78.756,42.262h-2.658c0,0.006,0.001,0.014,0.001,0.02c0,14.586-11.824,26.41-26.41,26.41
								s-26.411-11.824-26.411-26.41c0-14.571,11.801-26.385,26.366-26.409v-2.659c-16.033,0.023-29.023,13.028-29.023,29.067
								c0,16.054,13.013,29.068,29.068,29.068c16.054,0,29.067-13.016,29.067-29.068C78.756,42.276,78.756,42.268,78.756,42.262z"/>
						</defs>
						<clipPath id="SVGID_109_">
							<use xlink:href="#SVGID_108_"  overflow="visible"/>
						</clipPath>
						<polygon clip-path="url(#SVGID_109_)" fill="#FFFFFF" points="76.753,62.872 76.39,63.361 20.301,31.024 20.301,30.373 						
							"/>
					</g>
					<g>
						<defs>
							<path id="SVGID_110_" d="M78.756,42.262h-2.658c0,0.006,0.001,0.014,0.001,0.02c0,14.586-11.824,26.41-26.41,26.41
								s-26.411-11.824-26.411-26.41c0-14.571,11.801-26.385,26.366-26.409v-2.659c-16.033,0.023-29.023,13.028-29.023,29.067
								c0,16.054,13.013,29.068,29.068,29.068c16.054,0,29.067-13.016,29.067-29.068C78.756,42.276,78.756,42.268,78.756,42.262z"/>
						</defs>
						<clipPath id="SVGID_111_">
							<use xlink:href="#SVGID_110_"  overflow="visible"/>
						</clipPath>
						<polygon clip-path="url(#SVGID_111_)" fill="#FFFFFF" points="76.469,63.361 76.108,63.85 20.301,31.677 20.301,31.024 						
							"/>
					</g>
					<g>
						<defs>
							<path id="SVGID_112_" d="M78.756,42.262h-2.658c0,0.006,0.001,0.014,0.001,0.02c0,14.586-11.824,26.41-26.41,26.41
								s-26.411-11.824-26.411-26.41c0-14.571,11.801-26.385,26.366-26.409v-2.659c-16.033,0.023-29.023,13.028-29.023,29.067
								c0,16.054,13.013,29.068,29.068,29.068c16.054,0,29.067-13.016,29.067-29.068C78.756,42.276,78.756,42.268,78.756,42.262z"/>
						</defs>
						<clipPath id="SVGID_113_">
							<use xlink:href="#SVGID_112_"  overflow="visible"/>
						</clipPath>
						<polygon clip-path="url(#SVGID_113_)" fill="#FFFFFF" points="76.188,63.85 75.826,64.34 20.301,32.329 20.301,31.677 						
							"/>
					</g>
					<g>
						<defs>
							<path id="SVGID_114_" d="M78.756,42.262h-2.658c0,0.006,0.001,0.014,0.001,0.02c0,14.586-11.824,26.41-26.41,26.41
								s-26.411-11.824-26.411-26.41c0-14.571,11.801-26.385,26.366-26.409v-2.659c-16.033,0.023-29.023,13.028-29.023,29.067
								c0,16.054,13.013,29.068,29.068,29.068c16.054,0,29.067-13.016,29.067-29.068C78.756,42.276,78.756,42.268,78.756,42.262z"/>
						</defs>
						<clipPath id="SVGID_115_">
							<use xlink:href="#SVGID_114_"  overflow="visible"/>
						</clipPath>
						<polygon clip-path="url(#SVGID_115_)" fill="#FFFFFF" points="75.904,64.34 75.542,64.829 20.301,32.982 20.301,32.329 						
							"/>
					</g>
					<g>
						<defs>
							<path id="SVGID_116_" d="M78.756,42.262h-2.658c0,0.006,0.001,0.014,0.001,0.02c0,14.586-11.824,26.41-26.41,26.41
								s-26.411-11.824-26.411-26.41c0-14.571,11.801-26.385,26.366-26.409v-2.659c-16.033,0.023-29.023,13.028-29.023,29.067
								c0,16.054,13.013,29.068,29.068,29.068c16.054,0,29.067-13.016,29.067-29.068C78.756,42.276,78.756,42.268,78.756,42.262z"/>
						</defs>
						<clipPath id="SVGID_117_">
							<use xlink:href="#SVGID_116_"  overflow="visible"/>
						</clipPath>
						<polygon clip-path="url(#SVGID_117_)" fill="#FFFFFF" points="75.622,64.829 75.26,65.318 20.301,33.634 20.301,32.982 						
							"/>
					</g>
					<g>
						<defs>
							<path id="SVGID_118_" d="M78.756,42.262h-2.658c0,0.006,0.001,0.014,0.001,0.02c0,14.586-11.824,26.41-26.41,26.41
								s-26.411-11.824-26.411-26.41c0-14.571,11.801-26.385,26.366-26.409v-2.659c-16.033,0.023-29.023,13.028-29.023,29.067
								c0,16.054,13.013,29.068,29.068,29.068c16.054,0,29.067-13.016,29.067-29.068C78.756,42.276,78.756,42.268,78.756,42.262z"/>
						</defs>
						<clipPath id="SVGID_119_">
							<use xlink:href="#SVGID_118_"  overflow="visible"/>
						</clipPath>
						<polygon clip-path="url(#SVGID_119_)" fill="#FFFFFF" points="75.34,65.318 74.978,65.807 20.301,34.285 20.301,33.634 						
							"/>
					</g>
					<g>
						<defs>
							<path id="SVGID_120_" d="M78.756,42.262h-2.658c0,0.006,0.001,0.014,0.001,0.02c0,14.586-11.824,26.41-26.41,26.41
								s-26.411-11.824-26.411-26.41c0-14.571,11.801-26.385,26.366-26.409v-2.659c-16.033,0.023-29.023,13.028-29.023,29.067
								c0,16.054,13.013,29.068,29.068,29.068c16.054,0,29.067-13.016,29.067-29.068C78.756,42.276,78.756,42.268,78.756,42.262z"/>
						</defs>
						<clipPath id="SVGID_121_">
							<use xlink:href="#SVGID_120_"  overflow="visible"/>
						</clipPath>
						<polygon clip-path="url(#SVGID_121_)" fill="#FFFFFF" points="75.056,65.807 74.695,66.297 20.301,34.938 20.301,34.285 
													"/>
					</g>
					<g>
						<defs>
							<path id="SVGID_122_" d="M78.756,42.262h-2.658c0,0.006,0.001,0.014,0.001,0.02c0,14.586-11.824,26.41-26.41,26.41
								s-26.411-11.824-26.411-26.41c0-14.571,11.801-26.385,26.366-26.409v-2.659c-16.033,0.023-29.023,13.028-29.023,29.067
								c0,16.054,13.013,29.068,29.068,29.068c16.054,0,29.067-13.016,29.067-29.068C78.756,42.276,78.756,42.268,78.756,42.262z"/>
						</defs>
						<clipPath id="SVGID_123_">
							<use xlink:href="#SVGID_122_"  overflow="visible"/>
						</clipPath>
						<polygon clip-path="url(#SVGID_123_)" fill="#FFFFFF" points="74.773,66.297 74.412,66.785 20.301,35.592 20.301,34.938 
													"/>
					</g>
					<g>
						<defs>
							<path id="SVGID_124_" d="M78.756,42.262h-2.658c0,0.006,0.001,0.014,0.001,0.02c0,14.586-11.824,26.41-26.41,26.41
								s-26.411-11.824-26.411-26.41c0-14.571,11.801-26.385,26.366-26.409v-2.659c-16.033,0.023-29.023,13.028-29.023,29.067
								c0,16.054,13.013,29.068,29.068,29.068c16.054,0,29.067-13.016,29.067-29.068C78.756,42.276,78.756,42.268,78.756,42.262z"/>
						</defs>
						<clipPath id="SVGID_125_">
							<use xlink:href="#SVGID_124_"  overflow="visible"/>
						</clipPath>
						<polygon clip-path="url(#SVGID_125_)" fill="#FFFFFF" points="74.491,66.785 74.13,67.274 20.301,36.242 20.301,35.592 						
							"/>
					</g>
					<g>
						<defs>
							<path id="SVGID_126_" d="M78.756,42.262h-2.658c0,0.006,0.001,0.014,0.001,0.02c0,14.586-11.824,26.41-26.41,26.41
								s-26.411-11.824-26.411-26.41c0-14.571,11.801-26.385,26.366-26.409v-2.659c-16.033,0.023-29.023,13.028-29.023,29.067
								c0,16.054,13.013,29.068,29.068,29.068c16.054,0,29.067-13.016,29.067-29.068C78.756,42.276,78.756,42.268,78.756,42.262z"/>
						</defs>
						<clipPath id="SVGID_127_">
							<use xlink:href="#SVGID_126_"  overflow="visible"/>
						</clipPath>
						<polygon clip-path="url(#SVGID_127_)" fill="#FFFFFF" points="74.208,67.274 73.848,67.763 20.301,36.894 20.301,36.242 
													"/>
					</g>
					<g>
						<defs>
							<path id="SVGID_128_" d="M78.756,42.262h-2.658c0,0.006,0.001,0.014,0.001,0.02c0,14.586-11.824,26.41-26.41,26.41
								s-26.411-11.824-26.411-26.41c0-14.571,11.801-26.385,26.366-26.409v-2.659c-16.033,0.023-29.023,13.028-29.023,29.067
								c0,16.054,13.013,29.068,29.068,29.068c16.054,0,29.067-13.016,29.067-29.068C78.756,42.276,78.756,42.268,78.756,42.262z"/>
						</defs>
						<clipPath id="SVGID_129_">
							<use xlink:href="#SVGID_128_"  overflow="visible"/>
						</clipPath>
						<polygon clip-path="url(#SVGID_129_)" fill="#FFFFFF" points="73.927,67.763 73.566,68.253 20.301,37.547 20.301,36.894 
													"/>
					</g>
					<g>
						<defs>
							<path id="SVGID_130_" d="M78.756,42.262h-2.658c0,0.006,0.001,0.014,0.001,0.02c0,14.586-11.824,26.41-26.41,26.41
								s-26.411-11.824-26.411-26.41c0-14.571,11.801-26.385,26.366-26.409v-2.659c-16.033,0.023-29.023,13.028-29.023,29.067
								c0,16.054,13.013,29.068,29.068,29.068c16.054,0,29.067-13.016,29.067-29.068C78.756,42.276,78.756,42.268,78.756,42.262z"/>
						</defs>
						<clipPath id="SVGID_131_">
							<use xlink:href="#SVGID_130_"  overflow="visible"/>
						</clipPath>
						<polygon clip-path="url(#SVGID_131_)" fill="#FFFFFF" points="73.644,68.253 73.283,68.742 20.301,38.199 20.301,37.547 
													"/>
					</g>
					<g>
						<defs>
							<path id="SVGID_132_" d="M78.756,42.262h-2.658c0,0.006,0.001,0.014,0.001,0.02c0,14.586-11.824,26.41-26.41,26.41
								s-26.411-11.824-26.411-26.41c0-14.571,11.801-26.385,26.366-26.409v-2.659c-16.033,0.023-29.023,13.028-29.023,29.067
								c0,16.054,13.013,29.068,29.068,29.068c16.054,0,29.067-13.016,29.067-29.068C78.756,42.276,78.756,42.268,78.756,42.262z"/>
						</defs>
						<clipPath id="SVGID_133_">
							<use xlink:href="#SVGID_132_"  overflow="visible"/>
						</clipPath>
						<polygon clip-path="url(#SVGID_133_)" fill="#FFFFFF" points="73.361,68.742 73,69.231 20.301,38.852 20.301,38.199 						"/>
					</g>
					<g>
						<defs>
							<path id="SVGID_134_" d="M78.756,42.262h-2.658c0,0.006,0.001,0.014,0.001,0.02c0,14.586-11.824,26.41-26.41,26.41
								s-26.411-11.824-26.411-26.41c0-14.571,11.801-26.385,26.366-26.409v-2.659c-16.033,0.023-29.023,13.028-29.023,29.067
								c0,16.054,13.013,29.068,29.068,29.068c16.054,0,29.067-13.016,29.067-29.068C78.756,42.276,78.756,42.268,78.756,42.262z"/>
						</defs>
						<clipPath id="SVGID_135_">
							<use xlink:href="#SVGID_134_"  overflow="visible"/>
						</clipPath>
						<polygon clip-path="url(#SVGID_135_)" fill="#FFFFFF" points="73.081,69.231 72.719,69.721 20.301,39.503 20.301,38.852 
													"/>
					</g>
					<g>
						<defs>
							<path id="SVGID_136_" d="M78.756,42.262h-2.658c0,0.006,0.001,0.014,0.001,0.02c0,14.586-11.824,26.41-26.41,26.41
								s-26.411-11.824-26.411-26.41c0-14.571,11.801-26.385,26.366-26.409v-2.659c-16.033,0.023-29.023,13.028-29.023,29.067
								c0,16.054,13.013,29.068,29.068,29.068c16.054,0,29.067-13.016,29.067-29.068C78.756,42.276,78.756,42.268,78.756,42.262z"/>
						</defs>
						<clipPath id="SVGID_137_">
							<use xlink:href="#SVGID_136_"  overflow="visible"/>
						</clipPath>
						<polygon clip-path="url(#SVGID_137_)" fill="#FFFFFF" points="72.799,69.721 72.436,70.21 20.301,40.157 20.301,39.503 						
							"/>
					</g>
					<g>
						<defs>
							<path id="SVGID_138_" d="M78.756,42.262h-2.658c0,0.006,0.001,0.014,0.001,0.02c0,14.586-11.824,26.41-26.41,26.41
								s-26.411-11.824-26.411-26.41c0-14.571,11.801-26.385,26.366-26.409v-2.659c-16.033,0.023-29.023,13.028-29.023,29.067
								c0,16.054,13.013,29.068,29.068,29.068c16.054,0,29.067-13.016,29.067-29.068C78.756,42.276,78.756,42.268,78.756,42.262z"/>
						</defs>
						<clipPath id="SVGID_139_">
							<use xlink:href="#SVGID_138_"  overflow="visible"/>
						</clipPath>
						<polygon clip-path="url(#SVGID_139_)" fill="#FFFFFF" points="72.517,70.21 72.154,70.698 20.301,40.808 20.301,40.157 						
							"/>
					</g>
					<g>
						<defs>
							<path id="SVGID_140_" d="M78.756,42.262h-2.658c0,0.006,0.001,0.014,0.001,0.02c0,14.586-11.824,26.41-26.41,26.41
								s-26.411-11.824-26.411-26.41c0-14.571,11.801-26.385,26.366-26.409v-2.659c-16.033,0.023-29.023,13.028-29.023,29.067
								c0,16.054,13.013,29.068,29.068,29.068c16.054,0,29.067-13.016,29.067-29.068C78.756,42.276,78.756,42.268,78.756,42.262z"/>
						</defs>
						<clipPath id="SVGID_141_">
							<use xlink:href="#SVGID_140_"  overflow="visible"/>
						</clipPath>
						<polygon clip-path="url(#SVGID_141_)" fill="#FFFFFF" points="72.232,70.698 71.871,71.187 20.301,41.461 20.301,40.808 
													"/>
					</g>
					<g>
						<defs>
							<path id="SVGID_142_" d="M78.756,42.262h-2.658c0,0.006,0.001,0.014,0.001,0.02c0,14.586-11.824,26.41-26.41,26.41
								s-26.411-11.824-26.411-26.41c0-14.571,11.801-26.385,26.366-26.409v-2.659c-16.033,0.023-29.023,13.028-29.023,29.067
								c0,16.054,13.013,29.068,29.068,29.068c16.054,0,29.067-13.016,29.067-29.068C78.756,42.276,78.756,42.268,78.756,42.262z"/>
						</defs>
						<clipPath id="SVGID_143_">
							<use xlink:href="#SVGID_142_"  overflow="visible"/>
						</clipPath>
						<polygon clip-path="url(#SVGID_143_)" fill="#FFFFFF" points="71.95,71.289 72.016,71.553 71.263,71.553 20.301,42.112 
							20.301,41.461 						"/>
					</g>
					<g>
						<defs>
							<path id="SVGID_144_" d="M78.756,42.262h-2.658c0,0.006,0.001,0.014,0.001,0.02c0,14.586-11.824,26.41-26.41,26.41
								s-26.411-11.824-26.411-26.41c0-14.571,11.801-26.385,26.366-26.409v-2.659c-16.033,0.023-29.023,13.028-29.023,29.067
								c0,16.054,13.013,29.068,29.068,29.068c16.054,0,29.067-13.016,29.067-29.068C78.756,42.276,78.756,42.268,78.756,42.262z"/>
						</defs>
						<clipPath id="SVGID_145_">
							<use xlink:href="#SVGID_144_"  overflow="visible"/>
						</clipPath>
						<polygon clip-path="url(#SVGID_145_)" fill="#FFFFFF" points="70.132,71.553 20.301,42.764 20.301,42.112 71.263,71.553 
													"/>
					</g>
					<g>
						<defs>
							<path id="SVGID_146_" d="M78.756,42.262h-2.658c0,0.006,0.001,0.014,0.001,0.02c0,14.586-11.824,26.41-26.41,26.41
								s-26.411-11.824-26.411-26.41c0-14.571,11.801-26.385,26.366-26.409v-2.659c-16.033,0.023-29.023,13.028-29.023,29.067
								c0,16.054,13.013,29.068,29.068,29.068c16.054,0,29.067-13.016,29.067-29.068C78.756,42.276,78.756,42.268,78.756,42.262z"/>
						</defs>
						<clipPath id="SVGID_147_">
							<use xlink:href="#SVGID_146_"  overflow="visible"/>
						</clipPath>
						<polygon clip-path="url(#SVGID_147_)" fill="#FFFFFF" points="69.003,71.553 20.301,43.418 20.301,42.764 70.132,71.553 
													"/>
					</g>
					<g>
						<defs>
							<path id="SVGID_148_" d="M78.756,42.262h-2.658c0,0.006,0.001,0.014,0.001,0.02c0,14.586-11.824,26.41-26.41,26.41
								s-26.411-11.824-26.411-26.41c0-14.571,11.801-26.385,26.366-26.409v-2.659c-16.033,0.023-29.023,13.028-29.023,29.067
								c0,16.054,13.013,29.068,29.068,29.068c16.054,0,29.067-13.016,29.067-29.068C78.756,42.276,78.756,42.268,78.756,42.262z"/>
						</defs>
						<clipPath id="SVGID_149_">
							<use xlink:href="#SVGID_148_"  overflow="visible"/>
						</clipPath>
						<polygon clip-path="url(#SVGID_149_)" fill="#FFFFFF" points="67.874,71.553 20.301,44.07 20.301,43.418 69.003,71.553 						
							"/>
					</g>
					<g>
						<defs>
							<path id="SVGID_150_" d="M78.756,42.262h-2.658c0,0.006,0.001,0.014,0.001,0.02c0,14.586-11.824,26.41-26.41,26.41
								s-26.411-11.824-26.411-26.41c0-14.571,11.801-26.385,26.366-26.409v-2.659c-16.033,0.023-29.023,13.028-29.023,29.067
								c0,16.054,13.013,29.068,29.068,29.068c16.054,0,29.067-13.016,29.067-29.068C78.756,42.276,78.756,42.268,78.756,42.262z"/>
						</defs>
						<clipPath id="SVGID_151_">
							<use xlink:href="#SVGID_150_"  overflow="visible"/>
						</clipPath>
						<polygon clip-path="url(#SVGID_151_)" fill="#FFFFFF" points="66.743,71.553 20.301,44.721 20.301,44.07 67.874,71.553 						
							"/>
					</g>
					<g>
						<defs>
							<path id="SVGID_152_" d="M78.756,42.262h-2.658c0,0.006,0.001,0.014,0.001,0.02c0,14.586-11.824,26.41-26.41,26.41
								s-26.411-11.824-26.411-26.41c0-14.571,11.801-26.385,26.366-26.409v-2.659c-16.033,0.023-29.023,13.028-29.023,29.067
								c0,16.054,13.013,29.068,29.068,29.068c16.054,0,29.067-13.016,29.067-29.068C78.756,42.276,78.756,42.268,78.756,42.262z"/>
						</defs>
						<clipPath id="SVGID_153_">
							<use xlink:href="#SVGID_152_"  overflow="visible"/>
						</clipPath>
						<polygon clip-path="url(#SVGID_153_)" fill="#FFFFFF" points="65.613,71.553 20.301,45.373 20.301,44.721 66.743,71.553 
													"/>
					</g>
					<g>
						<defs>
							<path id="SVGID_154_" d="M78.756,42.262h-2.658c0,0.006,0.001,0.014,0.001,0.02c0,14.586-11.824,26.41-26.41,26.41
								s-26.411-11.824-26.411-26.41c0-14.571,11.801-26.385,26.366-26.409v-2.659c-16.033,0.023-29.023,13.028-29.023,29.067
								c0,16.054,13.013,29.068,29.068,29.068c16.054,0,29.067-13.016,29.067-29.068C78.756,42.276,78.756,42.268,78.756,42.262z"/>
						</defs>
						<clipPath id="SVGID_155_">
							<use xlink:href="#SVGID_154_"  overflow="visible"/>
						</clipPath>
						<polygon clip-path="url(#SVGID_155_)" fill="#FFFFFF" points="64.485,71.553 20.301,46.025 20.301,45.373 65.613,71.553 
													"/>
					</g>
					<g>
						<defs>
							<path id="SVGID_156_" d="M78.756,42.262h-2.658c0,0.006,0.001,0.014,0.001,0.02c0,14.586-11.824,26.41-26.41,26.41
								s-26.411-11.824-26.411-26.41c0-14.571,11.801-26.385,26.366-26.409v-2.659c-16.033,0.023-29.023,13.028-29.023,29.067
								c0,16.054,13.013,29.068,29.068,29.068c16.054,0,29.067-13.016,29.067-29.068C78.756,42.276,78.756,42.268,78.756,42.262z"/>
						</defs>
						<clipPath id="SVGID_157_">
							<use xlink:href="#SVGID_156_"  overflow="visible"/>
						</clipPath>
						<polygon clip-path="url(#SVGID_157_)" fill="#FFFFFF" points="63.354,71.553 20.301,46.678 20.301,46.025 64.485,71.553 
													"/>
					</g>
					<g>
						<defs>
							<path id="SVGID_158_" d="M78.756,42.262h-2.658c0,0.006,0.001,0.014,0.001,0.02c0,14.586-11.824,26.41-26.41,26.41
								s-26.411-11.824-26.411-26.41c0-14.571,11.801-26.385,26.366-26.409v-2.659c-16.033,0.023-29.023,13.028-29.023,29.067
								c0,16.054,13.013,29.068,29.068,29.068c16.054,0,29.067-13.016,29.067-29.068C78.756,42.276,78.756,42.268,78.756,42.262z"/>
						</defs>
						<clipPath id="SVGID_159_">
							<use xlink:href="#SVGID_158_"  overflow="visible"/>
						</clipPath>
						<polygon clip-path="url(#SVGID_159_)" fill="#FFFFFF" points="62.226,71.553 20.301,47.331 20.301,46.678 63.354,71.553 
													"/>
					</g>
					<g>
						<defs>
							<path id="SVGID_160_" d="M78.756,42.262h-2.658c0,0.006,0.001,0.014,0.001,0.02c0,14.586-11.824,26.41-26.41,26.41
								s-26.411-11.824-26.411-26.41c0-14.571,11.801-26.385,26.366-26.409v-2.659c-16.033,0.023-29.023,13.028-29.023,29.067
								c0,16.054,13.013,29.068,29.068,29.068c16.054,0,29.067-13.016,29.067-29.068C78.756,42.276,78.756,42.268,78.756,42.262z"/>
						</defs>
						<clipPath id="SVGID_161_">
							<use xlink:href="#SVGID_160_"  overflow="visible"/>
						</clipPath>
						<polygon clip-path="url(#SVGID_161_)" fill="#FFFFFF" points="61.095,71.553 20.301,47.982 20.301,47.331 62.226,71.553 
													"/>
					</g>
					<g>
						<defs>
							<path id="SVGID_162_" d="M78.756,42.262h-2.658c0,0.006,0.001,0.014,0.001,0.02c0,14.586-11.824,26.41-26.41,26.41
								s-26.411-11.824-26.411-26.41c0-14.571,11.801-26.385,26.366-26.409v-2.659c-16.033,0.023-29.023,13.028-29.023,29.067
								c0,16.054,13.013,29.068,29.068,29.068c16.054,0,29.067-13.016,29.067-29.068C78.756,42.276,78.756,42.268,78.756,42.262z"/>
						</defs>
						<clipPath id="SVGID_163_">
							<use xlink:href="#SVGID_162_"  overflow="visible"/>
						</clipPath>
						<polygon clip-path="url(#SVGID_163_)" fill="#FFFFFF" points="59.966,71.553 20.301,48.635 20.301,47.982 61.095,71.553 
													"/>
					</g>
					<g>
						<defs>
							<path id="SVGID_164_" d="M78.756,42.262h-2.658c0,0.006,0.001,0.014,0.001,0.02c0,14.586-11.824,26.41-26.41,26.41
								s-26.411-11.824-26.411-26.41c0-14.571,11.801-26.385,26.366-26.409v-2.659c-16.033,0.023-29.023,13.028-29.023,29.067
								c0,16.054,13.013,29.068,29.068,29.068c16.054,0,29.067-13.016,29.067-29.068C78.756,42.276,78.756,42.268,78.756,42.262z"/>
						</defs>
						<clipPath id="SVGID_165_">
							<use xlink:href="#SVGID_164_"  overflow="visible"/>
						</clipPath>
						<polygon clip-path="url(#SVGID_165_)" fill="#FFFFFF" points="58.834,71.553 20.301,49.287 20.301,48.635 59.966,71.553 
													"/>
					</g>
					<g>
						<defs>
							<path id="SVGID_166_" d="M78.756,42.262h-2.658c0,0.006,0.001,0.014,0.001,0.02c0,14.586-11.824,26.41-26.41,26.41
								s-26.411-11.824-26.411-26.41c0-14.571,11.801-26.385,26.366-26.409v-2.659c-16.033,0.023-29.023,13.028-29.023,29.067
								c0,16.054,13.013,29.068,29.068,29.068c16.054,0,29.067-13.016,29.067-29.068C78.756,42.276,78.756,42.268,78.756,42.262z"/>
						</defs>
						<clipPath id="SVGID_167_">
							<use xlink:href="#SVGID_166_"  overflow="visible"/>
						</clipPath>
						<polygon clip-path="url(#SVGID_167_)" fill="#FFFFFF" points="57.707,71.553 20.301,49.939 20.301,49.287 58.834,71.553 
													"/>
					</g>
					<g>
						<defs>
							<path id="SVGID_168_" d="M78.756,42.262h-2.658c0,0.006,0.001,0.014,0.001,0.02c0,14.586-11.824,26.41-26.41,26.41
								s-26.411-11.824-26.411-26.41c0-14.571,11.801-26.385,26.366-26.409v-2.659c-16.033,0.023-29.023,13.028-29.023,29.067
								c0,16.054,13.013,29.068,29.068,29.068c16.054,0,29.067-13.016,29.067-29.068C78.756,42.276,78.756,42.268,78.756,42.262z"/>
						</defs>
						<clipPath id="SVGID_169_">
							<use xlink:href="#SVGID_168_"  overflow="visible"/>
						</clipPath>
						<polygon clip-path="url(#SVGID_169_)" fill="#FFFFFF" points="56.576,71.553 20.301,50.592 20.301,49.939 57.707,71.553 
													"/>
					</g>
					<g>
						<defs>
							<path id="SVGID_170_" d="M78.756,42.262h-2.658c0,0.006,0.001,0.014,0.001,0.02c0,14.586-11.824,26.41-26.41,26.41
								s-26.411-11.824-26.411-26.41c0-14.571,11.801-26.385,26.366-26.409v-2.659c-16.033,0.023-29.023,13.028-29.023,29.067
								c0,16.054,13.013,29.068,29.068,29.068c16.054,0,29.067-13.016,29.067-29.068C78.756,42.276,78.756,42.268,78.756,42.262z"/>
						</defs>
						<clipPath id="SVGID_171_">
							<use xlink:href="#SVGID_170_"  overflow="visible"/>
						</clipPath>
						<polygon clip-path="url(#SVGID_171_)" fill="#FFFFFF" points="55.445,71.553 20.301,51.244 20.301,50.592 56.576,71.553 
													"/>
					</g>
					<g>
						<defs>
							<path id="SVGID_172_" d="M78.756,42.262h-2.658c0,0.006,0.001,0.014,0.001,0.02c0,14.586-11.824,26.41-26.41,26.41
								s-26.411-11.824-26.411-26.41c0-14.571,11.801-26.385,26.366-26.409v-2.659c-16.033,0.023-29.023,13.028-29.023,29.067
								c0,16.054,13.013,29.068,29.068,29.068c16.054,0,29.067-13.016,29.067-29.068C78.756,42.276,78.756,42.268,78.756,42.262z"/>
						</defs>
						<clipPath id="SVGID_173_">
							<use xlink:href="#SVGID_172_"  overflow="visible"/>
						</clipPath>
						<polygon clip-path="url(#SVGID_173_)" fill="#FFFFFF" points="54.317,71.553 20.301,51.895 20.301,51.244 55.445,71.553 
													"/>
					</g>
					<g>
						<defs>
							<path id="SVGID_174_" d="M78.756,42.262h-2.658c0,0.006,0.001,0.014,0.001,0.02c0,14.586-11.824,26.41-26.41,26.41
								s-26.411-11.824-26.411-26.41c0-14.571,11.801-26.385,26.366-26.409v-2.659c-16.033,0.023-29.023,13.028-29.023,29.067
								c0,16.054,13.013,29.068,29.068,29.068c16.054,0,29.067-13.016,29.067-29.068C78.756,42.276,78.756,42.268,78.756,42.262z"/>
						</defs>
						<clipPath id="SVGID_175_">
							<use xlink:href="#SVGID_174_"  overflow="visible"/>
						</clipPath>
						<polygon clip-path="url(#SVGID_175_)" fill="#FFFFFF" points="53.188,71.553 20.301,52.548 20.301,51.895 54.317,71.553 
													"/>
					</g>
					<g>
						<defs>
							<path id="SVGID_176_" d="M78.756,42.262h-2.658c0,0.006,0.001,0.014,0.001,0.02c0,14.586-11.824,26.41-26.41,26.41
								s-26.411-11.824-26.411-26.41c0-14.571,11.801-26.385,26.366-26.409v-2.659c-16.033,0.023-29.023,13.028-29.023,29.067
								c0,16.054,13.013,29.068,29.068,29.068c16.054,0,29.067-13.016,29.067-29.068C78.756,42.276,78.756,42.268,78.756,42.262z"/>
						</defs>
						<clipPath id="SVGID_177_">
							<use xlink:href="#SVGID_176_"  overflow="visible"/>
						</clipPath>
						<polygon clip-path="url(#SVGID_177_)" fill="#FFFFFF" points="52.057,71.553 20.301,53.201 20.301,52.548 53.188,71.553 
													"/>
					</g>
					<g>
						<defs>
							<path id="SVGID_178_" d="M78.756,42.262h-2.658c0,0.006,0.001,0.014,0.001,0.02c0,14.586-11.824,26.41-26.41,26.41
								s-26.411-11.824-26.411-26.41c0-14.571,11.801-26.385,26.366-26.409v-2.659c-16.033,0.023-29.023,13.028-29.023,29.067
								c0,16.054,13.013,29.068,29.068,29.068c16.054,0,29.067-13.016,29.067-29.068C78.756,42.276,78.756,42.268,78.756,42.262z"/>
						</defs>
						<clipPath id="SVGID_179_">
							<use xlink:href="#SVGID_178_"  overflow="visible"/>
						</clipPath>
						<polygon clip-path="url(#SVGID_179_)" fill="#FFFFFF" points="50.928,71.553 20.301,53.852 20.301,53.201 52.057,71.553 
													"/>
					</g>
					<g>
						<defs>
							<path id="SVGID_180_" d="M78.756,42.262h-2.658c0,0.006,0.001,0.014,0.001,0.02c0,14.586-11.824,26.41-26.41,26.41
								s-26.411-11.824-26.411-26.41c0-14.571,11.801-26.385,26.366-26.409v-2.659c-16.033,0.023-29.023,13.028-29.023,29.067
								c0,16.054,13.013,29.068,29.068,29.068c16.054,0,29.067-13.016,29.067-29.068C78.756,42.276,78.756,42.268,78.756,42.262z"/>
						</defs>
						<clipPath id="SVGID_181_">
							<use xlink:href="#SVGID_180_"  overflow="visible"/>
						</clipPath>
						<polygon clip-path="url(#SVGID_181_)" fill="#FFFFFF" points="49.798,71.553 20.301,54.505 20.301,53.852 50.928,71.553 
													"/>
					</g>
					<g>
						<defs>
							<path id="SVGID_182_" d="M78.756,42.262h-2.658c0,0.006,0.001,0.014,0.001,0.02c0,14.586-11.824,26.41-26.41,26.41
								s-26.411-11.824-26.411-26.41c0-14.571,11.801-26.385,26.366-26.409v-2.659c-16.033,0.023-29.023,13.028-29.023,29.067
								c0,16.054,13.013,29.068,29.068,29.068c16.054,0,29.067-13.016,29.067-29.068C78.756,42.276,78.756,42.268,78.756,42.262z"/>
						</defs>
						<clipPath id="SVGID_183_">
							<use xlink:href="#SVGID_182_"  overflow="visible"/>
						</clipPath>
						<polygon clip-path="url(#SVGID_183_)" fill="#FFFFFF" points="48.668,71.553 20.301,55.156 20.301,54.505 49.798,71.553 
													"/>
					</g>
					<g>
						<defs>
							<path id="SVGID_184_" d="M78.756,42.262h-2.658c0,0.006,0.001,0.014,0.001,0.02c0,14.586-11.824,26.41-26.41,26.41
								s-26.411-11.824-26.411-26.41c0-14.571,11.801-26.385,26.366-26.409v-2.659c-16.033,0.023-29.023,13.028-29.023,29.067
								c0,16.054,13.013,29.068,29.068,29.068c16.054,0,29.067-13.016,29.067-29.068C78.756,42.276,78.756,42.268,78.756,42.262z"/>
						</defs>
						<clipPath id="SVGID_185_">
							<use xlink:href="#SVGID_184_"  overflow="visible"/>
						</clipPath>
						<polygon clip-path="url(#SVGID_185_)" fill="#FFFFFF" points="47.539,71.553 20.301,55.808 20.301,55.156 48.668,71.553 
													"/>
					</g>
					<g>
						<defs>
							<path id="SVGID_186_" d="M78.756,42.262h-2.658c0,0.006,0.001,0.014,0.001,0.02c0,14.586-11.824,26.41-26.41,26.41
								s-26.411-11.824-26.411-26.41c0-14.571,11.801-26.385,26.366-26.409v-2.659c-16.033,0.023-29.023,13.028-29.023,29.067
								c0,16.054,13.013,29.068,29.068,29.068c16.054,0,29.067-13.016,29.067-29.068C78.756,42.276,78.756,42.268,78.756,42.262z"/>
						</defs>
						<clipPath id="SVGID_187_">
							<use xlink:href="#SVGID_186_"  overflow="visible"/>
						</clipPath>
						<polygon clip-path="url(#SVGID_187_)" fill="#FFFFFF" points="46.409,71.553 20.301,56.462 20.301,55.808 47.539,71.553 
													"/>
					</g>
					<g>
						<defs>
							<path id="SVGID_188_" d="M78.756,42.262h-2.658c0,0.006,0.001,0.014,0.001,0.02c0,14.586-11.824,26.41-26.41,26.41
								s-26.411-11.824-26.411-26.41c0-14.571,11.801-26.385,26.366-26.409v-2.659c-16.033,0.023-29.023,13.028-29.023,29.067
								c0,16.054,13.013,29.068,29.068,29.068c16.054,0,29.067-13.016,29.067-29.068C78.756,42.276,78.756,42.268,78.756,42.262z"/>
						</defs>
						<clipPath id="SVGID_189_">
							<use xlink:href="#SVGID_188_"  overflow="visible"/>
						</clipPath>
						<polygon clip-path="url(#SVGID_189_)" fill="#FFFFFF" points="45.279,71.553 20.301,57.114 20.301,56.462 46.409,71.553 
													"/>
					</g>
					<g>
						<defs>
							<path id="SVGID_190_" d="M78.756,42.262h-2.658c0,0.006,0.001,0.014,0.001,0.02c0,14.586-11.824,26.41-26.41,26.41
								s-26.411-11.824-26.411-26.41c0-14.571,11.801-26.385,26.366-26.409v-2.659c-16.033,0.023-29.023,13.028-29.023,29.067
								c0,16.054,13.013,29.068,29.068,29.068c16.054,0,29.067-13.016,29.067-29.068C78.756,42.276,78.756,42.268,78.756,42.262z"/>
						</defs>
						<clipPath id="SVGID_191_">
							<use xlink:href="#SVGID_190_"  overflow="visible"/>
						</clipPath>
						<polygon clip-path="url(#SVGID_191_)" fill="#FFFFFF" points="44.149,71.553 20.301,57.765 20.301,57.114 45.279,71.553 
													"/>
					</g>
					<g>
						<defs>
							<path id="SVGID_192_" d="M78.756,42.262h-2.658c0,0.006,0.001,0.014,0.001,0.02c0,14.586-11.824,26.41-26.41,26.41
								s-26.411-11.824-26.411-26.41c0-14.571,11.801-26.385,26.366-26.409v-2.659c-16.033,0.023-29.023,13.028-29.023,29.067
								c0,16.054,13.013,29.068,29.068,29.068c16.054,0,29.067-13.016,29.067-29.068C78.756,42.276,78.756,42.268,78.756,42.262z"/>
						</defs>
						<clipPath id="SVGID_193_">
							<use xlink:href="#SVGID_192_"  overflow="visible"/>
						</clipPath>
						<polygon clip-path="url(#SVGID_193_)" fill="#FFFFFF" points="43.021,71.553 20.301,58.418 20.301,57.765 44.149,71.553 
													"/>
					</g>
					<g>
						<defs>
							<path id="SVGID_194_" d="M78.756,42.262h-2.658c0,0.006,0.001,0.014,0.001,0.02c0,14.586-11.824,26.41-26.41,26.41
								s-26.411-11.824-26.411-26.41c0-14.571,11.801-26.385,26.366-26.409v-2.659c-16.033,0.023-29.023,13.028-29.023,29.067
								c0,16.054,13.013,29.068,29.068,29.068c16.054,0,29.067-13.016,29.067-29.068C78.756,42.276,78.756,42.268,78.756,42.262z"/>
						</defs>
						<clipPath id="SVGID_195_">
							<use xlink:href="#SVGID_194_"  overflow="visible"/>
						</clipPath>
						<polygon clip-path="url(#SVGID_195_)" fill="#FFFFFF" points="41.891,71.553 20.301,59.07 20.301,58.418 43.021,71.553 						
							"/>
					</g>
					<g>
						<defs>
							<path id="SVGID_196_" d="M78.756,42.262h-2.658c0,0.006,0.001,0.014,0.001,0.02c0,14.586-11.824,26.41-26.41,26.41
								s-26.411-11.824-26.411-26.41c0-14.571,11.801-26.385,26.366-26.409v-2.659c-16.033,0.023-29.023,13.028-29.023,29.067
								c0,16.054,13.013,29.068,29.068,29.068c16.054,0,29.067-13.016,29.067-29.068C78.756,42.276,78.756,42.268,78.756,42.262z"/>
						</defs>
						<clipPath id="SVGID_197_">
							<use xlink:href="#SVGID_196_"  overflow="visible"/>
						</clipPath>
						<polygon clip-path="url(#SVGID_197_)" fill="#FFFFFF" points="20.301,59.07 41.891,71.553 20.301,71.553 						"/>
					</g>
				</g>
			</g>
		</g>
		<g>
			<path fill="#FFFFFF" d="M63.164,42.66l-12.707-1.146l-1.145-12.706L59.9,18.219l14.753-0.903L73.751,32.07L63.164,42.66z
				 M53.542,38.428l8.361,0.753l8.582-8.582l0.594-9.708l-9.708,0.594l-8.583,8.582L53.542,38.428z"/>
		</g>
	</g>
</g>
</svg>
