<?xml version="1.0" encoding="utf-8"?>
<!-- Generator: Adobe Illustrator 16.0.0, SVG Export Plug-In . SVG Version: 6.00 Build 0)  -->
<!DOCTYPE svg PUBLIC "-//W3C//DTD SVG 1.1//EN" "http://www.w3.org/Graphics/SVG/1.1/DTD/svg11.dtd">
<svg version="1.1"
	 id="svg2" xmlns:svg="http://www.w3.org/2000/svg" xmlns:cc="http://creativecommons.org/ns#" xmlns:rdf="http://www.w3.org/1999/02/22-rdf-syntax-ns#" xmlns:dc="http://purl.org/dc/elements/1.1/"
	 xmlns="http://www.w3.org/2000/svg" xmlns:xlink="http://www.w3.org/1999/xlink" x="0px" y="0px" width="385.912px"
	 height="122.418px" viewBox="0 0 385.912 122.418" enable-background="new 0 0 385.912 122.418" xml:space="preserve">
<g>
	<g>
		<path fill="#604C3F" stroke="#604C3F" stroke-width="0.6731" stroke-miterlimit="10" d="M159.251,105.314
			c0,1.382,0.208,2.616,0.619,3.708c0.415,1.091,0.982,2.012,1.707,2.768c0.723,0.757,1.581,1.333,2.57,1.732
			c0.993,0.4,2.066,0.599,3.221,0.599c0.686,0,1.349-0.133,1.986-0.401c0.639-0.268,1.232-0.615,1.783-1.042
			c0.55-0.426,1.041-0.911,1.475-1.45c0.43-0.54,0.788-1.088,1.069-1.643l1.38,0.888c-0.404,0.658-0.88,1.29-1.431,1.901
			s-1.186,1.148-1.909,1.614c-0.723,0.465-1.54,0.839-2.451,1.121c-0.912,0.281-1.933,0.422-3.058,0.422
			c-1.082,0-2.099-0.124-3.059-0.374c-0.956-0.248-1.836-0.597-2.64-1.041c-0.805-0.447-1.523-0.986-2.155-1.614
			c-0.638-0.628-1.171-1.321-1.608-2.079c-0.438-0.754-0.771-1.565-1.008-2.429c-0.233-0.864-0.351-1.757-0.351-2.68
			c0-0.919,0.119-1.814,0.359-2.684c0.237-0.867,0.58-1.684,1.029-2.449c0.445-0.768,0.991-1.468,1.64-2.108
			c0.648-0.638,1.38-1.187,2.192-1.642c0.812-0.454,1.703-0.809,2.67-1.064c0.967-0.252,2.001-0.378,3.1-0.378
			c1.043,0,2.003,0.142,2.879,0.421c0.88,0.283,1.683,0.656,2.411,1.121c0.727,0.465,1.373,1.004,1.937,1.612
			c0.565,0.611,1.049,1.245,1.453,1.902l-1.423,0.958c-0.826-1.586-1.747-2.751-2.763-3.494c-1.014-0.741-2.177-1.112-3.493-1.112
			c-1.136,0-2.198,0.208-3.185,0.619c-0.986,0.415-1.846,1.006-2.578,1.775c-0.734,0.771-1.312,1.705-1.734,2.806
			C159.462,102.696,159.251,103.935,159.251,105.314z"/>
		<path fill="#604C3F" stroke="#604C3F" stroke-width="0.6731" stroke-miterlimit="10" d="M181.442,99.933v10.766
			c0,0.374,0.089,0.729,0.262,1.063c0.174,0.334,0.409,0.623,0.711,0.865c0.3,0.246,0.654,0.439,1.056,0.586
			c0.404,0.146,0.837,0.219,1.297,0.219c0.3,0,0.621-0.065,0.958-0.191c0.337-0.126,0.671-0.304,0.993-0.53
			c0.323-0.224,0.63-0.485,0.916-0.779c0.287-0.295,0.524-0.613,0.711-0.951V99.933h3.002v15.133h-3.002v-2.833
			c-0.263,0.434-0.593,0.841-0.993,1.227c-0.398,0.386-0.832,0.721-1.295,1.008c-0.467,0.285-0.945,0.512-1.438,0.677
			c-0.493,0.165-0.96,0.246-1.403,0.246c-0.656,0-1.277-0.126-1.858-0.374c-0.582-0.248-1.092-0.586-1.521-1.008
			c-0.432-0.423-0.772-0.918-1.022-1.486c-0.249-0.567-0.375-1.177-0.375-1.823V99.933H181.442z"/>
		<path fill="#604C3F" stroke="#604C3F" stroke-width="0.6731" stroke-miterlimit="10" d="M198.011,115.066h-3V93.043l2.141-0.859
			h0.859V115.066z"/>
		<path fill="#604C3F" stroke="#604C3F" stroke-width="0.6731" stroke-miterlimit="10" d="M209.735,113.137
			c-0.403,0.693-0.938,1.243-1.608,1.646c-0.665,0.405-1.487,0.607-2.462,0.607c-0.508,0-0.949-0.085-1.319-0.256
			c-0.371-0.167-0.677-0.407-0.923-0.715c-0.245-0.312-0.425-0.682-0.541-1.115c-0.119-0.431-0.178-0.91-0.178-1.438V101.2h-2.621
			v-0.745c0.848,0,1.54-0.152,2.087-0.46c0.545-0.304,0.989-0.719,1.338-1.239s0.621-1.125,0.819-1.811
			c0.196-0.686,0.368-1.414,0.521-2.183h0.857v5.17h3.396v1.268h-3.396v10.665c0,0.227,0.043,0.438,0.128,0.636
			c0.084,0.198,0.198,0.369,0.345,0.514c0.146,0.146,0.321,0.263,0.521,0.345c0.202,0.085,0.415,0.127,0.642,0.127
			c0.339,0,0.646-0.083,0.923-0.246c0.277-0.165,0.519-0.367,0.727-0.613L209.735,113.137z"/>
		<path fill="#604C3F" stroke="#604C3F" stroke-width="0.6731" stroke-miterlimit="10" d="M214.553,99.933v10.766
			c0,0.374,0.089,0.729,0.261,1.063c0.175,0.334,0.411,0.623,0.712,0.865c0.3,0.246,0.654,0.439,1.056,0.586
			c0.404,0.146,0.838,0.219,1.298,0.219c0.3,0,0.62-0.065,0.959-0.191c0.336-0.126,0.669-0.304,0.992-0.53
			c0.324-0.224,0.63-0.485,0.915-0.779c0.287-0.295,0.526-0.613,0.713-0.951V99.933h3v15.133h-3v-2.833
			c-0.263,0.434-0.595,0.841-0.995,1.227c-0.398,0.386-0.832,0.721-1.295,1.008c-0.465,0.285-0.945,0.512-1.438,0.677
			c-0.491,0.165-0.96,0.246-1.401,0.246c-0.657,0-1.276-0.126-1.86-0.374s-1.09-0.586-1.521-1.008
			c-0.432-0.423-0.772-0.918-1.022-1.486c-0.248-0.567-0.372-1.177-0.372-1.823V99.933H214.553z"/>
		<path fill="#604C3F" stroke="#604C3F" stroke-width="0.6731" stroke-miterlimit="10" d="M227.981,99.933h2.987v2.86
			c0.291-0.422,0.604-0.826,0.943-1.212c0.339-0.385,0.692-0.723,1.058-1.015c0.365-0.291,0.743-0.521,1.135-0.689
			c0.389-0.171,0.787-0.256,1.189-0.256c0.328,0,0.634,0.052,0.915,0.15c0.283,0.098,0.53,0.229,0.741,0.395
			c0.211,0.163,0.378,0.355,0.5,0.578c0.123,0.221,0.184,0.452,0.184,0.696c0,0.489-0.153,0.856-0.459,1.106
			c-0.305,0.248-0.729,0.372-1.275,0.372c-0.337,0-0.607-0.033-0.81-0.105c-0.202-0.068-0.386-0.149-0.549-0.239
			c-0.165-0.089-0.331-0.17-0.5-0.238c-0.171-0.072-0.382-0.105-0.634-0.105c-0.2,0-0.396,0.059-0.601,0.174
			c-0.2,0.118-0.403,0.283-0.604,0.494c-0.202,0.212-0.408,0.46-0.615,0.747c-0.206,0.287-0.411,0.597-0.619,0.938v10.482h-2.987
			V99.933z"/>
		<path fill="#604C3F" stroke="#604C3F" stroke-width="0.6731" stroke-miterlimit="10" d="M250.707,115.066h-3.015v-2.071
			c-0.355,0.272-0.708,0.55-1.05,0.832c-0.344,0.281-0.714,0.541-1.114,0.774c-0.396,0.235-0.839,0.424-1.323,0.57
			c-0.483,0.145-1.045,0.219-1.684,0.219c-0.592,0-1.127-0.097-1.605-0.289c-0.479-0.192-0.889-0.459-1.227-0.797
			c-0.339-0.337-0.597-0.737-0.774-1.196c-0.18-0.46-0.269-0.959-0.269-1.494c0-0.648,0.128-1.234,0.388-1.755
			c0.257-0.521,0.611-0.987,1.056-1.402c0.446-0.411,0.968-0.778,1.566-1.097c0.596-0.321,1.227-0.608,1.894-0.86
			c0.667-0.254,1.356-0.479,2.063-0.676c0.71-0.198,1.403-0.382,2.079-0.551v-0.945c0-0.686-0.068-1.264-0.203-1.737
			c-0.138-0.475-0.332-0.858-0.584-1.149c-0.256-0.293-0.563-0.5-0.925-0.626c-0.361-0.128-0.768-0.191-1.219-0.191
			c-0.508,0-0.92,0.065-1.24,0.197c-0.318,0.131-0.57,0.306-0.754,0.521c-0.182,0.219-0.308,0.463-0.371,0.741
			c-0.068,0.277-0.102,0.556-0.102,0.837c0,0.264-0.021,0.52-0.063,0.76c-0.041,0.247-0.119,0.46-0.232,0.644
			c-0.112,0.184-0.265,0.331-0.457,0.442c-0.193,0.113-0.439,0.171-0.739,0.171c-0.237,0-0.45-0.045-0.642-0.134
			c-0.192-0.089-0.359-0.215-0.5-0.374c-0.143-0.159-0.248-0.349-0.324-0.563c-0.074-0.217-0.113-0.452-0.113-0.704
			c0-0.498,0.163-0.964,0.493-1.396c0.329-0.432,0.769-0.806,1.323-1.121c0.556-0.314,1.204-0.563,1.947-0.746
			c0.741-0.184,1.521-0.276,2.338-0.276c0.995,0,1.835,0.1,2.521,0.291c0.686,0.19,1.239,0.461,1.664,0.81
			c0.422,0.349,0.728,0.771,0.915,1.268c0.189,0.5,0.281,1.049,0.281,1.649V115.066z M247.693,106.245
			c-0.434,0.142-0.88,0.303-1.347,0.479c-0.463,0.18-0.919,0.38-1.364,0.599c-0.448,0.222-0.872,0.461-1.274,0.719
			c-0.406,0.26-0.76,0.533-1.063,0.826c-0.306,0.289-0.549,0.601-0.729,0.929c-0.178,0.328-0.267,0.673-0.267,1.028
			c0,0.367,0.068,0.715,0.204,1.049c0.135,0.333,0.318,0.626,0.544,0.874c0.223,0.249,0.484,0.447,0.78,0.592
			c0.295,0.146,0.603,0.22,0.923,0.22c0.338,0,0.66-0.046,0.966-0.135c0.304-0.089,0.602-0.209,0.888-0.359
			c0.287-0.15,0.572-0.326,0.859-0.528c0.285-0.204,0.578-0.415,0.88-0.641V106.245z"/>
		<path fill="#604C3F" stroke="#604C3F" stroke-width="0.6731" stroke-miterlimit="10" d="M257.865,115.066h-3.002V93.043
			l2.143-0.859h0.859V115.066z"/>
		<path fill="#604C3F" stroke="#604C3F" stroke-width="0.6731" stroke-miterlimit="10" d="M270.688,95.438h3.297v18.358h9.877v1.27
			h-13.174V95.438z"/>
		<path fill="#604C3F" stroke="#604C3F" stroke-width="0.6731" stroke-miterlimit="10" d="M297.049,115.066h-3.016v-2.071
			c-0.355,0.272-0.707,0.55-1.051,0.832c-0.342,0.281-0.711,0.541-1.111,0.774c-0.398,0.235-0.841,0.424-1.325,0.57
			c-0.483,0.145-1.045,0.219-1.684,0.219c-0.592,0-1.127-0.097-1.604-0.289c-0.48-0.192-0.89-0.459-1.228-0.797
			c-0.337-0.337-0.597-0.737-0.774-1.196c-0.18-0.46-0.267-0.959-0.267-1.494c0-0.648,0.126-1.234,0.386-1.755
			c0.259-0.521,0.611-0.987,1.056-1.402c0.446-0.411,0.968-0.778,1.565-1.097c0.598-0.321,1.228-0.608,1.896-0.86
			c0.667-0.254,1.354-0.479,2.063-0.676c0.709-0.198,1.402-0.382,2.078-0.551v-0.945c0-0.686-0.068-1.264-0.203-1.737
			c-0.136-0.475-0.332-0.858-0.584-1.149c-0.256-0.293-0.563-0.5-0.925-0.626c-0.361-0.128-0.767-0.191-1.219-0.191
			c-0.506,0-0.919,0.065-1.24,0.197c-0.318,0.131-0.57,0.306-0.754,0.521c-0.182,0.219-0.308,0.463-0.37,0.741
			c-0.069,0.277-0.103,0.556-0.103,0.837c0,0.264-0.019,0.52-0.063,0.76c-0.041,0.247-0.119,0.46-0.231,0.644
			c-0.113,0.184-0.266,0.331-0.458,0.442c-0.192,0.113-0.439,0.171-0.739,0.171c-0.235,0-0.45-0.045-0.642-0.134
			c-0.192-0.089-0.357-0.215-0.5-0.374s-0.248-0.349-0.324-0.563c-0.074-0.217-0.113-0.452-0.113-0.704
			c0-0.498,0.165-0.964,0.493-1.396s0.769-0.806,1.324-1.121c0.555-0.314,1.203-0.563,1.946-0.746
			c0.741-0.184,1.521-0.276,2.338-0.276c0.995,0,1.835,0.1,2.521,0.291c0.686,0.19,1.241,0.461,1.664,0.81
			c0.422,0.349,0.729,0.771,0.915,1.268c0.189,0.5,0.282,1.049,0.282,1.649V115.066z M294.033,106.245
			c-0.432,0.142-0.88,0.303-1.347,0.479c-0.463,0.18-0.919,0.38-1.364,0.599c-0.448,0.222-0.872,0.461-1.274,0.719
			c-0.405,0.26-0.76,0.533-1.063,0.826c-0.306,0.289-0.549,0.601-0.727,0.929c-0.18,0.328-0.267,0.673-0.267,1.028
			c0,0.367,0.066,0.715,0.202,1.049c0.135,0.333,0.318,0.626,0.545,0.874c0.224,0.249,0.483,0.447,0.779,0.592
			c0.295,0.146,0.604,0.22,0.923,0.22c0.338,0,0.66-0.046,0.966-0.135c0.304-0.089,0.602-0.209,0.888-0.359
			c0.287-0.15,0.572-0.326,0.859-0.528c0.285-0.204,0.578-0.415,0.88-0.641V106.245z"/>
		<path fill="#604C3F" stroke="#604C3F" stroke-width="0.6731" stroke-miterlimit="10" d="M304.066,99.933v10.766
			c0,0.374,0.089,0.729,0.262,1.063c0.174,0.334,0.409,0.623,0.711,0.865c0.301,0.246,0.652,0.439,1.057,0.586
			c0.405,0.146,0.837,0.219,1.297,0.219c0.3,0,0.619-0.065,0.958-0.191c0.337-0.126,0.669-0.304,0.991-0.53
			c0.326-0.224,0.63-0.485,0.917-0.779c0.287-0.295,0.524-0.613,0.712-0.951V99.933h3.002v15.133h-3.002v-2.833
			c-0.263,0.434-0.593,0.841-0.993,1.227c-0.398,0.386-0.832,0.721-1.295,1.008c-0.466,0.285-0.945,0.512-1.438,0.677
			s-0.96,0.246-1.402,0.246c-0.656,0-1.276-0.126-1.858-0.374s-1.092-0.586-1.523-1.008c-0.43-0.423-0.771-0.918-1.021-1.486
			c-0.248-0.567-0.374-1.177-0.374-1.823V99.933H304.066z"/>
		<path fill="#604C3F" stroke="#604C3F" stroke-width="0.6731" stroke-miterlimit="10" d="M317.492,99.933h3.002v2.763
			c0.911-1.025,1.86-1.792,2.848-2.306c0.986-0.511,1.99-0.769,3.013-0.769c0.528,0,1.023,0.122,1.49,0.361
			c0.463,0.239,0.865,0.565,1.21,0.979c0.343,0.413,0.613,0.9,0.817,1.458c0.202,0.56,0.302,1.152,0.302,1.782v10.864h-3.017
			v-10.356c0-0.996-0.223-1.753-0.675-2.268c-0.452-0.519-1.028-0.774-1.732-0.774c-0.32,0-0.657,0.052-1.016,0.155
			c-0.355,0.101-0.717,0.248-1.086,0.441c-0.364,0.194-0.729,0.424-1.097,0.69c-0.366,0.27-0.719,0.565-1.058,0.896v11.216h-3.002
			V99.933z"/>
		<path fill="#604C3F" stroke="#604C3F" stroke-width="0.6731" stroke-miterlimit="10" d="M340.052,115.39
			c-0.985,0-1.914-0.196-2.784-0.585c-0.869-0.39-1.624-0.923-2.267-1.6c-0.646-0.676-1.152-1.47-1.523-2.381
			c-0.37-0.912-0.554-1.883-0.554-2.917c0-1.145,0.202-2.222,0.611-3.228c0.407-1.004,0.969-1.883,1.683-2.635
			c0.715-0.749,1.547-1.342,2.496-1.773c0.946-0.432,1.966-0.65,3.056-0.65c0.847,0,1.625,0.093,2.34,0.276
			c0.714,0.183,1.327,0.436,1.844,0.761c0.517,0.323,0.923,0.708,1.212,1.149c0.291,0.44,0.438,0.915,0.438,1.423
			c0,0.227-0.058,0.438-0.177,0.642c-0.118,0.202-0.27,0.378-0.457,0.526c-0.188,0.151-0.4,0.271-0.642,0.361
			c-0.239,0.089-0.479,0.133-0.725,0.133c-0.273,0-0.517-0.05-0.733-0.148c-0.217-0.098-0.402-0.226-0.556-0.38
			c-0.154-0.155-0.272-0.331-0.353-0.527c-0.081-0.198-0.12-0.398-0.12-0.606c0-0.349-0.039-0.674-0.113-0.979
			c-0.076-0.308-0.207-0.57-0.393-0.789c-0.189-0.223-0.448-0.396-0.776-0.522c-0.33-0.126-0.747-0.189-1.253-0.189
			c-0.686,0-1.303,0.138-1.847,0.415c-0.545,0.278-1.005,0.648-1.381,1.119s-0.663,1.023-0.859,1.657
			c-0.199,0.634-0.297,1.308-0.297,2.02c0,0.967,0.128,1.885,0.38,2.75c0.256,0.863,0.611,1.619,1.073,2.268
			c0.459,0.648,1.013,1.162,1.662,1.542c0.648,0.382,1.371,0.57,2.169,0.57c0.704,0,1.314-0.109,1.833-0.331
			c0.516-0.221,0.964-0.518,1.344-0.896c0.381-0.374,0.705-0.812,0.979-1.308c0.272-0.499,0.518-1.023,0.732-1.579l0.902,0.367
			c-0.254,0.948-0.597,1.797-1.028,2.55c-0.432,0.752-0.941,1.386-1.529,1.9c-0.587,0.52-1.248,0.912-1.986,1.185
			C341.716,115.253,340.916,115.39,340.052,115.39z"/>
		<path fill="#604C3F" stroke="#604C3F" stroke-width="0.6731" stroke-miterlimit="10" d="M352.818,102.696
			c0.911-1.025,1.86-1.792,2.844-2.306c0.986-0.511,1.992-0.769,3.017-0.769c0.526,0,1.021,0.122,1.486,0.361
			s0.869,0.565,1.212,0.979s0.613,0.9,0.812,1.458c0.196,0.56,0.295,1.152,0.295,1.782v10.864h-3.002v-10.356
			c0-0.996-0.227-1.753-0.677-2.268c-0.45-0.519-1.033-0.774-1.745-0.774c-0.32,0-0.66,0.052-1.018,0.155
			c-0.354,0.101-0.717,0.248-1.084,0.441c-0.365,0.194-0.729,0.424-1.091,0.69c-0.361,0.27-0.714,0.565-1.049,0.896v11.216h-3.002
			V93.043l2.142-0.859h0.86V102.696z"/>
	</g>
	<g>
		<path fill="#006934" d="M171.399,33.195l-0.08,1.764v0.16c0,1.042,0.56,1.363,2.963,1.363c3.128,0,4.651-0.48,5.692-0.961
			c0.159-0.08,0.4-0.16,0.56-0.16c0.963,0,3.046,2.164,3.046,2.805c0,0.241,0,1.522-9.058,1.522c-3.767,0-7.213-0.08-7.213-4.087
			v-2.164l-4.488,0.321c-4.972,7.134-14.588,9.217-16.514,9.217c-0.801,0-1.282-0.241-1.282-0.641c0-0.482,0.802-1.203,2.405-1.764
			c4.087-1.522,7.615-3.366,10.18-6.493l-5.692,0.321c-0.639,0-1.121,0.08-1.523,0.08c-2.081,0-3.044-1.603-3.444-2.564
			c-0.16-0.241-0.16-0.481-0.16-0.642c0-0.4,0.239-0.561,0.721-0.561c0.16,0,0.319,0.081,0.56,0.081
			c0.884,0.16,1.764,0.24,2.566,0.24h0.801l11.462-0.722l-0.08-3.126l-4.488,0.321c-0.802,0.081-1.443,0.081-2.005,0.081
			c-0.802,0-1.362-0.081-1.923-0.401c-0.803-0.561-1.444-1.522-1.764-2.163c-0.082-0.242-0.16-0.402-0.16-0.562
			c0-0.32,0.16-0.481,0.562-0.481c0.159,0,0.4,0,0.64,0.08c0.884,0.241,1.684,0.32,2.724,0.32h0.963l5.372-0.32v-1.122
			c0-1.203-0.241-1.923-0.804-3.126c-0.078-0.241-0.16-0.401-0.16-0.561c0-0.402,0.323-0.563,0.963-0.563
			c0.239,0,4.407,0,4.407,2.646v2.404l3.688-0.241c0.884-0.08,1.843-0.24,2.887-0.561c0.4-0.161,0.721-0.241,1.121-0.241
			c0.641,0,3.526,1.443,3.526,2.726c0,0.562-0.8,0.801-1.923,0.881l-9.378,0.642v3.126l8.338-0.481
			c1.04-0.08,1.844-0.161,2.804-0.48c0.321-0.081,0.723-0.161,1.043-0.161c1.844,0,3.608,1.923,3.608,2.725
			c0,0.561-0.723,0.882-1.924,0.962L171.399,33.195z M188.872,15.562c-2.887,5.69-3.688,7.374-4.89,7.374
			c-0.481,0-0.721-0.481-0.721-1.283c0-0.561,0-0.64,1.523-5.851l-11.705,0.642l0.643,3.606c0,0.241,0.08,0.481,0.08,0.641
			c0,0.802-0.32,1.282-1.282,1.282c-0.4,0-3.928-0.079-3.928-2.884c0-0.802,0-1.604-0.08-2.405l-14.909,0.881
			c-0.721,0.081-1.364,0.081-1.844,0.081c-1.443,0-2.164-0.16-2.724-0.722c-1.443-1.282-2.005-2.726-2.005-3.045
			c0-0.241,0.159-0.4,0.481-0.4c0.16,0,0.319,0,0.56,0.079c0.884,0.241,1.603,0.321,2.485,0.321c0.402,0,0.882-0.081,1.362-0.081
			l15.871-0.961l-0.398-2.325c-0.243-1.123-0.802-2.004-1.766-2.804c-0.321-0.242-0.48-0.482-0.48-0.803
			c0-0.321,0.48-0.641,1.685-0.641c1.362,0,4.569,0,4.97,2.324l0.641,4.009l13.304-0.802l0.641-3.446
			c0-0.321,0.082-0.64,0.082-0.962c0-0.562-0.082-1.203-0.402-1.924c-0.08-0.159-0.08-0.319-0.08-0.48
			c0-0.321,0.159-0.481,0.563-0.481c0.56,0,1.442,0.24,2.644,0.722c1.844,0.721,2.646,1.683,2.646,2.726
			c0,0.64-0.563,2.083-1.203,3.526l11.14-0.641c1.685-0.08,2.806-0.241,4.008-0.641c0.479-0.161,0.88-0.24,1.2-0.24
			c1.205,0,3.768,2.003,3.768,3.447c0,0.64-0.719,0.881-1.683,0.96L188.872,15.562z M174.523,64.697
			c-2.564,2.564-4.888,5.051-7.375,7.055c7.455-0.241,15.873-0.803,23.968-1.604c-4.088-2.084-4.488-2.245-4.488-2.887
			c0-0.801,0.96-2.564,2.083-2.564c0.882,0,8.175,3.446,15.311,7.856c0.881,0.56,1.281,0.96,1.281,1.683
			c0,0.32-0.562,3.287-2.165,3.287c-0.479,0-0.961-0.241-1.441-0.562c-1.844-1.284-3.688-2.566-5.612-3.688
			c-14.828,1.604-27.013,2.403-37.191,2.806c-0.802,0-1.523,0.08-2.083,0.08c-2.084,0-4.169-2.485-4.169-4.088
			c0-0.32,0.241-0.562,0.641-0.562c0.161,0,0.32,0,0.562,0.079c1.282,0.4,2.403,0.4,3.446,0.4h0.964c1.039,0,2.083,0,3.124-0.077
			c2.805-2.326,5.049-4.811,7.054-6.975l-16.032,0.562h-0.882c-3.526,0-4.329-3.126-4.329-3.688c0-0.321,0.082-0.402,0.402-0.402
			c0.159,0,0.4,0,0.641,0.081c0.961,0.241,2.485,0.4,3.606,0.4l52.183-1.763c1.04,0,2.083-0.16,2.963-0.481
			c0.402-0.16,0.644-0.241,0.964-0.241c1.765,0,3.608,2.646,3.608,3.126c0,0.641-0.805,0.882-2.006,0.963L174.523,64.697z
			 M167.148,45.54v3.687c3.448-0.48,7.054-1.042,10.821-1.763c0.641-0.081,1.203-0.161,1.684-0.161c1.042,0,1.603,0.242,1.603,0.642
			c0,0.48-0.8,1.122-2.483,1.522c-16.193,4.409-25.892,5.852-26.773,5.852c-2.244,0-4.088-3.367-4.088-3.927
			c0-0.401,0.321-0.562,0.801-0.562h0.402c0.8,0.081,1.523,0.16,2.244,0.16c0.802,0,1.523-0.08,2.164-0.08
			c2.805-0.16,6.011-0.642,9.537-1.122l-0.08-4.008l-4.647,0.24c-0.563,0-1.204,0.081-1.764,0.081c-0.884,0-1.764-0.16-2.403-0.801
			c-0.723-0.882-1.205-1.682-1.205-2.485c0-0.401,0.162-0.48,0.482-0.48c0.08,0,0.319,0.08,0.48,0.08
			c0.882,0.16,2.003,0.32,3.126,0.32h0.721l5.131-0.32v-1.042c0-0.801-0.08-1.923-0.641-2.885c-0.159-0.24-0.239-0.481-0.239-0.642
			c0-0.319,0.321-0.56,1.04-0.56c0.321,0,4.169,0.08,4.169,2.564v2.325l3.126-0.16c0.963-0.08,2.003-0.161,3.126-0.562
			c0.241-0.081,0.481-0.16,0.721-0.16c1.282,0,3.367,1.683,3.367,2.726c0,0.641-0.641,0.962-1.603,1.042L167.148,45.54z
			 M168.032,57.965c-0.884,0-1.604,0.08-2.246,0.08c-2.564,0-3.766-2.885-3.766-3.606c0-0.322,0.16-0.402,0.56-0.402
			c0.161,0,0.4,0,0.642,0.081c1.043,0.241,1.923,0.322,2.887,0.322h0.88l22.284-0.882c1.123-0.08,2.003-0.24,2.724-0.481
			c0.481-0.161,0.964-0.32,1.284-0.32c1.123,0,3.605,2.083,3.605,3.045c0,0.641-0.802,0.882-2.003,0.961L168.032,57.965z
			 M214.762,42.975c0,8.015-1.041,9.137-8.016,9.137c-3.206,0-7.212-0.24-7.212-5.529c0-0.321,0-0.722,0.079-1.124l1.44-15.47
			l-5.529,0.481c-0.321,3.127-0.962,6.012-1.765,8.336c1.443,1.042,2.727,2.084,3.848,3.127c0.723,0.72,1.043,1.202,1.043,1.763
			c0,0.961-1.364,2.484-2.164,2.484c-0.48,0-0.962-0.32-1.523-0.881c-0.882-0.962-1.924-1.844-2.967-2.806
			c-3.365,6.092-9.539,10.261-11.22,10.261c-0.402,0-0.643-0.16-0.643-0.481c0-0.482,0.482-1.283,1.605-2.325
			c3.046-2.965,5.529-6.173,7.213-10.02c-1.364-1.042-2.807-2.165-4.329-3.207c-0.641-0.48-0.961-0.881-0.961-1.362
			c0-0.722,0.961-2.004,1.764-2.004c0.882,0,4.729,2.805,4.89,2.886c0.4-1.604,0.721-3.527,0.96-5.371l-2.967,0.24
			c-0.8,0.081-1.521,0.16-2.164,0.16c-0.639,0-2.403-0.08-3.847-2.805c-0.159-0.321-0.241-0.561-0.241-0.722
			c0-0.32,0.241-0.479,0.642-0.479h0.481c1.121,0.159,2.005,0.24,2.965,0.24c0.483,0,1.043,0,1.604-0.081l3.847-0.32
			c0.08-0.722,0.08-1.523,0.08-2.244c0-1.523-0.08-4.649-0.96-6.093c-0.161-0.24-0.241-0.4-0.241-0.562c0-0.4,0.4-0.561,0.962-0.561
			c0.56,0,1.441,0.161,2.403,0.48c1.924,0.642,2.085,1.283,2.085,2.326v1.923c0,1.522,0,2.966-0.078,4.33l6.33-0.562
			c0.24-0.081,0.481-0.081,0.721-0.081c0.563,0,3.128,0.801,3.128,2.565c0,0.721-0.563,1.442-0.642,2.164l-1.443,14.267
			c-0.08,0.481-0.08,0.882-0.08,1.203c0,1.283,0.562,1.923,3.286,1.923c3.446,0,3.847-0.321,4.969-7.936
			c0.321-2.164,0.964-3.207,1.523-3.207c0.642,0,1.123,1.042,1.123,3.287V42.975z"/>
		<path fill="#231815" d="M232.074,59.247l0.081,4.49v0.318c0,1.203-0.401,1.683-1.202,1.683c0,0-3.929-0.399-3.929-2.965
			c0-0.24,0-0.481,0.082-0.721c0.318-1.604,0.4-2.965,0.4-4.409l-0.801-37.993c0-1.524-0.483-3.046-0.884-4.008
			c-0.159-0.48-0.32-0.801-0.32-1.122c0-0.321,0.161-0.481,0.641-0.481c0.803,0,2.325,0.481,5.131,1.443l11.542-0.881h0.882
			c2.244,0,3.445,1.682,3.445,2.645c0,0.721-0.32,1.282-0.4,1.844l-1.282,35.428c1.603,1.764,2.166,2.805,2.166,3.366
			c0,0.802-1.043,0.802-2.246,0.882L232.074,59.247z M241.695,18.847l-10.341,0.803l0.24,14.749l9.78-0.482L241.695,18.847z
			 M241.293,37.925l-9.619,0.481l0.322,16.592l8.896-0.321L241.293,37.925z M253.637,36.963c-0.562,0-1.043,0.08-1.522,0.08
			c-1.605,0-3.929-0.24-5.211-4.328c-0.081-0.16-0.081-0.321-0.081-0.401c0-0.241,0.161-0.4,0.403-0.4c0.078,0,0.239,0,0.4,0.08
			c1.04,0.321,2.244,0.562,3.767,0.562h0.722l17.232-0.962v-8.978l-9.619,0.562c-0.8,0.08-1.443,0.08-2.083,0.08
			c-1.124,0-2.005-0.16-2.484-0.641c-1.443-1.442-2.005-3.607-2.005-3.848c0-0.24,0.081-0.4,0.32-0.4c0.082,0,0.241,0,0.402,0.08
			c0.96,0.32,2.483,0.561,3.847,0.561h0.642l11.06-0.641V9.631c0-1.443-0.238-2.486-0.8-3.448c-0.321-0.561-0.48-0.961-0.48-1.202
			c0-0.401,0.237-0.562,0.721-0.562c0.56,0,1.523,0.24,2.725,0.642c2.245,0.722,2.726,1.042,2.726,2.164v10.821l7.456-0.482
			c1.603-0.08,2.724-0.319,3.767-0.721c0.239-0.081,0.4-0.16,0.64-0.16c0.801,0,4.249,2.485,4.249,3.767
			c0,0.641-0.882,0.882-2.005,0.961l-14.187,0.882v9.058l15.07-0.883c1.521-0.081,2.804-0.321,3.768-0.721
			c0.238-0.08,0.399-0.161,0.639-0.161c1.525,0,4.408,3.126,4.408,3.848c0,0.641-0.801,0.962-2.083,1.042L253.637,36.963z
			 M277.203,49.227l-21.242,1.042c-0.801,0-1.443,0.081-2.083,0.081c-2.005,0-3.369-0.4-4.571-4.168
			c-0.078-0.161-0.078-0.32-0.078-0.4c0-0.24,0.078-0.321,0.32-0.321c0.16,0,0.321,0,0.561,0.081c0.963,0.24,2.164,0.4,3.448,0.4
			h0.8l22.846-1.122v-2.004c0-1.763-0.402-3.127-1.203-4.329c-0.32-0.481-0.479-0.882-0.479-1.122c0-0.322,0.239-0.482,0.721-0.482
			c0.64,0,5.85,1.042,5.85,3.367v4.409l5.853-0.321c1.041-0.08,1.844-0.32,2.885-0.802c0.161-0.08,0.322-0.08,0.562-0.08
			c0.962,0,4.729,2.164,4.729,3.767c0,0.722-0.801,1.122-1.923,1.202l-12.022,0.562l0.159,22.926c0,0.88,0.08,1.762,0.08,2.482
			c0,2.646-2.085,4.169-3.688,4.169c-2.003,0-13.707-6.651-13.707-8.816c0-0.399,0.241-0.562,0.801-0.562
			c0.483,0,1.284,0.162,2.248,0.562c2.724,1.042,6.331,2.004,9.296,2.565L277.203,49.227z M267.904,64.778
			c-0.56,0-1.042-0.322-1.442-0.882c-2.003-2.646-4.969-6.252-7.293-8.336c-0.4-0.4-0.643-0.722-0.643-1.122
			c0-0.882,1.523-2.486,2.566-2.486c1.603,0,9.698,8.818,9.698,9.939c0,0.482-0.32,1.042-1.202,1.924
			C268.947,64.455,268.383,64.778,267.904,64.778z"/>
		<path fill="#231815" d="M318.161,33.115c-7.614,9.378-15.149,14.99-16.272,14.99c-0.4,0-0.56-0.161-0.56-0.561
			c0-0.402,0.32-1.043,1.041-1.845c10.021-10.661,16.995-20.6,22.524-33.825c0.32-0.722,0.482-1.523,0.482-2.405
			c0-0.4,0-0.721-0.082-1.122V8.027c0-0.562,0.159-0.882,0.721-0.882c1.525,0,5.372,2.646,5.372,3.848
			c0,0.801-3.367,8.097-8.498,15.63l0.08,48.172c0,1.204-0.56,1.685-1.364,1.685c-1.359,0-4.326-1.443-4.326-3.526
			c0-0.241,0-0.481,0.081-0.801c0.398-1.764,0.48-3.368,0.48-4.892L318.161,33.115z M376.193,57.804
			c-0.241,3.768-0.88,8.416-1.761,12.903c-0.884,4.569-2.164,6.175-4.091,6.175c-0.96,0-5.69-1.444-10.018-5.772
			c-11.782-11.623-14.909-26.532-16.673-35.028l-11.622,1.844c-0.562,0.08-1.043,0.16-1.524,0.16c-1.521,0-2.563-1.042-3.925-3.447
			c-0.081-0.24-0.163-0.401-0.163-0.48c0-0.4,0.32-0.561,0.721-0.561h0.163c0.479,0.08,0.96,0.08,1.36,0.08
			c0.884,0,1.685-0.08,2.647-0.24l11.542-1.764c-1.122-6.573-1.923-13.467-2.164-19.478c-0.079-2.004-0.643-3.126-1.523-4.408
			c-0.32-0.401-0.481-0.722-0.481-1.043c0-0.48,0.562-0.721,1.362-0.721c1.202,0,5.69,0.561,5.69,3.366
			c0.242,7.857,1.123,14.99,2.245,21.482l17.795-2.726c0.963-0.159,1.603-0.319,2.404-0.722c0.241-0.159,0.482-0.159,0.803-0.159
			c0.96,0,3.847,2.003,3.847,3.286c0,0.721-0.802,1.203-2.083,1.363l-21.883,3.367c0.479,2.324,0.961,4.568,1.443,6.572
			c2.563,10.902,9.137,22.764,17.873,28.134c0.241,0.161,0.482,0.243,0.723,0.243c0.801,0,3.526-8.257,4.647-13.067
			c0.563-2.325,1.203-3.527,1.765-3.527c0.56,0,0.88,1.042,0.88,3.046V57.804z M360.323,24.459
			c-2.887-3.446-6.331-7.134-9.618-10.019c-0.48-0.402-0.721-0.802-0.721-1.204c0-0.882,1.441-2.564,2.402-2.564
			c1.362,0,7.937,6.492,11.304,10.26c0.479,0.48,0.721,0.962,0.721,1.442c0,1.363-1.925,2.886-2.726,2.886
			C361.205,25.261,360.724,24.94,360.323,24.459z"/>
	</g>
	<g>
		<g>
			<g>
				<g>
					<defs>
						<path id="SVGID_1_" d="M126.544,61.168h-5.342c0,0.014,0.002,0.028,0.002,0.041c0,29.311-23.761,53.072-53.071,53.072
							c-29.311,0-53.073-23.762-53.073-53.072c0-29.281,23.714-53.022,52.984-53.07V2.796C35.824,2.844,9.72,28.976,9.72,61.209
							c0,32.26,26.149,58.413,58.413,58.413c32.26,0,58.411-26.153,58.411-58.413C126.544,61.197,126.544,61.182,126.544,61.168z"/>
					</defs>
					<clipPath id="SVGID_2_">
						<use xlink:href="#SVGID_1_"  overflow="visible"/>
					</clipPath>
					<polygon clip-path="url(#SVGID_2_)" fill="#006934" points="127.456,36.572 68.048,1.709 127.456,1.709 					"/>
					<polygon clip-path="url(#SVGID_2_)" fill="#006934" points="127.456,37.881 65.776,1.709 68.044,1.709 127.456,36.572 					"/>
					<polygon clip-path="url(#SVGID_2_)" fill="#016934" points="127.456,39.191 63.506,1.709 65.776,1.709 127.456,37.881 					"/>
					<polygon clip-path="url(#SVGID_2_)" fill="#026834" points="127.456,40.502 61.234,1.709 63.506,1.709 127.456,39.191 					"/>
					<polygon clip-path="url(#SVGID_2_)" fill="#036834" points="127.456,41.812 58.966,1.709 61.234,1.709 127.456,40.502 					"/>
					<polygon clip-path="url(#SVGID_2_)" fill="#046834" points="127.456,43.124 56.697,1.709 58.966,1.709 127.456,41.812 					"/>
					<polygon clip-path="url(#SVGID_2_)" fill="#056735" points="127.456,44.434 54.425,1.709 56.697,1.709 127.456,43.124 					"/>
					<polygon clip-path="url(#SVGID_2_)" fill="#066735" points="127.456,45.746 52.156,1.709 54.425,1.709 127.456,44.434 					"/>
					<polygon clip-path="url(#SVGID_2_)" fill="#076735" points="127.456,47.055 49.883,1.709 52.156,1.709 127.456,45.746 					"/>
					<polygon clip-path="url(#SVGID_2_)" fill="#086735" points="127.456,48.367 47.615,1.709 49.883,1.709 127.456,47.055 					"/>
					<polygon clip-path="url(#SVGID_2_)" fill="#096635" points="127.456,49.677 45.347,1.709 47.615,1.709 127.456,48.367 					"/>
					<polygon clip-path="url(#SVGID_2_)" fill="#0A6635" points="127.456,50.989 43.073,1.709 45.347,1.709 127.456,49.677 					"/>
					<polygon clip-path="url(#SVGID_2_)" fill="#0B6635" points="127.456,52.298 40.805,1.709 43.073,1.709 127.456,50.989 					"/>
					<polygon clip-path="url(#SVGID_2_)" fill="#0C6535" points="127.456,53.61 38.537,1.709 40.805,1.709 127.456,52.298 					"/>
					<polygon clip-path="url(#SVGID_2_)" fill="#0D6536" points="127.456,54.919 36.264,1.709 38.537,1.709 127.456,53.61 					"/>
					<polygon clip-path="url(#SVGID_2_)" fill="#0E6536" points="127.456,56.231 33.996,1.709 36.264,1.709 127.456,54.919 					"/>
					<polygon clip-path="url(#SVGID_2_)" fill="#0F6436" points="127.456,57.541 31.726,1.709 33.996,1.709 127.456,56.231 					"/>
					<polygon clip-path="url(#SVGID_2_)" fill="#106436" points="127.456,58.853 29.454,1.709 31.726,1.709 127.456,57.541 					"/>
					<polygon clip-path="url(#SVGID_2_)" fill="#116436" points="127.456,60.163 27.186,1.709 29.454,1.709 127.456,58.853 					"/>
					<polygon clip-path="url(#SVGID_2_)" fill="#126436" points="127.456,61.472 24.912,1.709 27.186,1.709 127.456,60.163 					"/>
					<polygon clip-path="url(#SVGID_2_)" fill="#136336" points="127.456,62.784 23.576,2.526 23.28,1.709 24.912,1.709 
						127.456,61.472 					"/>
					<polygon clip-path="url(#SVGID_2_)" fill="#146336" points="127.456,64.092 23.009,4.053 23.803,3.071 127.456,62.784 					"/>
					<polygon clip-path="url(#SVGID_2_)" fill="#156336" points="127.456,65.405 22.446,5.037 23.238,4.053 127.456,64.092 					"/>
					<polygon clip-path="url(#SVGID_2_)" fill="#166237" points="127.456,66.716 21.875,6.02 22.669,5.037 127.456,65.405 					"/>
					<polygon clip-path="url(#SVGID_2_)" fill="#176237" points="127.456,68.029 21.308,7.004 22.102,6.02 127.456,66.716 					"/>
					<polygon clip-path="url(#SVGID_2_)" fill="#186237" points="127.456,69.336 20.741,7.988 21.534,7.004 127.456,68.029 					"/>
					<polygon clip-path="url(#SVGID_2_)" fill="#196137" points="127.456,70.649 20.17,8.969 20.966,7.988 127.456,69.336 					"/>
					<polygon clip-path="url(#SVGID_2_)" fill="#1A6137" points="127.456,71.958 19.603,9.952 20.399,8.969 127.456,70.649 					"/>
					<polygon clip-path="url(#SVGID_2_)" fill="#1B6137" points="127.456,73.269 19.036,10.935 19.83,9.952 127.456,71.958 					"/>
					<polygon clip-path="url(#SVGID_2_)" fill="#1C6037" points="127.456,74.58 18.469,11.919 19.261,10.935 127.456,73.269 					
						"/>
					<polygon clip-path="url(#SVGID_2_)" fill="#1D6037" points="127.456,75.892 17.902,12.903 18.696,11.919 127.456,74.58 					
						"/>
					<polygon clip-path="url(#SVGID_2_)" fill="#1E6037" points="127.456,77.2 17.331,13.885 18.129,12.903 127.456,75.892 					"/>
					<polygon clip-path="url(#SVGID_2_)" fill="#1F6038" points="127.456,78.51 16.764,14.869 17.562,13.885 127.456,77.2 					"/>
					<polygon clip-path="url(#SVGID_2_)" fill="#205F38" points="127.456,79.824 16.197,15.849 16.993,14.869 127.456,78.51 					
						"/>
					<polygon clip-path="url(#SVGID_2_)" fill="#215F38" points="127.456,81.132 15.63,16.832 16.424,15.849 127.456,79.824 					
						"/>
					<polygon clip-path="url(#SVGID_2_)" fill="#225F38" points="127.456,82.445 15.067,17.817 15.859,16.832 127.456,81.132 					
						"/>
					<polygon clip-path="url(#SVGID_2_)" fill="#235E38" points="127.456,83.752 14.496,18.8 15.29,17.817 127.456,82.445 					"/>
					<polygon clip-path="url(#SVGID_2_)" fill="#245E38" points="127.456,85.065 13.929,19.783 14.723,18.8 127.456,83.752 					"/>
					<polygon clip-path="url(#SVGID_2_)" fill="#255E38" points="127.456,86.376 13.362,20.766 14.156,19.783 127.456,85.065 					
						"/>
					<polygon clip-path="url(#SVGID_2_)" fill="#265D38" points="127.456,87.688 12.791,21.746 13.587,20.766 127.456,86.376 					
						"/>
					<polygon clip-path="url(#SVGID_2_)" fill="#275D39" points="127.456,88.996 12.224,22.731 13.021,21.746 127.456,87.688 					
						"/>
					<polygon clip-path="url(#SVGID_2_)" fill="#285D39" points="127.456,90.308 11.657,23.714 12.451,22.731 127.456,88.996 					
						"/>
					<polygon clip-path="url(#SVGID_2_)" fill="#295C39" points="127.456,91.616 11.091,24.698 11.884,23.714 127.456,90.308 					
						"/>
					<polygon clip-path="url(#SVGID_2_)" fill="#2A5C39" points="127.456,92.932 10.523,25.68 11.318,24.698 127.456,91.616 					
						"/>
					<polygon clip-path="url(#SVGID_2_)" fill="#2B5C39" points="127.456,94.24 9.456,26.79 9.456,26.282 10.393,25.68 
						127.456,92.932 					"/>
					<polygon clip-path="url(#SVGID_2_)" fill="#2C5C39" points="127.456,95.552 9.456,28.099 9.456,26.79 127.456,94.24 					"/>
					<polygon clip-path="url(#SVGID_2_)" fill="#2D5B39" points="127.456,96.161 126.565,96.688 9.456,29.411 9.456,28.099 
						127.456,95.552 					"/>
					<polygon clip-path="url(#SVGID_2_)" fill="#2E5B39" points="126.11,96.688 125.479,97.668 9.456,30.721 9.456,29.411 					"/>
					<polygon clip-path="url(#SVGID_2_)" fill="#2F5B39" points="125.543,97.668 124.912,98.651 9.456,32.033 9.456,30.721 					"/>
					<polygon clip-path="url(#SVGID_2_)" fill="#315A3A" points="124.972,98.651 124.345,99.636 9.456,33.344 9.456,32.033 					"/>
					<polygon clip-path="url(#SVGID_2_)" fill="#325A3A" points="124.409,99.636 123.778,100.618 9.456,34.656 9.456,33.344 					
						"/>
					<polygon clip-path="url(#SVGID_2_)" fill="#335A3A" points="123.839,100.618 123.209,101.602 9.456,35.965 9.456,34.656 					
						"/>
					<polygon clip-path="url(#SVGID_2_)" fill="#34593A" points="123.272,101.602 122.642,102.586 9.456,37.277 9.456,35.965 					
						"/>
					<polygon clip-path="url(#SVGID_2_)" fill="#35593A" points="122.708,102.586 122.075,103.569 9.456,38.585 9.456,37.277 					
						"/>
					<polygon clip-path="url(#SVGID_2_)" fill="#36593A" points="122.137,103.569 121.508,104.55 9.456,39.895 9.456,38.585 					
						"/>
					<polygon clip-path="url(#SVGID_2_)" fill="#37593A" points="121.574,104.55 120.941,105.532 9.456,41.207 9.456,39.895 					
						"/>
					<polygon clip-path="url(#SVGID_2_)" fill="#38583A" points="121.003,105.532 120.372,106.518 9.456,42.519 9.456,41.207 					
						"/>
					<polygon clip-path="url(#SVGID_2_)" fill="#39583A" points="120.436,106.518 119.803,107.5 9.456,43.829 9.456,42.519 					"/>
					<polygon clip-path="url(#SVGID_2_)" fill="#3A583B" points="119.869,107.5 119.237,108.483 9.456,45.138 9.456,43.829 					"/>
					<polygon clip-path="url(#SVGID_2_)" fill="#3B573B" points="119.299,108.483 118.669,109.468 9.456,46.45 9.456,45.138 					
						"/>
					<polygon clip-path="url(#SVGID_2_)" fill="#3C573B" points="118.732,109.468 118.101,110.447 9.456,47.763 9.456,46.45 					
						"/>
					<polygon clip-path="url(#SVGID_2_)" fill="#3D573B" points="118.165,110.447 117.533,111.43 9.456,49.072 9.456,47.763 					
						"/>
					<polygon clip-path="url(#SVGID_2_)" fill="#3E563B" points="117.594,111.43 116.966,112.414 9.456,50.382 9.456,49.072 					
						"/>
					<polygon clip-path="url(#SVGID_2_)" fill="#3F563B" points="117.031,112.414 116.4,113.397 9.456,51.693 9.456,50.382 					"/>
					<polygon clip-path="url(#SVGID_2_)" fill="#40563B" points="116.46,113.397 115.83,114.382 9.456,53.003 9.456,51.693 					"/>
					<polygon clip-path="url(#SVGID_2_)" fill="#41553B" points="115.893,114.382 115.264,115.365 9.456,54.315 9.456,53.003 					
						"/>
					<polygon clip-path="url(#SVGID_2_)" fill="#42553C" points="115.33,115.365 114.698,116.348 9.456,55.624 9.456,54.315 					
						"/>
					<polygon clip-path="url(#SVGID_2_)" fill="#43553C" points="114.763,116.348 114.129,117.332 9.456,56.937 9.456,55.624 					
						"/>
					<polygon clip-path="url(#SVGID_2_)" fill="#44553C" points="114.196,117.332 113.563,118.311 9.456,58.245 9.456,56.937 					
						"/>
					<polygon clip-path="url(#SVGID_2_)" fill="#45543C" points="113.625,118.311 112.993,119.296 9.456,59.557 9.456,58.245 					
						"/>
					<polygon clip-path="url(#SVGID_2_)" fill="#46543C" points="113.058,119.339 113.001,119.709 111.487,119.709 9.456,60.868 
						9.456,59.557 					"/>
					<polygon clip-path="url(#SVGID_2_)" fill="#47543C" points="109.213,119.709 9.456,62.18 9.456,60.868 111.487,119.709 					
						"/>
					<polygon clip-path="url(#SVGID_2_)" fill="#48533C" points="106.945,119.709 9.456,63.489 9.456,62.18 109.213,119.709 					
						"/>
					<polygon clip-path="url(#SVGID_2_)" fill="#49533C" points="104.675,119.709 9.456,64.8 9.456,63.489 106.945,119.709 					"/>
					<polygon clip-path="url(#SVGID_2_)" fill="#4A533C" points="102.404,119.709 9.456,66.113 9.456,64.8 104.675,119.709 					"/>
					<polygon clip-path="url(#SVGID_2_)" fill="#4B523D" points="100.134,119.709 9.456,67.42 9.456,66.113 102.404,119.709 					
						"/>
					<polygon clip-path="url(#SVGID_2_)" fill="#4C523D" points="97.865,119.709 9.456,68.733 9.456,67.42 100.134,119.709 					"/>
					<polygon clip-path="url(#SVGID_2_)" fill="#4D523D" points="95.594,119.709 9.456,70.04 9.456,68.733 97.865,119.709 					"/>
					<polygon clip-path="url(#SVGID_2_)" fill="#4E513D" points="93.326,119.709 9.456,71.353 9.456,70.04 95.594,119.709 					"/>
					<polygon clip-path="url(#SVGID_2_)" fill="#4F513D" points="91.054,119.709 9.456,72.664 9.456,71.353 93.326,119.709 					"/>
					<polygon clip-path="url(#SVGID_2_)" fill="#50513D" points="88.784,119.709 9.456,73.976 9.456,72.664 91.054,119.709 					"/>
					<polygon clip-path="url(#SVGID_2_)" fill="#51513D" points="86.51,119.709 9.456,75.284 9.456,73.976 88.784,119.709 					"/>
					<polygon clip-path="url(#SVGID_2_)" fill="#52503D" points="84.244,119.709 9.456,76.596 9.456,75.284 86.51,119.709 					"/>
					<polygon clip-path="url(#SVGID_2_)" fill="#53503D" points="81.973,119.709 9.456,77.905 9.456,76.596 84.244,119.709 					"/>
					<polygon clip-path="url(#SVGID_2_)" fill="#54503E" points="79.701,119.709 9.456,79.218 9.456,77.905 81.973,119.709 					"/>
					<polygon clip-path="url(#SVGID_2_)" fill="#554F3E" points="77.433,119.709 9.456,80.529 9.456,79.218 79.701,119.709 					"/>
					<polygon clip-path="url(#SVGID_2_)" fill="#564F3E" points="75.165,119.709 9.456,81.84 9.456,80.529 77.433,119.709 					"/>
					<polygon clip-path="url(#SVGID_2_)" fill="#574F3E" points="72.891,119.709 9.456,83.149 9.456,81.84 75.165,119.709 					"/>
					<polygon clip-path="url(#SVGID_2_)" fill="#584E3E" points="70.623,119.709 9.456,84.458 9.456,83.149 72.891,119.709 					"/>
					<polygon clip-path="url(#SVGID_2_)" fill="#594E3E" points="68.352,119.709 9.456,85.771 9.456,84.458 70.623,119.709 					"/>
					<polygon clip-path="url(#SVGID_2_)" fill="#5A4E3E" points="66.082,119.709 9.456,87.08 9.456,85.771 68.352,119.709 					"/>
					<polygon clip-path="url(#SVGID_2_)" fill="#5B4E3E" points="63.812,119.709 9.456,88.392 9.456,87.08 66.082,119.709 					"/>
					<polygon clip-path="url(#SVGID_2_)" fill="#5C4D3F" points="61.542,119.709 9.456,89.7 9.456,88.392 63.812,119.709 					"/>
					<polygon clip-path="url(#SVGID_2_)" fill="#5D4D3F" points="59.272,119.709 9.456,91.012 9.456,89.7 61.542,119.709 					"/>
					<polygon clip-path="url(#SVGID_2_)" fill="#5E4D3F" points="57,119.709 9.456,92.324 9.456,91.012 59.272,119.709 					"/>
					<polygon clip-path="url(#SVGID_2_)" fill="#5F4C3F" points="54.732,119.709 9.456,93.636 9.456,92.324 57,119.709 					"/>
					<polygon clip-path="url(#SVGID_2_)" fill="#604C3F" points="52.462,119.709 9.456,94.945 9.456,93.636 54.732,119.709 					"/>
					<polygon clip-path="url(#SVGID_2_)" fill="#604C3F" points="9.456,94.945 52.462,119.709 9.456,119.709 					"/>
				</g>
			</g>
		</g>
		<g>
			<path fill="#006934" d="M95.21,61.965l-25.534-2.302L67.375,34.13l21.277-21.276l29.647-1.815l-1.812,29.65L95.21,61.965z
				 M75.876,53.464l16.803,1.515l17.246-17.246l1.193-19.51L91.61,19.416L74.363,36.662L75.876,53.464z"/>
		</g>
	</g>
</g>
</svg>
